{
.appVersion = "1199";
copyright = "Copyright (c) 2011, Dan Sayers (i@iotic.com)";
customParameters = (
{
name = license;
value = "This Font Software is licensed under the SIL Open Font License, Version 1.1. This license is copied below, and is also available with a FAQ at: http://scripts.sil.org/OFL";
},
{
name = licenseURL;
value = "http://scripts.sil.org/OFL";
},
{
name = vendorID;
value = DANS;
},
{
name = panose;
value = (
2,
0,
6,
3,
0,
0,
0,
0,
0,
4
);
},
{
name = fsType;
value = (
);
},
{
name = "Disable Last Change";
value = 1;
},
{
name = "Use Line Breaks";
value = 1;
},
{
name = "Use Typo Metrics";
value = 1;
},
{
name = Axes;
value = (
{
Name = Weight;
Tag = wght;
}
);
}
);
date = "2011-11-13 19:02:34 +0000";
designer = "Dan Sayers";
designerURL = iotic.com;
disablesNiceNames = 1;
familyName = "Averia Serif Libre";
fontMaster = (
{
ascender = 1622;
capHeight = 700;
custom = Italic;
customParameters = (
{
name = typoAscender;
value = 1890;
},
{
name = typoDescender;
value = -426;
},
{
name = typoLineGap;
value = 184;
},
{
name = winAscent;
value = 1890;
},
{
name = winDescent;
value = 465;
},
{
name = hheaAscender;
value = 1890;
},
{
name = hheaDescender;
value = -465;
},
{
name = strikeoutPosition;
value = 530;
},
{
name = strikeoutSize;
value = 102;
},
{
name = "Axis Location";
value = (
{
Axis = Weight;
Location = 300;
}
);
}
);
descender = -426;
id = "92A672BF-229C-4BEC-8D25-4DDBB2A38145";
italicAngle = 6.85;
weight = Light;
weightValue = 300;
widthValue = 5;
xHeight = 500;
},
{
ascender = 1622;
capHeight = 700;
custom = Italic;
customParameters = (
{
name = typoAscender;
value = 1622;
},
{
name = typoDescender;
value = -426;
},
{
name = typoLineGap;
value = 184;
},
{
name = winAscent;
value = 1833;
},
{
name = winDescent;
value = 466;
},
{
name = hheaAscender;
value = 1833;
},
{
name = hheaDescender;
value = -466;
},
{
name = strikeoutPosition;
value = 530;
},
{
name = strikeoutSize;
value = 102;
},
{
name = "Axis Location";
value = (
{

glyphs = (
{
glyphname = A;
layers = (
{
anchors = (
{
name = bottom;
position = "{694, -2}";
},
{
name = top;
position = "{899, 1390}";
}
);
layerId = "5CBF0BAD-1756-4F16-9711-93DC239D102B";
paths = (
{
closed = 1;
nodes = (
"563 644 OFFCURVE",
"794 1043 OFFCURVE",
"816 1043 CURVE SMOOTH",
"832 1043 OFFCURVE",
"908 672 OFFCURVE",
"908 615 CURVE SMOOTH",
"908 587 OFFCURVE",
"897 582 OFFCURVE",
"771 582 CURVE SMOOTH",
"579 582 OFFCURVE",
"563 587 OFFCURVE",
"563 607 CURVE SMOOTH"
);
},
{
closed = 1;
nodes = (
"6 0 OFFCURVE",
"45 -13 OFFCURVE",
"254 -14 CURVE SMOOTH",
"379 -15 OFFCURVE",
"419 -6 OFFCURVE",
"419 28 CURVE SMOOTH",
"419 98 OFFCURVE",
"373 109 OFFCURVE",
"373 189 CURVE SMOOTH",
"373 251 OFFCURVE",
"434 392 OFFCURVE",
"472 416 CURVE SMOOTH",
"499 433 OFFCURVE",
"629 438 OFFCURVE",
"740 438 CURVE SMOOTH",
"817 438 OFFCURVE",
"906 431 OFFCURVE",
"932 405 CURVE SMOOTH",
"957 380 OFFCURVE",
"972 303 OFFCURVE",
"972 220 CURVE SMOOTH",
"972 184 OFFCURVE",
"884 70 OFFCURVE",
"884 48 CURVE SMOOTH",
"884 12 OFFCURVE",
"957 -6 OFFCURVE",
"1041 -6 CURVE SMOOTH",
"1319 -5 OFFCURVE",
"1372 12 OFFCURVE",
"1372 63 CURVE SMOOTH",
"1372 94 OFFCURVE",
"1254 131 OFFCURVE",
"1237 209 CURVE SMOOTH",
"1212 323 OFFCURVE",
"1088 953 OFFCURVE",
"1015 1232 CURVE SMOOTH",
"986 1341 OFFCURVE",
"961 1370 OFFCURVE",
"890 1370 CURVE SMOOTH",
"812 1370 OFFCURVE",
"740 1268 OFFCURVE",
"608 977 CURVE SMOOTH",
"540 827 OFFCURVE",
"403 587 OFFCURVE",
"213 258 CURVE SMOOTH",
"159 165 OFFCURVE",
"6 85 OFFCURVE",
"6 48 CURVE SMOOTH"
);
}
);
width = 1474;
},
{
anchors = (
{
name = bottom;
position = "{651, -3}";
},
{
name = top;
position = "{692, 1391}";
}
);
layerId = "92A672BF-229C-4BEC-8D25-4DDBB2A38145";
paths = (
{
closed = 1;
nodes = (
"455 622 OFFCURVE",
"646 1154 OFFCURVE",
"660.5 1154 CURVE SMOOTH",
"677 1154 OFFCURVE",
"859 641 OFFCURVE",
"859 591 CURVE SMOOTH",
"859 581.667 OFFCURVE",
"813.667 577 OFFCURVE",
"723 577 CURVE SMOOTH",
"511 577 OFFCURVE",
"455 576 OFFCURVE",
"455 595 CURVE SMOOTH"
);
},
{
closed = 1;
nodes = (
"20 27 OFFCURVE",
"109.667 13 OFFCURVE",
"289 13 CURVE SMOOTH",
"354.333 13 OFFCURVE",
"387 25 OFFCURVE",
"387 48 CURVE SMOOTH",
"387 73 OFFCURVE",
"304 130 OFFCURVE",
"304 173 CURVE SMOOTH",
"304 200 OFFCURVE",
"317 251 OFFCURVE",
"347 323.5 CURVE SMOOTH",
"410 477 OFFCURVE",
"436 486 OFFCURVE",
"702 486 CURVE SMOOTH",
"825 486 OFFCURVE",
"877 477 OFFCURVE",
"907 436 CURVE SMOOTH",
"932 401 OFFCURVE",
"1005 224 OFFCURVE",
"1005 173.5 CURVE SMOOTH",
"1005 129.465 OFFCURVE",
"939 72.687 OFFCURVE",
"939 41 CURVE SMOOTH",
"939 17 OFFCURVE",
"997.333 5 OFFCURVE",
"1114 5 CURVE SMOOTH",
"1314 5 OFFCURVE",
"1386 8 OFFCURVE",
"1386 44 CURVE SMOOTH",
"1386 81 OFFCURVE",
"1272 117 OFFCURVE",
"1240 186 CURVE SMOOTH",
"1206 260 OFFCURVE",
"980 867 OFFCURVE",
"925 1028 CURVE SMOOTH",
"870 1189 OFFCURVE",
"793 1391 OFFCURVE",
"703 1391 CURVE SMOOTH",
"576 1391 OFFCURVE",
"562 1218 OFFCURVE",
"495 1028 CURVE SMOOTH",
"474 968 OFFCURVE",
"182 243 OFFCURVE",
"174 223 CURVE SMOOTH",
"139 140 OFFCURVE",
"20 85 OFFCURVE",
"20 53 CURVE SMOOTH"
);
}
);
width = 1436;
}
);
note = uni0041;
unicode = 0041;
},
{
glyphname = AE;
layers = (
{
layerId = "92A672BF-229C-4BEC-8D25-4DDBB2A38145";
paths = (
{
closed = 1;
nodes = (
"1671 1 OFFCURVE",
"1792 25 OFFCURVE",
"1792 206 CURVE SMOOTH",
"1792 248 OFFCURVE",
"1779 262 OFFCURVE",
"1755 262 CURVE SMOOTH",
"1736 262 OFFCURVE",
"1627 123 OFFCURVE",
"1371 123 CURVE SMOOTH",
"1172 123 OFFCURVE",
"1140 248 OFFCURVE",
"1138 468 CURVE SMOOTH",
"1137 574 OFFCURVE",
"1186 634 OFFCURVE",
"1299 634 CURVE SMOOTH",
"1365 634 OFFCURVE",
"1473 553 OFFCURVE",
"1507 553 CURVE SMOOTH",
"1543 553 OFFCURVE",
"1564 601 OFFCURVE",
"1564 707.5 CURVE SMOOTH",
"1564 815 OFFCURVE",
"1543 866 OFFCURVE",
"1504 866 CURVE SMOOTH",
"1462 866 OFFCURVE",
"1367 785 OFFCURVE",
"1294 785 CURVE SMOOTH",
"1200 785 OFFCURVE",
"1134 838 OFFCURVE",
"1134 942 CURVE SMOOTH",
"1134 1201 OFFCURVE",
"1174 1270 OFFCURVE",
"1315 1270 CURVE SMOOTH",
"1590 1270 OFFCURVE",
"1663 1143 OFFCURVE",
"1698 1143 CURVE SMOOTH",
"1720 1143 OFFCURVE",
"1728 1164 OFFCURVE",
"1728 1206 CURVE SMOOTH",
"1728 1330 OFFCURVE",
"1653 1381 OFFCURVE",
"1486 1381 CURVE SMOOTH",
"1340 1381 OFFCURVE",
"1194 1380 OFFCURVE",
"1048 1380 CURVE SMOOTH",
"927 1380 OFFCURVE",
"844.167 1374.167 OFFCURVE",
"800.5 1362.5 CURVE SMOOTH",
"756.833 1350.833 OFFCURVE",
"732 1332 OFFCURVE",
"732 1281 CURVE SMOOTH",
"732 1261 OFFCURVE",
"734 1238 OFFCURVE",
"730 1206 CURVE SMOOTH",
"724 1155 OFFCURVE",
"663 1052 OFFCURVE",
"190.5 220.5 CURVE SMOOTH",
"158 177 OFFCURVE",
"39 93 OFFCURVE",
"39 52 CURVE SMOOTH",
"39 22.667 OFFCURVE",
"95.833 8 OFFCURVE",
"209.5 8 CURVE SMOOTH",
"323.167 8 OFFCURVE",
"380 21.667 OFFCURVE",
"380 49 CURVE SMOOTH",
"380 78 OFFCURVE",
"339 123 OFFCURVE",
"339 166 CURVE SMOOTH",
"339 229 OFFCURVE",
"420 398 OFFCURVE",
"489 462 CURVE SMOOTH",
"538 508 OFFCURVE",
"631 531 OFFCURVE",
"767 531 CURVE SMOOTH",
"871.667 531 OFFCURVE",
"924 458 OFFCURVE",
"924 311 CURVE SMOOTH",
"924 171 OFFCURVE",
"861 145 OFFCURVE",
"861 92 CURVE SMOOTH",
"861 8 OFFCURVE",
"981 -1 OFFCURVE",
"1315 0 CURVE SMOOTH"
);
},
{
closed = 1;
nodes = (
"622 613 OFFCURVE",
"563 622 OFFCURVE",
"563 644 CURVE SMOOTH",
"563 679 OFFCURVE",
"859 1215 OFFCURVE",
"900 1215 CURVE SMOOTH",
"932 1215 OFFCURVE",
"921 680 OFFCURVE",
"900 637 CURVE SMOOTH",
"892.667 622.333 OFFCURVE",
"775 616 OFFCURVE",
"736 615 CURVE SMOOTH"
);
}
);
width = 1942;
},
{
layerId = "5CBF0BAD-1756-4F16-9711-93DC239D102B";
paths = (
{
closed = 1;
nodes = (
"1696 0 OFFCURVE",
"1756 152 OFFCURVE",
"1756 214 CURVE SMOOTH",
"1756 277 OFFCURVE",
"1739 302 OFFCURVE",
"1715 302 CURVE SMOOTH",
"1681 302 OFFCURVE",
"1476 154 OFFCURVE",
"1312 154 CURVE SMOOTH",
"1193 154 OFFCURVE",
"1159 212 OFFCURVE",
"1159 379 CURVE SMOOTH",
"1159 513 OFFCURVE",
"1202 619 OFFCURVE",
"1346 619 CURVE SMOOTH",
"1440 619 OFFCURVE",
"1465 553 OFFCURVE",
"1515 553 CURVE SMOOTH",
"1587 553 OFFCURVE",
"1632 657 OFFCURVE",
"1630 730 CURVE SMOOTH",
"1630 803 OFFCURVE",
"1616 847 OFFCURVE",
"1557 847 CURVE SMOOTH",
"1536 847 OFFCURVE",
"1432 801 OFFCURVE",
"1361 801 CURVE SMOOTH",
"1301 801 OFFCURVE",
"1260 839 OFFCURVE",
"1260 907 CURVE SMOOTH",
"1260 947 OFFCURVE",
"1284 1234 OFFCURVE",
"1477 1234 CURVE SMOOTH",
"1688 1234 OFFCURVE",
"1729 1099 OFFCURVE",
"1808 1099 CURVE SMOOTH",
"1836 1099 OFFCURVE",
"1888 1183 OFFCURVE",
"1890 1231 CURVE SMOOTH",
"1896 1385 OFFCURVE",
"1816 1395 OFFCURVE",
"1658 1395 CURVE SMOOTH",
"1570 1395 OFFCURVE",
"1301 1395 OFFCURVE",
"1213 1395 CURVE SMOOTH",
"1111 1395 OFFCURVE",
"1013 1384 OFFCURVE",
"972 1374 CURVE SMOOTH",
"936 1365 OFFCURVE",
"855 1309 OFFCURVE",
"854 1274 CURVE SMOOTH",
"853 1240 OFFCURVE",
"848 1181 OFFCURVE",
"832 1152 CURVE SMOOTH",
"776 1050 OFFCURVE",
"261 283 OFFCURVE",
"160 203 CURVE SMOOTH",
"88 147 OFFCURVE",
"-31 75 OFFCURVE",
"-31 46 CURVE SMOOTH",
"-31 12 OFFCURVE",
"37 -3 OFFCURVE",
"223 -3 CURVE SMOOTH",
"325 -3 OFFCURVE",
"379 30 OFFCURVE",
"379 54 CURVE SMOOTH",
"379 101 OFFCURVE",
"362 113 OFFCURVE",
"367 189 CURVE SMOOTH",
"368 221 OFFCURVE",
"403 264 OFFCURVE",
"436 317 CURVE SMOOTH",
"485 395 OFFCURVE",
"557 511 OFFCURVE",
"742 511 CURVE SMOOTH",
"884 511 OFFCURVE",
"900 484 OFFCURVE",
"900 344 CURVE SMOOTH",
"900 231 OFFCURVE",
"781 107 OFFCURVE",
"781 73 CURVE SMOOTH",
"781 15 OFFCURVE",
"806 0 OFFCURVE",
"1536 0 CURVE SMOOTH"
);
},
{
closed = 1;
nodes = (
"726 649 OFFCURVE",
"669 657 OFFCURVE",
"670 677 CURVE SMOOTH",
"671 700 OFFCURVE",
"992 1138 OFFCURVE",
"1022 1142 CURVE SMOOTH",
"1039 1144 OFFCURVE",
"1004 954 OFFCURVE",
"961 736 CURVE SMOOTH",
"948 671 OFFCURVE",
"919 649 OFFCURVE",
"793 649 CURVE SMOOTH"
);
}
);
width = 1890;
}
);
note = uni00C6;
unicode = 00C6;
},
{
glyphname = B;
layers = (
{
layerId = "92A672BF-229C-4BEC-8D25-4DDBB2A38145";
paths = (
{
closed = 1;
nodes = (
"949 -11 OFFCURVE",
"1186 54 OFFCURVE",
"1186 345 CURVE SMOOTH",
"1186 641 OFFCURVE",
"886 718 OFFCURVE",
"886 734 CURVE SMOOTH",
"886 748 OFFCURVE",
"1101 844 OFFCURVE",
"1101 1051 CURVE",
"1101 1310 OFFCURVE",
"857 1390 OFFCURVE",
"549 1388 CURVE SMOOTH",
"160 1385 OFFCURVE",
"95 1385 OFFCURVE",
"95 1346 CURVE SMOOTH",
"95 1301 OFFCURVE",
"213 1292 OFFCURVE",
"229 1233 CURVE SMOOTH",
"246 1170 OFFCURVE",
"251 1020 OFFCURVE",
"251 725 CURVE SMOOTH",
"251 415 OFFCURVE",
"244 245 OFFCURVE",
"233 172 CURVE SMOOTH",
"222 102 OFFCURVE",
"106 64 OFFCURVE",
"106 32 CURVE SMOOTH",
"106 9 OFFCURVE",
"321 2 OFFCURVE",
"435 0 CURVE SMOOTH"
);
},
{
closed = 1;
nodes = (
"473 86 OFFCURVE",
"452 105 OFFCURVE",
"452 248 CURVE SMOOTH",
"452 490 LINE SMOOTH",
"452 644 OFFCURVE",
"465 676 OFFCURVE",
"552 676 CURVE SMOOTH",
"842 676 OFFCURVE",
"983 593 OFFCURVE",
"984 364 CURVE SMOOTH",
"984 167 OFFCURVE",
"860 86 OFFCURVE",
"592 86 CURVE SMOOTH"
);
},
{
closed = 1;
nodes = (
"489 767 OFFCURVE",
"453 787 OFFCURVE",
"453 877 CURVE SMOOTH",
"454 1124 LINE SMOOTH",
"455 1270 OFFCURVE",
"479 1297 OFFCURVE",
"565 1297 CURVE",
"794 1297 OFFCURVE",
"913 1221 OFFCURVE",
"913 1051 CURVE SMOOTH",
"913 864 OFFCURVE",
"780 767 OFFCURVE",
"530 767 CURVE SMOOTH"
);
}
);
width = 1314;
},
{
layerId = "5CBF0BAD-1756-4F16-9711-93DC239D102B";
paths = (
{
closed = 1;
nodes = (
"1014 -9 OFFCURVE",
"1197 99 OFFCURVE",
"1247 414 CURVE SMOOTH",
"1286 660 OFFCURVE",
"1051 718 OFFCURVE",
"1054 740 CURVE SMOOTH",
"1058 770 OFFCURVE",
"1259 815 OFFCURVE",
"1297 1053 CURVE SMOOTH",
"1347 1368 OFFCURVE",
"1013 1395 OFFCURVE",
"612 1381 CURVE SMOOTH",
"290 1370 OFFCURVE",
"292 1360 OFFCURVE",
"285 1319 CURVE SMOOTH",
"268 1221 OFFCURVE",
"372 1254 OFFCURVE",
"381 1140 CURVE SMOOTH",
"384 1103 OFFCURVE",
"364 917 OFFCURVE",
"324 661 CURVE SMOOTH",
"277 362 OFFCURVE",
"235 231 OFFCURVE",
"193 179 CURVE SMOOTH",
"157 134 OFFCURVE",
"90 94 OFFCURVE",
"83 51 CURVE SMOOTH",
"75 0 OFFCURVE",
"131 -9 OFFCURVE",
"505 -9 CURVE SMOOTH"
);
},
{
closed = 1;
nodes = (
"533 133 OFFCURVE",
"492 143 OFFCURVE",
"500 195 CURVE SMOOTH",
"558 559 LINE SMOOTH",
"567 615 OFFCURVE",
"612 650 OFFCURVE",
"723 650 CURVE SMOOTH",
"920 650 OFFCURVE",
"998 540 OFFCURVE",
"976 405 CURVE SMOOTH",
"949 240 OFFCURVE",
"859 133 OFFCURVE",
"621 133 CURVE SMOOTH"
);
},
{
closed = 1;
nodes = (
"666 776 OFFCURVE",
"593 775 OFFCURVE",
"599 813 CURVE SMOOTH",
"651 1161 LINE SMOOTH",
"659 1217 OFFCURVE",
"678 1244 OFFCURVE",
"784 1244 CURVE SMOOTH",
"956 1244 OFFCURVE",
"1029 1158 OFFCURVE",
"1009 1037 CURVE SMOOTH",
"983 879 OFFCURVE",
"884 776 OFFCURVE",
"755 776 CURVE SMOOTH"
);
}
);
width = 1338;
}
);
unicode = 0042;
},
{
glyphname = C;
layers = (
{
layerId = "92A672BF-229C-4BEC-8D25-4DDBB2A38145";
paths = (
{
closed = 1;
nodes = (
"893 -15 OFFCURVE",
"1090 29 OFFCURVE",
"1167 77 CURVE SMOOTH",
"1194 94 OFFCURVE",
"1259 219 OFFCURVE",
"1259 269 CURVE SMOOTH",
"1259 294 OFFCURVE",
"1262 313 OFFCURVE",
"1222 314 CURVE SMOOTH",
"1168 315 OFFCURVE",
"1030 100 OFFCURVE",
"809 100 CURVE SMOOTH",
"475 100 OFFCURVE",
"333 357 OFFCURVE",
"333 731 CURVE SMOOTH",
"333 1048 OFFCURVE",
"486 1296 OFFCURVE",
"777 1296 CURVE SMOOTH",
"1057 1296 OFFCURVE",
"1131 1040 OFFCURVE",
"1181 1040 CURVE SMOOTH",
"1220 1040 OFFCURVE",
"1239 1078 OFFCURVE",
"1239 1153 CURVE SMOOTH",
"1239 1258 OFFCURVE",
"1227 1336 OFFCURVE",
"1191 1342 CURVE SMOOTH",
"1102 1357 OFFCURVE",
"842 1404 OFFCURVE",
"760 1404 CURVE SMOOTH",
"364 1404 OFFCURVE",
"106 1095 OFFCURVE",
"106 678 CURVE SMOOTH",
"106 279 OFFCURVE",
"349 -12 OFFCURVE",
"730 -15 CURVE SMOOTH"
);
}
);
width = 1361;
},
{
layerId = "5CBF0BAD-1756-4F16-9711-93DC239D102B";
paths = (
{
closed = 1;
nodes = (
"838 -23 OFFCURVE",
"948 -2 OFFCURVE",
"1045 40 CURVE SMOOTH",
"1138 80 OFFCURVE",
"1239 181 OFFCURVE",
"1252 264 CURVE SMOOTH",
"1257 295 OFFCURVE",
"1242 310 OFFCURVE",
"1210 310 CURVE SMOOTH",
"1175 310 OFFCURVE",
"927 143 OFFCURVE",
"791 143 CURVE SMOOTH",
"511 143 OFFCURVE",
"392 389 OFFCURVE",
"439 684 CURVE SMOOTH",
"487 984 OFFCURVE",
"635 1247 OFFCURVE",
"891 1247 CURVE SMOOTH",
"1073 1247 OFFCURVE",
"1242 1030 OFFCURVE",
"1296 1030 CURVE SMOOTH",
"1335 1030 OFFCURVE",
"1360 1064 OFFCURVE",
"1371 1131 CURVE SMOOTH",
"1390 1246 OFFCURVE",
"1378 1317 OFFCURVE",
"1337 1343 CURVE SMOOTH",
"1275 1382 OFFCURVE",
"1140 1403 OFFCURVE",
"929 1403 CURVE SMOOTH",
"541 1403 OFFCURVE",
"198 1102 OFFCURVE",
"137 717 CURVE SMOOTH",
"64 254 OFFCURVE",
"271 -23 OFFCURVE",
"715 -23 CURVE SMOOTH"
);
}
);
width = 1363;
}
);
unicode = 0043;
},
{
glyphname = Ccedilla;
layers = (
{
layerId = "92A672BF-229C-4BEC-8D25-4DDBB2A38145";
paths = (
{
closed = 1;
nodes = (
"822 -446 OFFCURVE",
"944 -367 OFFCURVE",
"945 -278 CURVE SMOOTH",
"946 -197 OFFCURVE",
"908 -170 OFFCURVE",
"864 -129 CURVE SMOOTH",
"843 -109 OFFCURVE",
"822 -85 OFFCURVE",
"803 -50 CURVE",
"987 -48 OFFCURVE",
"1265 59 OFFCURVE",
"1265 226 CURVE SMOOTH",
"1265 262 OFFCURVE",
"1255 272 OFFCURVE",
"1234 272 CURVE SMOOTH",
"1202 272 OFFCURVE",
"1008 88 OFFCURVE",
"708 88 CURVE SMOOTH",
"428 88 OFFCURVE",
"341 322 OFFCURVE",
"341 622 CURVE SMOOTH",
"341 977 OFFCURVE",
"478 1187 OFFCURVE",
"712 1187 CURVE SMOOTH",
"974 1187 OFFCURVE",
"1098 965 OFFCURVE",
"1190 965 CURVE SMOOTH",
"1227 965 OFFCURVE",
"1245 1003 OFFCURVE",
"1245 1079 CURVE SMOOTH",
"1245 1155 OFFCURVE",
"1220 1201 OFFCURVE",
"1174 1222 CURVE SMOOTH",
"1165 1226 OFFCURVE",
"1127 1231 OFFCURVE",
"1058 1238 CURVE SMOOTH",
"1003 1244 OFFCURVE",
"846 1306 OFFCURVE",
"687 1306 CURVE SMOOTH",
"336 1306 OFFCURVE",
"146 995 OFFCURVE",
"146 623 CURVE SMOOTH",
"146 258 OFFCURVE",
"348 -46 OFFCURVE",
"708 -46 CURVE",
"692 -73 OFFCURVE",
"684 -91 OFFCURVE",
"684 -114 CURVE SMOOTH",
"684 -137 OFFCURVE",
"772 -194 OFFCURVE",
"772 -248 CURVE SMOOTH",
"772 -322 OFFCURVE",
"715 -345 OFFCURVE",
"644 -345 CURVE SMOOTH",
"617 -345 OFFCURVE",
"603 -368 OFFCURVE",
"603 -414 CURVE SMOOTH",
"603 -436 OFFCURVE",
"618 -446 OFFCURVE",
"679 -446 CURVE SMOOTH"
);
}
);
width = 1456;
},
{
layerId = "5CBF0BAD-1756-4F16-9711-93DC239D102B";
paths = (
{
closed = 1;
nodes = (
"660 -456 OFFCURVE",
"764 -382 OFFCURVE",
"785 -241 CURVE SMOOTH",
"795 -174 OFFCURVE",
"765 -129 OFFCURVE",
"693 -104 CURVE SMOOTH",
"661 -93 OFFCURVE",
"647 -81 OFFCURVE",
"651 -34 CURVE",
"1043 -34 OFFCURVE",
"1265 93 OFFCURVE",
"1298 283 CURVE SMOOTH",
"1302 306 OFFCURVE",
"1292 318 OFFCURVE",
"1269 318 CURVE SMOOTH",
"1143 318 OFFCURVE",
"967 139 OFFCURVE",
"810 139 CURVE SMOOTH",
"542 139 OFFCURVE",
"356 380 OFFCURVE",
"407 700 CURVE SMOOTH",
"458 1020 OFFCURVE",
"692 1231 OFFCURVE",
"882 1231 CURVE SMOOTH",
"1072 1231 OFFCURVE",
"1253 1024 OFFCURVE",
"1367 1024 CURVE SMOOTH",
"1400 1024 OFFCURVE",
"1422 1070 OFFCURVE",
"1431 1127 CURVE SMOOTH",
"1443 1201 OFFCURVE",
"1432 1293 OFFCURVE",
"1391 1320 CURVE SMOOTH",
"1374 1331 OFFCURVE",
"1331 1346 OFFCURVE",
"1265 1361 CURVE SMOOTH",
"1171 1382 OFFCURVE",
"1034 1399 OFFCURVE",
"869 1399 CURVE SMOOTH",
"491 1399 OFFCURVE",
"154 1083 OFFCURVE",
"92 690 CURVE SMOOTH",
"28 282 OFFCURVE",
"171 2 OFFCURVE",
"562 -31 CURVE",
"537 -46 OFFCURVE",
"520 -82 OFFCURVE",
"512 -137 CURVE SMOOTH",
"504 -189 OFFCURVE",
"612 -190 OFFCURVE",
"602 -256 CURVE SMOOTH",
"592 -319 OFFCURVE",
"537 -337 OFFCURVE",
"426 -340 CURVE SMOOTH",
"393 -341 OFFCURVE",
"374 -359 OFFCURVE",
"368 -396 CURVE SMOOTH",
"361 -437 OFFCURVE",
"387 -456 OFFCURVE",
"478 -456 CURVE SMOOTH"
);
}
);
width = 1456;
}
);
note = uni00C7;
unicode = 00C7;
},
{
glyphname = D;
layers = (
{
layerId = "92A672BF-229C-4BEC-8D25-4DDBB2A38145";
paths = (
{
closed = 1;
nodes = (
"1100 -5 OFFCURVE",
"1388 274 OFFCURVE",
"1388 702.5 CURVE SMOOTH",
"1388 1122 OFFCURVE",
"1134 1395 OFFCURVE",
"722 1395 CURVE SMOOTH",
"173 1382 OFFCURVE",
"111 1379 OFFCURVE",
"111 1335 CURVE SMOOTH",
"111 1302.873 OFFCURVE",
"194.942 1294.588 OFFCURVE",
"226.5 1269 CURVE SMOOTH",
"278 1227 OFFCURVE",
"273 914 OFFCURVE",
"273 656 CURVE SMOOTH",
"273 359.333 OFFCURVE",
"268.333 194.5 OFFCURVE",
"259 161.5 CURVE SMOOTH",
"241 97 OFFCURVE",
"119 83 OFFCURVE",
"119 31 CURVE SMOOTH",
"119 -2 OFFCURVE",
"209 9 OFFCURVE",
"665 -5 CURVE SMOOTH"
);
},
{
closed = 1;
nodes = (
"463.333 95 OFFCURVE",
"461 122.333 OFFCURVE",
"461 273 CURVE SMOOTH",
"464 968 LINE SMOOTH",
"464 1231 OFFCURVE",
"423 1302 OFFCURVE",
"597 1302 CURVE SMOOTH",
"991 1302 OFFCURVE",
"1154 1102 OFFCURVE",
"1154 642 CURVE SMOOTH",
"1154 299 OFFCURVE",
"968 96 OFFCURVE",
"618 95 CURVE SMOOTH"
);
}
);
width = 1513;
},
{
layerId = "5CBF0BAD-1756-4F16-9711-93DC239D102B";
paths = (
{
closed = 1;
nodes = (
"988 0 OFFCURVE",
"1357 117 OFFCURVE",
"1449 704 CURVE SMOOTH",
"1508 1079 OFFCURVE",
"1379 1392 OFFCURVE",
"786 1392 CURVE SMOOTH",
"557 1392 OFFCURVE",
"275 1403 OFFCURVE",
"262 1322 CURVE SMOOTH",
"251 1255 OFFCURVE",
"353 1249 OFFCURVE",
"369 1189 CURVE SMOOTH",
"382 1139 OFFCURVE",
"374 1094 OFFCURVE",
"307 700 CURVE SMOOTH",
"273 501 OFFCURVE",
"232 258 OFFCURVE",
"217 221 CURVE SMOOTH",
"190 153 OFFCURVE",
"51 103 OFFCURVE",
"44 56 CURVE SMOOTH",
"37 6 OFFCURVE",
"81 -3 OFFCURVE",
"428 -2 CURVE SMOOTH"
);
},
{
closed = 1;
nodes = (
"494 135 OFFCURVE",
"484 161 OFFCURVE",
"502 273 CURVE SMOOTH",
"637 1093 LINE SMOOTH",
"655 1204 OFFCURVE",
"691 1250 OFFCURVE",
"807 1249 CURVE SMOOTH",
"1118 1246 OFFCURVE",
"1204 994 OFFCURVE",
"1150 650 CURVE SMOOTH",
"1099 327 OFFCURVE",
"901 135 OFFCURVE",
"608 135 CURVE SMOOTH"
);
}
);
width = 1499;
}
);
unicode = 0044;
},
{
glyphname = Eth;
layers = (
{
layerId = "92A672BF-229C-4BEC-8D25-4DDBB2A38145";
paths = (
{
closed = 1;
nodes = (
"1102 -4 OFFCURVE",
"1393 250.333 OFFCURVE",
"1393 713 CURVE SMOOTH",
"1393 1150 OFFCURVE",
"1113 1386 OFFCURVE",
"655 1386 CURVE SMOOTH",
"502 1384 OFFCURVE",
"457 1383 OFFCURVE",
"227 1376 CURVE SMOOTH",
"153 1376 OFFCURVE",
"116 1364.667 OFFCURVE",
"116 1342 CURVE SMOOTH",
"116 1308 OFFCURVE",
"243 1238 OFFCURVE",
"249.5 1220.5 CURVE SMOOTH",
"261.833 1186.167 OFFCURVE",
"268 1113.667 OFFCURVE",
"268 1003 CURVE SMOOTH",
"271 849 OFFCURVE",
"273 796 OFFCURVE",
"254 780 CURVE SMOOTH",
"249 776 OFFCURVE",
"220 770 OFFCURVE",
"165 762 CURVE SMOOTH",
"127 757 OFFCURVE",
"108 739 OFFCURVE",
"108 708.5 CURVE SMOOTH",
"108 678.167 OFFCURVE",
"129.667 660.167 OFFCURVE",
"173 654.5 CURVE SMOOTH",
"216 649 OFFCURVE",
"244 642 OFFCURVE",
"255 633 CURVE SMOOTH",
"266 624 OFFCURVE",
"271 561 OFFCURVE",
"270 444 CURVE SMOOTH",
"267 264 OFFCURVE",
"262 194 OFFCURVE",
"251 162.5 CURVE SMOOTH",
"228 100 OFFCURVE",
"114 92 OFFCURVE",
"114 35 CURVE SMOOTH",
"114 -11 OFFCURVE",
"319 1 OFFCURVE",
"662 -4 CURVE SMOOTH"
);
},
{
closed = 1;
nodes = (
"496.333 84 OFFCURVE",
"470 110.333 OFFCURVE",
"470 245 CURVE SMOOTH",
"470 378 OFFCURVE",
"475 472 OFFCURVE",
"495 535 CURVE SMOOTH",
"505 566 OFFCURVE",
"519 591 OFFCURVE",
"538 608 CURVE SMOOTH",
"563 632 OFFCURVE",
"599 643 OFFCURVE",
"647.5 645 CURVE SMOOTH",
"733 648 OFFCURVE",
"776 667.333 OFFCURVE",
"776 692 CURVE SMOOTH",
"776 724 OFFCURVE",
"761 740 OFFCURVE",
"738 748 CURVE SMOOTH",
"668 773 OFFCURVE",
"516 739 OFFCURVE",
"488 806 CURVE SMOOTH",
"480 826 OFFCURVE",
"475 919 OFFCURVE",
"474 1017 CURVE SMOOTH",
"474 1123 OFFCURVE",
"479 1234 OFFCURVE",
"490 1260 CURVE SMOOTH",
"500 1283.333 OFFCURVE",
"531.667 1295 OFFCURVE",
"585 1295 CURVE SMOOTH",
"955 1295 OFFCURVE",
"1140 1099 OFFCURVE",
"1140 712 CURVE SMOOTH",
"1140 281 OFFCURVE",
"971 84 OFFCURVE",
"607 84 CURVE SMOOTH"
);
}
);
width = 1526;
},
{
layerId = "5CBF0BAD-1756-4F16-9711-93DC239D102B";
paths = (
{
closed = 1;
nodes = (
"1018 -15 OFFCURVE",
"1378 243 OFFCURVE",
"1445 670 CURVE SMOOTH",
"1508 1069 OFFCURVE",
"1256 1395 OFFCURVE",
"863 1395 CURVE SMOOTH",
"646 1395 OFFCURVE",
"494 1378 OFFCURVE",
"310 1370 CURVE SMOOTH",
"265 1368 OFFCURVE",
"239 1352 OFFCURVE",
"234 1330 CURVE SMOOTH",
"224 1288 OFFCURVE",
"346 1230 OFFCURVE",
"352 1217 CURVE SMOOTH",
"369 1180 OFFCURVE",
"369 1072 OFFCURVE",
"357 987 CURVE SMOOTH",
"350 938 OFFCURVE",
"352 939 OFFCURVE",
"346 890 CURVE SMOOTH",
"341 851 OFFCURVE",
"312 826 OFFCURVE",
"264 816 CURVE SMOOTH",
"215 806 OFFCURVE",
"186 776 OFFCURVE",
"179 727 CURVE SMOOTH",
"174 694 OFFCURVE",
"196 671 OFFCURVE",
"246 657 CURVE SMOOTH",
"286 646 OFFCURVE",
"303 618 OFFCURVE",
"288 523 CURVE SMOOTH",
"280 470 OFFCURVE",
"272 425 OFFCURVE",
"264 385 CURVE SMOOTH",
"248 303 OFFCURVE",
"235 249 OFFCURVE",
"222 225 CURVE SMOOTH",
"183 153 OFFCURVE",
"56 103 OFFCURVE",
"49 61 CURVE SMOOTH",
"33 -38 OFFCURVE",
"210 -6 OFFCURVE",
"577 -10 CURVE SMOOTH"
);
},
{
closed = 1;
nodes = (
"473 118 OFFCURVE",
"443 145 OFFCURVE",
"452 199 CURVE SMOOTH",
"465 280 OFFCURVE",
"478 362 OFFCURVE",
"490 443 CURVE SMOOTH",
"499 503 OFFCURVE",
"527 596 OFFCURVE",
"555 619 CURVE SMOOTH",
"596 652 OFFCURVE",
"670 637 OFFCURVE",
"729 644 CURVE SMOOTH",
"769 649 OFFCURVE",
"800 663 OFFCURVE",
"807 709 CURVE SMOOTH",
"815 760 OFFCURVE",
"792 786 OFFCURVE",
"737 786 CURVE SMOOTH",
"642 786 OFFCURVE",
"594 780 OFFCURVE",
"574 804 CURVE SMOOTH",
"554 829 OFFCURVE",
"566 887 OFFCURVE",
"579 969 CURVE SMOOTH",
"588 1025 OFFCURVE",
"595 1129 OFFCURVE",
"604 1185 CURVE SMOOTH",
"611 1231 OFFCURVE",
"642 1254 OFFCURVE",
"695 1254 CURVE SMOOTH",
"1051 1254 OFFCURVE",
"1200 1031 OFFCURVE",
"1158 764 CURVE SMOOTH",
"1094 355 OFFCURVE",
"926 118 OFFCURVE",
"542 118 CURVE SMOOTH"
);
}
);
width = 1492;
}
);
note = uni00D0;
unicode = 00D0;
},
{
glyphname = E;
layers = (
{
anchors = (
{
name = top;
position = "{640, 1394}";
}
);
layerId = "92A672BF-229C-4BEC-8D25-4DDBB2A38145";
paths = (
{
closed = 1;
nodes = (
"938 -2 OFFCURVE",
"1065 1 OFFCURVE",
"1096 21 CURVE SMOOTH",
"1145.333 53 OFFCURVE",
"1170 99 OFFCURVE",
"1170 218 CURVE SMOOTH",
"1170 240 OFFCURVE",
"1158 280 OFFCURVE",
"1145 280 CURVE SMOOTH",
"1117 280 OFFCURVE",
"999.54 168.733 OFFCURVE",
"951.5 150 CURVE SMOOTH",
"897 129 OFFCURVE",
"792 116 OFFCURVE",
"699 119 CURVE SMOOTH",
"504 124 OFFCURVE",
"471 186 OFFCURVE",
"471 398.5 CURVE SMOOTH",
"471 568 OFFCURVE",
"480 659 OFFCURVE",
"631 659 CURVE SMOOTH",
"716 659 OFFCURVE",
"818 561 OFFCURVE",
"849 561 CURVE SMOOTH",
"886 561 OFFCURVE",
"937 609 OFFCURVE",
"937 703 CURVE SMOOTH",
"937 780 OFFCURVE",
"921 869 OFFCURVE",
"869 869 CURVE SMOOTH",
"853.667 869 OFFCURVE",
"726 781 OFFCURVE",
"694 782 CURVE SMOOTH",
"560 786 OFFCURVE",
"487 824 OFFCURVE",
"487 940 CURVE SMOOTH",
"487 1144 OFFCURVE",
"540 1273 OFFCURVE",
"656 1273 CURVE SMOOTH",
"766 1273 OFFCURVE",
"899 1273 OFFCURVE",
"956 1235 CURVE SMOOTH",
"983 1217 OFFCURVE",
"1029 1143 OFFCURVE",
"1052 1142 CURVE SMOOTH",
"1102 1140 OFFCURVE",
"1117 1158.333 OFFCURVE",
"1117 1191 CURVE SMOOTH",
"1117 1375 OFFCURVE",
"1071 1395 OFFCURVE",
"640 1394 CURVE SMOOTH",
"339 1394 OFFCURVE",
"128 1405 OFFCURVE",
"128 1353 CURVE SMOOTH",
"128 1273 OFFCURVE",
"235 1286 OFFCURVE",
"247 1235.5 CURVE SMOOTH",
"264 1163 OFFCURVE",
"259 1030 OFFCURVE",
"255 710 CURVE SMOOTH",
"252 446 OFFCURVE",
"247 218.333 OFFCURVE",
"231 171 CURVE SMOOTH",
"215.241 123.723 OFFCURVE",
"122 74.278 OFFCURVE",
"122 39.5 CURVE SMOOTH",
"122 -12 OFFCURVE",
"317 -2 OFFCURVE",
"590 -2 CURVE SMOOTH"
);
}
);
width = 1272;
},
{
anchors = (
{
name = top;
position = "{805, 1389}";
}
);
layerId = "5CBF0BAD-1756-4F16-9711-93DC239D102B";
paths = (
{
closed = 1;
nodes = (
"952 -9 OFFCURVE",
"1044 0 OFFCURVE",
"1094 37 CURVE SMOOTH",
"1152 80 OFFCURVE",
"1181 158 OFFCURVE",
"1191 219 CURVE SMOOTH",
"1200 273 OFFCURVE",
"1189 300 OFFCURVE",
"1161 300 CURVE SMOOTH",
"1120 300 OFFCURVE",
"1057 273 OFFCURVE",
"987 244 CURVE SMOOTH",
"896 206 OFFCURVE",
"776 161 OFFCURVE",
"697 161 CURVE SMOOTH",
"549 161 OFFCURVE",
"522 243 OFFCURVE",
"548 414 CURVE SMOOTH",
"570 561 OFFCURVE",
"595 626 OFFCURVE",
"753 626 CURVE SMOOTH",
"818 626 OFFCURVE",
"845 540 OFFCURVE",
"927 540 CURVE SMOOTH",
"987 540 OFFCURVE",
"1018 603 OFFCURVE",
"1038 741 CURVE SMOOTH",
"1049 816 OFFCURVE",
"1040 878 OFFCURVE",
"980 878 CURVE SMOOTH",
"960 878 OFFCURVE",
"817 794 OFFCURVE",
"740 794 CURVE SMOOTH",
"646 794 OFFCURVE",
"611 834 OFFCURVE",
"634 975 CURVE SMOOTH",
"659 1126 OFFCURVE",
"720 1232 OFFCURVE",
"841 1232 CURVE SMOOTH",
"914 1232 OFFCURVE",
"1007 1210 OFFCURVE",
"1087 1171 CURVE SMOOTH",
"1130 1150 OFFCURVE",
"1173 1105 OFFCURVE",
"1204 1105 CURVE SMOOTH",
"1252 1105 OFFCURVE",
"1284 1124 OFFCURVE",
"1298 1213 CURVE SMOOTH",
"1327 1395 OFFCURVE",
"1257 1397 OFFCURVE",
"815 1397 CURVE SMOOTH",
"300 1397 OFFCURVE",
"267 1377 OFFCURVE",
"260 1330 CURVE SMOOTH",
"252 1275 OFFCURVE",
"350 1242 OFFCURVE",
"357 1151 CURVE SMOOTH",
"360 1114 OFFCURVE",
"340 955 OFFCURVE",
"296 675 CURVE SMOOTH",
"252 395 OFFCURVE",
"210 212 OFFCURVE",
"190 198 CURVE SMOOTH",
"115 145 OFFCURVE",
"63 113 OFFCURVE",
"54 59 CURVE SMOOTH",
"47 15 OFFCURVE",
"84 -9 OFFCURVE",
"364 -9 CURVE SMOOTH"
);
}
);
width = 1278;
}
);
note = uni0045;
unicode = 0045;
},
{
glyphname = F;
layers = (
{
layerId = "92A672BF-229C-4BEC-8D25-4DDBB2A38145";
paths = (
{
closed = 1;
nodes = (
"525 -6 OFFCURVE",
"595 -2 OFFCURVE",
"595 32 CURVE SMOOTH",
"595 53 OFFCURVE",
"534 74 OFFCURVE",
"506 182 CURVE SMOOTH",
"492 235 OFFCURVE",
"478 349 OFFCURVE",
"480 449 CURVE SMOOTH",
"483 610 OFFCURVE",
"525 614 OFFCURVE",
"676 614 CURVE SMOOTH",
"725 614 OFFCURVE",
"837 553 OFFCURVE",
"856 553 CURVE SMOOTH",
"904 553 OFFCURVE",
"930 615.333 OFFCURVE",
"930 698 CURVE SMOOTH",
"930 801.333 OFFCURVE",
"911.333 853 OFFCURVE",
"874 853 CURVE SMOOTH",
"843 853 OFFCURVE",
"736 770 OFFCURVE",
"672 770 CURVE SMOOTH",
"512 770 OFFCURVE",
"480 807.167 OFFCURVE",
"480 998.5 CURVE SMOOTH",
"480 1189.833 OFFCURVE",
"509.333 1284 OFFCURVE",
"712 1284 CURVE SMOOTH",
"867.333 1284 OFFCURVE",
"939 1269 OFFCURVE",
"1007 1203 CURVE SMOOTH",
"1033 1178 OFFCURVE",
"1064 1116 OFFCURVE",
"1088 1116 CURVE SMOOTH",
"1113.333 1116 OFFCURVE",
"1126 1138 OFFCURVE",
"1126 1182 CURVE SMOOTH",
"1126 1362 OFFCURVE",
"1050 1399 OFFCURVE",
"939 1399 CURVE SMOOTH",
"208 1391 OFFCURVE",
"119 1391 OFFCURVE",
"119 1358 CURVE SMOOTH",
"119 1323 OFFCURVE",
"222 1283 OFFCURVE",
"239 1237 CURVE SMOOTH",
"254.333 1194.333 OFFCURVE",
"262 1090.333 OFFCURVE",
"262 925 CURVE SMOOTH",
"254 331 OFFCURVE",
"246 199 OFFCURVE",
"242.5 175 CURVE SMOOTH",
"237 140 OFFCURVE",
"128 94 OFFCURVE",
"130 63 CURVE SMOOTH",
"135 -2 OFFCURVE",
"254 -6 OFFCURVE",
"373 -6 CURVE SMOOTH"
);
}
);
width = 1194;
},
{
layerId = "5CBF0BAD-1756-4F16-9711-93DC239D102B";
paths = (
{
closed = 1;
nodes = (
"523 -11 OFFCURVE",
"570 -6 OFFCURVE",
"578 43 CURVE SMOOTH",
"583 73 OFFCURVE",
"551 133 OFFCURVE",
"541 204 CURVE SMOOTH",
"532 266 OFFCURVE",
"525 323 OFFCURVE",
"540 424 CURVE SMOOTH",
"557 541 OFFCURVE",
"607 581 OFFCURVE",
"735 581 CURVE SMOOTH",
"800 581 OFFCURVE",
"815 530 OFFCURVE",
"901 530 CURVE SMOOTH",
"947 530 OFFCURVE",
"975 623 OFFCURVE",
"985 686 CURVE SMOOTH",
"1003 801 OFFCURVE",
"987 859 OFFCURVE",
"936 859 CURVE SMOOTH",
"867 859 OFFCURVE",
"824 782 OFFCURVE",
"737 782 CURVE SMOOTH",
"641 782 OFFCURVE",
"604 853 OFFCURVE",
"626 994 CURVE SMOOTH",
"648 1137 OFFCURVE",
"715 1232 OFFCURVE",
"836 1232 CURVE SMOOTH",
"945 1232 OFFCURVE",
"981 1209 OFFCURVE",
"1064 1164 CURVE SMOOTH",
"1148 1119 OFFCURVE",
"1191 1096 OFFCURVE",
"1194 1096 CURVE SMOOTH",
"1232 1096 OFFCURVE",
"1258 1140 OFFCURVE",
"1274 1239 CURVE SMOOTH",
"1295 1371 OFFCURVE",
"1279 1390 OFFCURVE",
"756 1390 CURVE SMOOTH",
"275 1390 OFFCURVE",
"249 1365 OFFCURVE",
"242 1320 CURVE SMOOTH",
"236 1281 OFFCURVE",
"336 1194 OFFCURVE",
"338 1105 CURVE SMOOTH",
"339 1069 OFFCURVE",
"318 912 OFFCURVE",
"275 634 CURVE SMOOTH",
"257 517 OFFCURVE",
"234 378 OFFCURVE",
"208 218 CURVE SMOOTH",
"197 150 OFFCURVE",
"56 113 OFFCURVE",
"47 61 CURVE SMOOTH",
"36 0 OFFCURVE",
"81 -11 OFFCURVE",
"396 -11 CURVE SMOOTH"
);
}
);
width = 1194;
}
);
note = uni0046;
unicode = 0046;
},
{
glyphname = G;
layers = (
{
layerId = "92A672BF-229C-4BEC-8D25-4DDBB2A38145";
paths = (
{
closed = 1;
nodes = (
"952 -23 OFFCURVE",
"1267 29 OFFCURVE",
"1267 190 CURVE SMOOTH",
"1267 277 OFFCURVE",
"1281 396 OFFCURVE",
"1291 455 CURVE SMOOTH",
"1295 477 OFFCURVE",
"1350 532 OFFCURVE",
"1350 576 CURVE SMOOTH",
"1350 608 OFFCURVE",
"1285 625 OFFCURVE",
"1155 625 CURVE SMOOTH",
"1025 625 OFFCURVE",
"960 612 OFFCURVE",
"960 585 CURVE SMOOTH",
"960 537 OFFCURVE",
"1084 517 OFFCURVE",
"1084 401 CURVE SMOOTH",
"1084 170 OFFCURVE",
"1012 102 OFFCURVE",
"841 102 CURVE SMOOTH",
"503 102 OFFCURVE",
"330 340 OFFCURVE",
"330 683 CURVE SMOOTH",
"330 1008 OFFCURVE",
"482 1298 OFFCURVE",
"769 1298 CURVE SMOOTH",
"946 1298 OFFCURVE",
"1044 1263 OFFCURVE",
"1136 1129 CURVE SMOOTH",
"1173 1076 OFFCURVE",
"1211 1049 OFFCURVE",
"1229 1049 CURVE SMOOTH",
"1273 1049 OFFCURVE",
"1276 1089 OFFCURVE",
"1276 1168 CURVE SMOOTH",
"1276 1271 OFFCURVE",
"1259 1347 OFFCURVE",
"1212 1349 CURVE SMOOTH",
"1108 1353 OFFCURVE",
"896 1401 OFFCURVE",
"800 1401 CURVE SMOOTH",
"400 1401 OFFCURVE",
"109 1117 OFFCURVE",
"109 711 CURVE SMOOTH",
"109 279 OFFCURVE",
"351 -20 OFFCURVE",
"768 -23 CURVE SMOOTH"
);
}
);
width = 1471;
},
{
layerId = "5CBF0BAD-1756-4F16-9711-93DC239D102B";
paths = (
{
closed = 1;
nodes = (
"973 -17 OFFCURVE",
"1217 28 OFFCURVE",
"1273 222 CURVE SMOOTH",
"1290 281 OFFCURVE",
"1313 386 OFFCURVE",
"1337 459 CURVE SMOOTH",
"1351 501 OFFCURVE",
"1404 545 OFFCURVE",
"1410 586 CURVE SMOOTH",
"1421 658 OFFCURVE",
"1285 662 OFFCURVE",
"1148 662 CURVE SMOOTH",
"1024 662 OFFCURVE",
"958 642 OFFCURVE",
"952 603 CURVE SMOOTH",
"946 565 OFFCURVE",
"1026 490 OFFCURVE",
"1011 397 CURVE SMOOTH",
"983 222 OFFCURVE",
"903 150 OFFCURVE",
"765 149 CURVE SMOOTH",
"533 147 OFFCURVE",
"388 371 OFFCURVE",
"441 706 CURVE SMOOTH",
"486 992 OFFCURVE",
"656 1235 OFFCURVE",
"911 1237 CURVE SMOOTH",
"1034 1238 OFFCURVE",
"1077 1215 OFFCURVE",
"1199 1111 CURVE SMOOTH",
"1260 1059 OFFCURVE",
"1300 1033 OFFCURVE",
"1319 1033 CURVE SMOOTH",
"1359 1033 OFFCURVE",
"1387 1084 OFFCURVE",
"1403 1186 CURVE SMOOTH",
"1426 1334 OFFCURVE",
"1350 1384 OFFCURVE",
"1219 1384 CURVE SMOOTH",
"1134 1384 OFFCURVE",
"986 1402 OFFCURVE",
"947 1402 CURVE SMOOTH",
"543 1402 OFFCURVE",
"198 1107 OFFCURVE",
"134 708 CURVE SMOOTH",
"65 275 OFFCURVE",
"265 -17 OFFCURVE",
"682 -17 CURVE SMOOTH"
);
}
);
width = 1457;
}
);
note = uni0047;
unicode = 0047;
},
{
glyphname = H;
layers = (
{
layerId = "92A672BF-229C-4BEC-8D25-4DDBB2A38145";
paths = (
{
closed = 1;
nodes = (
"502 -6 OFFCURVE",
"577 0 OFFCURVE",
"577 25 CURVE SMOOTH",
"577 43.843 OFFCURVE",
"503.408 114.417 OFFCURVE",
"491 146 CURVE SMOOTH",
"481 170 OFFCURVE",
"479 312 OFFCURVE",
"484 437 CURVE SMOOTH",
"488 532 OFFCURVE",
"496 616 OFFCURVE",
"510 631 CURVE SMOOTH",
"529 651 OFFCURVE",
"643.333 667 OFFCURVE",
"808 667 CURVE SMOOTH",
"972.667 667 OFFCURVE",
"1070 657.5 OFFCURVE",
"1100 638.5 CURVE SMOOTH",
"1130 619.5 OFFCURVE",
"1145 540.667 OFFCURVE",
"1145 402 CURVE SMOOTH",
"1145 263 OFFCURVE",
"1126 156 OFFCURVE",
"1109 131 CURVE SMOOTH",
"1097 114 OFFCURVE",
"1046 55 OFFCURVE",
"1046 38 CURVE SMOOTH",
"1046 10.667 OFFCURVE",
"1120.667 -3 OFFCURVE",
"1270 -3 CURVE SMOOTH",
"1419.333 -3 OFFCURVE",
"1494 11.333 OFFCURVE",
"1494 40 CURVE SMOOTH",
"1494 67 OFFCURVE",
"1408 97 OFFCURVE",
"1387 127 CURVE SMOOTH",
"1346 183 OFFCURVE",
"1356 253 OFFCURVE",
"1363 842 CURVE SMOOTH",
"1363 1072.667 OFFCURVE",
"1366.333 1198.333 OFFCURVE",
"1373 1219 CURVE SMOOTH",
"1389 1270 OFFCURVE",
"1500 1296 OFFCURVE",
"1500 1345 CURVE SMOOTH",
"1500 1371.667 OFFCURVE",
"1453.667 1385 OFFCURVE",
"1361 1385 CURVE SMOOTH",
"1141 1385 OFFCURVE",
"1031 1372.667 OFFCURVE",
"1031 1348 CURVE SMOOTH",
"1031 1329 OFFCURVE",
"1046 1316 OFFCURVE",
"1104 1258 CURVE SMOOTH",
"1141 1209 OFFCURVE",
"1138 1146 OFFCURVE",
"1135 1054 CURVE SMOOTH",
"1132 880 OFFCURVE",
"1126 823 OFFCURVE",
"1098.5 803 CURVE SMOOTH",
"1076.167 787 OFFCURVE",
"914 779 OFFCURVE",
"768 779 CURVE SMOOTH",
"661 779 OFFCURVE",
"544 793 OFFCURVE",
"519.5 806 CURVE SMOOTH",
"505 814 OFFCURVE",
"490 895 OFFCURVE",
"485 999 CURVE SMOOTH",
"481 1084 OFFCURVE",
"486 1192 OFFCURVE",
"486 1227 CURVE SMOOTH",
"486 1279 OFFCURVE",
"578 1303 OFFCURVE",
"578 1351 CURVE SMOOTH",
"578 1375 OFFCURVE",
"521.333 1387 OFFCURVE",
"408 1387 CURVE SMOOTH",
"212.667 1387 OFFCURVE",
"115 1372 OFFCURVE",
"115 1346 CURVE SMOOTH",
"115 1316 OFFCURVE",
"239 1257 OFFCURVE",
"249.5 1193.5 CURVE SMOOTH",
"257 1147 OFFCURVE",
"263 974.333 OFFCURVE",
"263 675 CURVE SMOOTH",
"263 375.667 OFFCURVE",
"255 211 OFFCURVE",
"248 178.5 CURVE SMOOTH",
"238 131 OFFCURVE",
"112 91 OFFCURVE",
"112 45 CURVE SMOOTH",
"112 7 OFFCURVE",
"179 -5 OFFCURVE",
"340 -5 CURVE SMOOTH"
);
}
);
width = 1608;
},
{
layerId = "5CBF0BAD-1756-4F16-9711-93DC239D102B";
paths = (
{
closed = 1;
nodes = (
"493 0 OFFCURVE",
"603 20 OFFCURVE",
"610 63 CURVE SMOOTH",
"615 93 OFFCURVE",
"593 124 OFFCURVE",
"566 161 CURVE SMOOTH",
"534 205 OFFCURVE",
"520 261 OFFCURVE",
"548 440 CURVE SMOOTH",
"562 529 OFFCURVE",
"577 583 OFFCURVE",
"591 602 CURVE SMOOTH",
"611 630 OFFCURVE",
"670 642 OFFCURVE",
"862 642 CURVE SMOOTH",
"1017 642 OFFCURVE",
"1097 632 OFFCURVE",
"1118 613 CURVE SMOOTH",
"1140 593 OFFCURVE",
"1143 542 OFFCURVE",
"1131 461 CURVE SMOOTH",
"1116 362 OFFCURVE",
"1086 255 OFFCURVE",
"1046 197 CURVE SMOOTH",
"1016 154 OFFCURVE",
"962 98 OFFCURVE",
"955 55 CURVE SMOOTH",
"946 -3 OFFCURVE",
"1015 -9 OFFCURVE",
"1248 -9 CURVE SMOOTH",
"1414 -9 OFFCURVE",
"1477 6 OFFCURVE",
"1481 35 CURVE SMOOTH",
"1488 89 OFFCURVE",
"1425 124 OFFCURVE",
"1396 153 CURVE SMOOTH",
"1372 177 OFFCURVE",
"1381 271 OFFCURVE",
"1465 776 CURVE SMOOTH",
"1502 999 OFFCURVE",
"1527 1126 OFFCURVE",
"1544 1157 CURVE SMOOTH",
"1563 1191 OFFCURVE",
"1673 1262 OFFCURVE",
"1679 1295 CURVE SMOOTH",
"1696 1389 OFFCURVE",
"1594 1380 OFFCURVE",
"1426 1380 CURVE SMOOTH",
"1201 1380 OFFCURVE",
"1148 1361 OFFCURVE",
"1141 1316 CURVE SMOOTH",
"1137 1291 OFFCURVE",
"1198 1182 OFFCURVE",
"1206 1132 CURVE SMOOTH",
"1212 1096 OFFCURVE",
"1207 1038 OFFCURVE",
"1193 959 CURVE SMOOTH",
"1181 889 OFFCURVE",
"1171 840 OFFCURVE",
"1152 827 CURVE SMOOTH",
"1117 803 OFFCURVE",
"1052 797 OFFCURVE",
"892 797 CURVE SMOOTH",
"751 797 OFFCURVE",
"674 803 OFFCURVE",
"661 814 CURVE SMOOTH",
"639 832 OFFCURVE",
"635 899 OFFCURVE",
"655 1031 CURVE SMOOTH",
"666 1102 OFFCURVE",
"686 1143 OFFCURVE",
"751 1242 CURVE SMOOTH",
"783 1291 OFFCURVE",
"800 1324 OFFCURVE",
"803 1340 CURVE SMOOTH",
"809 1374 OFFCURVE",
"768 1391 OFFCURVE",
"574 1391 CURVE SMOOTH",
"347 1391 OFFCURVE",
"265 1370 OFFCURVE",
"260 1341 CURVE SMOOTH",
"246 1262 OFFCURVE",
"357 1229 OFFCURVE",
"363 1173 CURVE SMOOTH",
"366 1143 OFFCURVE",
"347 986 OFFCURVE",
"301 699 CURVE SMOOTH",
"255 412 OFFCURVE",
"236 291 OFFCURVE",
"214 225 CURVE SMOOTH",
"195 167 OFFCURVE",
"84 119 OFFCURVE",
"78 81 CURVE SMOOTH",
"68 19 OFFCURVE",
"82 0 OFFCURVE",
"261 0 CURVE SMOOTH"
);
}
);
width = 1601;
}
);
note = uni0048;
unicode = 0048;
},
{
glyphname = I;
layers = (
{
anchors = (
{
name = top;
position = "{424, 1388}";
}
);
layerId = "92A672BF-229C-4BEC-8D25-4DDBB2A38145";
paths = (
{
closed = 1;
nodes = (
"498 1 OFFCURVE",
"645 -15 OFFCURVE",
"645 38 CURVE SMOOTH",
"645 78 OFFCURVE",
"555 104 OFFCURVE",
"526 142 CURVE SMOOTH",
"506 168 OFFCURVE",
"484 293 OFFCURVE",
"494 700 CURVE SMOOTH",
"503 1052 OFFCURVE",
"498 1202 OFFCURVE",
"510 1238 CURVE SMOOTH",
"526 1286 OFFCURVE",
"633 1301 OFFCURVE",
"633 1337 CURVE SMOOTH",
"633 1379 OFFCURVE",
"581 1388 OFFCURVE",
"379 1387 CURVE SMOOTH",
"276 1386 OFFCURVE",
"112 1373.667 OFFCURVE",
"112 1347 CURVE SMOOTH",
"112 1330.333 OFFCURVE",
"192 1297 OFFCURVE",
"230 1257 CURVE SMOOTH",
"283 1202 OFFCURVE",
"295 977 OFFCURVE",
"283 703 CURVE SMOOTH",
"283 357 OFFCURVE",
"267 204 OFFCURVE",
"248 151 CURVE SMOOTH",
"230 100 OFFCURVE",
"117 79 OFFCURVE",
"117 34 CURVE SMOOTH",
"117 4 OFFCURVE",
"189 -1 OFFCURVE",
"379 1 CURVE SMOOTH"
);
}
);
width = 756;
},
{
anchors = (
{
name = top;
position = "{537, 1416}";
}
);
layerId = "5CBF0BAD-1756-4F16-9711-93DC239D102B";
paths = (
{
closed = 1;
nodes = (
"605 0 OFFCURVE",
"636 11 OFFCURVE",
"644 58 CURVE SMOOTH",
"651 97 OFFCURVE",
"541 160 OFFCURVE",
"534 228 CURVE SMOOTH",
"531 258 OFFCURVE",
"554 427 OFFCURVE",
"597 700 CURVE SMOOTH",
"663 1121 OFFCURVE",
"683 1176 OFFCURVE",
"726 1224 CURVE SMOOTH",
"758 1259 OFFCURVE",
"836 1311 OFFCURVE",
"842 1345 CURVE SMOOTH",
"850 1388 OFFCURVE",
"828 1394 OFFCURVE",
"581 1394 CURVE SMOOTH",
"280 1394 OFFCURVE",
"251 1382 OFFCURVE",
"244 1342 CURVE SMOOTH",
"240 1318 OFFCURVE",
"274 1284 OFFCURVE",
"319 1242 CURVE SMOOTH",
"381 1185 OFFCURVE",
"379 1146 OFFCURVE",
"310 705 CURVE SMOOTH",
"268 438 OFFCURVE",
"242 284 OFFCURVE",
"223 246 CURVE SMOOTH",
"180 160 OFFCURVE",
"54 108 OFFCURVE",
"46 58 CURVE SMOOTH",
"38 11 OFFCURVE",
"125 0 OFFCURVE",
"345 0 CURVE SMOOTH"
);
}
);
width = 791;
}
);
note = uni0049;
unicode = 0049;
},
{
glyphname = J;
layers = (
{
layerId = "92A672BF-229C-4BEC-8D25-4DDBB2A38145";
paths = (
{
closed = 1;
nodes = (
"485 -236 OFFCURVE",
"577 145 OFFCURVE",
"577 551 CURVE SMOOTH",
"582 1099 OFFCURVE",
"584 1211 OFFCURVE",
"591 1232 CURVE SMOOTH",
"602 1263 OFFCURVE",
"699 1300 OFFCURVE",
"699 1338 CURVE SMOOTH",
"699 1378 OFFCURVE",
"664 1393 OFFCURVE",
"601 1393 CURVE SMOOTH",
"343.667 1393 OFFCURVE",
"215 1378 OFFCURVE",
"215 1348 CURVE SMOOTH",
"215 1309 OFFCURVE",
"321 1273 OFFCURVE",
"341 1226 CURVE SMOOTH",
"364 1172 OFFCURVE",
"368 1062 OFFCURVE",
"374 654 CURVE SMOOTH",
"374 78 OFFCURVE",
"350 -76 OFFCURVE",
"119 -61 CURVE SMOOTH",
"39 -61 OFFCURVE",
"-10 -103.333 OFFCURVE",
"-10 -158 CURVE SMOOTH",
"-10 -210 OFFCURVE",
"44.667 -236 OFFCURVE",
"154 -236 CURVE SMOOTH"
);
}
);
width = 811;
},
{
layerId = "5CBF0BAD-1756-4F16-9711-93DC239D102B";
paths = (
{
closed = 1;
nodes = (
"515 -244 OFFCURVE",
"622 113 OFFCURVE",
"734 844 CURVE SMOOTH",
"753 968 OFFCURVE",
"770 1057 OFFCURVE",
"789 1111 CURVE SMOOTH",
"816 1187 OFFCURVE",
"912 1312 OFFCURVE",
"917 1347 CURVE SMOOTH",
"921 1377 OFFCURVE",
"875 1396 OFFCURVE",
"775 1394 CURVE SMOOTH",
"387 1386 OFFCURVE",
"362 1377 OFFCURVE",
"355 1333 CURVE SMOOTH",
"350 1302 OFFCURVE",
"393 1261 OFFCURVE",
"439 1194 CURVE SMOOTH",
"477 1139 OFFCURVE",
"478 1070 OFFCURVE",
"355 404 CURVE SMOOTH",
"312 171 OFFCURVE",
"254 25 OFFCURVE",
"101 1 CURVE SMOOTH",
"-1 -15 OFFCURVE",
"-59 -59 OFFCURVE",
"-71 -130 CURVE SMOOTH",
"-86 -217 OFFCURVE",
"-39 -244 OFFCURVE",
"92 -244 CURVE SMOOTH"
);
}
);
width = 859;
}
);
note = uni004A;
unicode = 004A;
},
{
glyphname = K;
layers = (
{
layerId = "92A672BF-229C-4BEC-8D25-4DDBB2A38145";
paths = (
{
closed = 1;
nodes = (
"482 559.667 OFFCURVE",
"511 635 OFFCURVE",
"569 635 CURVE SMOOTH",
"627 635 OFFCURVE",
"733 516.333 OFFCURVE",
"887 279 CURVE SMOOTH",
"897 263 OFFCURVE",
"1022 40 OFFCURVE",
"1019 43 CURVE SMOOTH",
"1056 6 OFFCURVE",
"1096 -1 OFFCURVE",
"1196 -1 CURVE SMOOTH",
"1315.333 -1 OFFCURVE",
"1375 13.667 OFFCURVE",
"1375 43 CURVE SMOOTH",
"1375 69 OFFCURVE",
"1292 88 OFFCURVE",
"1140 278 CURVE SMOOTH",
"901 577 OFFCURVE",
"785 743 OFFCURVE",
"785 777 CURVE SMOOTH",
"785 819 OFFCURVE",
"855 900 OFFCURVE",
"939 1001 CURVE SMOOTH",
"1116 1214 OFFCURVE",
"1294 1299 OFFCURVE",
"1294 1358 CURVE SMOOTH",
"1294 1387 OFFCURVE",
"1239 1396 OFFCURVE",
"1125 1396 CURVE SMOOTH",
"985 1396 OFFCURVE",
"956 1361 OFFCURVE",
"956 1341 CURVE SMOOTH",
"956 1314 OFFCURVE",
"956 1282 OFFCURVE",
"947 1245 CURVE SMOOTH",
"937 1203 OFFCURVE",
"917 1154 OFFCURVE",
"873 1098 CURVE SMOOTH",
"794 996 OFFCURVE",
"587 768 OFFCURVE",
"537 768 CURVE SMOOTH",
"505.667 768 OFFCURVE",
"490 798 OFFCURVE",
"490 858 CURVE SMOOTH",
"490 1032 OFFCURVE",
"491 1128 OFFCURVE",
"500 1175 CURVE SMOOTH",
"516 1262 OFFCURVE",
"574 1319 OFFCURVE",
"574 1349 CURVE SMOOTH",
"574 1380 OFFCURVE",
"532 1396 OFFCURVE",
"448 1396 CURVE SMOOTH",
"196 1396 OFFCURVE",
"122 1387 OFFCURVE",
"122 1344 CURVE SMOOTH",
"122 1304 OFFCURVE",
"241 1244 OFFCURVE",
"248 1212 CURVE SMOOTH",
"257 1165 OFFCURVE",
"261 972.333 OFFCURVE",
"261 695 CURVE SMOOTH",
"261 417.667 OFFCURVE",
"256 235 OFFCURVE",
"245 186 CURVE SMOOTH",
"234 137 OFFCURVE",
"122 88 OFFCURVE",
"122 37 CURVE SMOOTH",
"122 14 OFFCURVE",
"178.333 0 OFFCURVE",
"291 0 CURVE SMOOTH",
"483 0 OFFCURVE",
"579 17 OFFCURVE",
"579 43 CURVE SMOOTH",
"579 74 OFFCURVE",
"500 157 OFFCURVE",
"493 197.5 CURVE SMOOTH",
"487 234 OFFCURVE",
"482 304.333 OFFCURVE",
"482 409 CURVE SMOOTH"
);
}
);
width = 1442;
},
{
layerId = "5CBF0BAD-1756-4F16-9711-93DC239D102B";
paths = (
{
closed = 1;
nodes = (
"287 1272 OFFCURVE",
"370 1178 OFFCURVE",
"376 1109 CURVE SMOOTH",
"379 1074 OFFCURVE",
"360 956 OFFCURVE",
"319 697 CURVE SMOOTH",
"278 438 OFFCURVE",
"249 289 OFFCURVE",
"237 250 CURVE SMOOTH",
"217 185 OFFCURVE",
"100 102 OFFCURVE",
"93 61 CURVE SMOOTH",
"86 18 OFFCURVE",
"178 1 OFFCURVE",
"269 1 CURVE SMOOTH",
"526 1 OFFCURVE",
"588 17 OFFCURVE",
"596 74 CURVE SMOOTH",
"601 112 OFFCURVE",
"573 202 OFFCURVE",
"564 239 CURVE SMOOTH",
"554 282 OFFCURVE",
"546 344 OFFCURVE",
"555 400 CURVE SMOOTH",
"573 514 OFFCURVE",
"605 588 OFFCURVE",
"667 588 CURVE SMOOTH",
"760 588 OFFCURVE",
"861 395 OFFCURVE",
"915 222 CURVE SMOOTH",
"942 135 OFFCURVE",
"960 84 OFFCURVE",
"971 68 CURVE SMOOTH",
"1003 22 OFFCURVE",
"1042 -2 OFFCURVE",
"1092 -2 CURVE SMOOTH",
"1297 -2 OFFCURVE",
"1357 14 OFFCURVE",
"1365 60 CURVE SMOOTH",
"1369 84 OFFCURVE",
"1321 114 OFFCURVE",
"1232 215 CURVE SMOOTH",
"1179 275 OFFCURVE",
"863 715 OFFCURVE",
"868 744 CURVE SMOOTH",
"874 781 OFFCURVE",
"1034 927 OFFCURVE",
"1253 1093 CURVE SMOOTH",
"1402 1206 OFFCURVE",
"1517 1278 OFFCURVE",
"1522 1314 CURVE SMOOTH",
"1527 1347 OFFCURVE",
"1484 1371 OFFCURVE",
"1376 1371 CURVE SMOOTH",
"1265 1371 OFFCURVE",
"1083 1371 OFFCURVE",
"1072 1300 CURVE SMOOTH",
"1067 1268 OFFCURVE",
"1092 1216 OFFCURVE",
"1087 1185 CURVE SMOOTH",
"1082 1152 OFFCURVE",
"1064 1124 OFFCURVE",
"952 1023 CURVE SMOOTH",
"770 859 OFFCURVE",
"664 775 OFFCURVE",
"632 775 CURVE SMOOTH",
"613 775 OFFCURVE",
"626 871 OFFCURVE",
"645 967 CURVE SMOOTH",
"656 1023 OFFCURVE",
"682 1102 OFFCURVE",
"688 1132 CURVE SMOOTH",
"702 1204 OFFCURVE",
"813 1268 OFFCURVE",
"820 1310 CURVE SMOOTH",
"827 1350 OFFCURVE",
"740 1370 OFFCURVE",
"663 1372 CURVE SMOOTH",
"391 1379 OFFCURVE",
"300 1364 OFFCURVE",
"294 1322 CURVE SMOOTH"
);
}
);
width = 1488;
}
);
note = uni004B;
unicode = 004B;
},
{
glyphname = L;
layers = (
{
layerId = "92A672BF-229C-4BEC-8D25-4DDBB2A38145";
paths = (
{
closed = 1;
nodes = (
"947 -2 OFFCURVE",
"1076 1 OFFCURVE",
"1106 27 CURVE SMOOTH",
"1144 59 OFFCURVE",
"1163 147 OFFCURVE",
"1163 291 CURVE SMOOTH",
"1163 332.333 OFFCURVE",
"1150.667 353 OFFCURVE",
"1126 353 CURVE SMOOTH",
"1106 353 OFFCURVE",
"963 165 OFFCURVE",
"931.5 148 CURVE SMOOTH",
"897 129 OFFCURVE",
"822 122 OFFCURVE",
"742 120 CURVE SMOOTH",
"633 117 OFFCURVE",
"516 130 OFFCURVE",
"496 165 CURVE SMOOTH",
"484 185.667 OFFCURVE",
"478 347.667 OFFCURVE",
"478 651 CURVE SMOOTH",
"478 954.333 OFFCURVE",
"476 1160 OFFCURVE",
"501 1214 CURVE SMOOTH",
"526 1268 OFFCURVE",
"632 1309 OFFCURVE",
"632 1346 CURVE SMOOTH",
"632 1378 OFFCURVE",
"593 1388 OFFCURVE",
"376 1393 CURVE SMOOTH",
"181 1397 OFFCURVE",
"112 1401 OFFCURVE",
"114 1354 CURVE SMOOTH",
"117 1308 OFFCURVE",
"221 1308 OFFCURVE",
"245 1256 CURVE SMOOTH",
"268 1205 OFFCURVE",
"260 1112 OFFCURVE",
"256 583 CURVE SMOOTH",
"256 361.667 OFFCURVE",
"249 230 OFFCURVE",
"238 189 CURVE SMOOTH",
"221 127 OFFCURVE",
"115 68 OFFCURVE",
"115 39 CURVE SMOOTH",
"115 14 OFFCURVE",
"275 -1 OFFCURVE",
"595 -1 CURVE SMOOTH"
);
}
);
width = 1213;
},
{
layerId = "5CBF0BAD-1756-4F16-9711-93DC239D102B";
paths = (
{
closed = 1;
nodes = (
"947 1 OFFCURVE",
"1044 0 OFFCURVE",
"1079 28 CURVE SMOOTH",
"1100 45 OFFCURVE",
"1169 199 OFFCURVE",
"1183 299 CURVE SMOOTH",
"1191 355 OFFCURVE",
"1191 379 OFFCURVE",
"1153 379 CURVE SMOOTH",
"1070 379 OFFCURVE",
"967 240 OFFCURVE",
"841 176 CURVE SMOOTH",
"792 151 OFFCURVE",
"727 142 OFFCURVE",
"629 142 CURVE SMOOTH",
"541 142 OFFCURVE",
"518 188 OFFCURVE",
"515 217 CURVE SMOOTH",
"512 246 OFFCURVE",
"532 397 OFFCURVE",
"575 671 CURVE SMOOTH",
"618 944 OFFCURVE",
"650 1097 OFFCURVE",
"659 1129 CURVE SMOOTH",
"685 1223 OFFCURVE",
"817 1277 OFFCURVE",
"827 1340 CURVE SMOOTH",
"833 1378 OFFCURVE",
"793 1389 OFFCURVE",
"708 1389 CURVE SMOOTH",
"299 1389 OFFCURVE",
"246 1374 OFFCURVE",
"239 1333 CURVE SMOOTH",
"229 1277 OFFCURVE",
"325 1239 OFFCURVE",
"344 1193 CURVE SMOOTH",
"365 1143 OFFCURVE",
"330 894 OFFCURVE",
"295 688 CURVE SMOOTH",
"264 505 OFFCURVE",
"219 276 OFFCURVE",
"198 219 CURVE SMOOTH",
"182 176 OFFCURVE",
"65 106 OFFCURVE",
"57 58 CURVE SMOOTH",
"49 7 OFFCURVE",
"69 -2 OFFCURVE",
"387 -1 CURVE SMOOTH"
);
}
);
width = 1230;
}
);
note = uni004C;
unicode = 004C;
},
{
glyphname = Lslash;
layers = (
{
layerId = "92A672BF-229C-4BEC-8D25-4DDBB2A38145";
paths = (
{
closed = 1;
nodes = (
"926 5 LINE SMOOTH",
"1140.667 5 OFFCURVE",
"1187 61 OFFCURVE",
"1187 269 CURVE SMOOTH",
"1187 322 OFFCURVE",
"1176 347 OFFCURVE",
"1155 345 CURVE SMOOTH",
"1135 343 OFFCURVE",
"1106 316 OFFCURVE",
"1071 266.5 CURVE SMOOTH",
"996.333 161.833 OFFCURVE",
"937.5 104 OFFCURVE",
"739.5 104 CURVE SMOOTH",
"541.5 104 OFFCURVE",
"492 146.833 OFFCURVE",
"492 363.5 CURVE SMOOTH",
"492 439 OFFCURVE",
"505 559 OFFCURVE",
"552 608 CURVE SMOOTH",
"640 700 OFFCURVE",
"807 808 OFFCURVE",
"807 867 CURVE SMOOTH",
"807 889 OFFCURVE",
"795 896 OFFCURVE",
"775 894 CURVE SMOOTH",
"720 889 OFFCURVE",
"607 814 OFFCURVE",
"552 814 CURVE SMOOTH",
"513 814 OFFCURVE",
"498 903 OFFCURVE",
"497 994 CURVE SMOOTH",
"495 1064 OFFCURVE",
"502 1135 OFFCURVE",
"511.5 1169.5 CURVE SMOOTH",
"518.997 1196.435 OFFCURVE",
"618 1295 OFFCURVE",
"618 1326 CURVE SMOOTH",
"618 1370 OFFCURVE",
"533 1372 OFFCURVE",
"257 1372 CURVE SMOOTH",
"178.333 1372 OFFCURVE",
"139 1356.333 OFFCURVE",
"139 1325 CURVE SMOOTH",
"139 1295 OFFCURVE",
"251 1212 OFFCURVE",
"256.5 1195 CURVE SMOOTH",
"266.167 1167.667 OFFCURVE",
"271 1094.333 OFFCURVE",
"271 975 CURVE SMOOTH",
"271 855.667 OFFCURVE",
"262 779 OFFCURVE",
"257 742.5 CURVE SMOOTH",
"249 685 OFFCURVE",
"135 595 OFFCURVE",
"135 546 CURVE SMOOTH",
"135 499 OFFCURVE",
"224 505 OFFCURVE",
"247 476 CURVE SMOOTH",
"263 454 OFFCURVE",
"270 396 OFFCURVE",
"270 335 CURVE SMOOTH",
"271 274 OFFCURVE",
"264 210 OFFCURVE",
"252 177.5 CURVE SMOOTH",
"240.87 146.893 OFFCURVE",
"135 55 OFFCURVE",
"135 31 CURVE SMOOTH",
"135 9 OFFCURVE",
"175 -2 OFFCURVE",
"255 -2 CURVE SMOOTH"
);
}
);
width = 1252;
},
{
layerId = "5CBF0BAD-1756-4F16-9711-93DC239D102B";
paths = (
{
closed = 1;
nodes = (
"912 0 LINE SMOOTH",
"1087 0 OFFCURVE",
"1133 32 OFFCURVE",
"1171 287 CURVE SMOOTH",
"1179 341 OFFCURVE",
"1180 364 OFFCURVE",
"1147 364 CURVE SMOOTH",
"1074 364 OFFCURVE",
"955 227 OFFCURVE",
"892 189 CURVE SMOOTH",
"829 151 OFFCURVE",
"771 132 OFFCURVE",
"718 132 CURVE SMOOTH",
"554 132 OFFCURVE",
"490 189 OFFCURVE",
"516 354 CURVE SMOOTH",
"556 607 OFFCURVE",
"610 658 OFFCURVE",
"766 762 CURVE SMOOTH",
"844 814 OFFCURVE",
"885 852 OFFCURVE",
"889 877 CURVE SMOOTH",
"897 927 OFFCURVE",
"884 948 OFFCURVE",
"854 947 CURVE SMOOTH",
"795 945 OFFCURVE",
"689 859 OFFCURVE",
"639 859 CURVE SMOOTH",
"612 859 OFFCURVE",
"604 890 OFFCURVE",
"614 953 CURVE SMOOTH",
"624 1015 OFFCURVE",
"641 1076 OFFCURVE",
"679 1125 CURVE SMOOTH",
"733 1195 OFFCURVE",
"791 1238 OFFCURVE",
"794 1259 CURVE SMOOTH",
"800 1298 OFFCURVE",
"750 1317 OFFCURVE",
"645 1317 CURVE SMOOTH",
"296 1317 OFFCURVE",
"268 1310 OFFCURVE",
"262 1273 CURVE SMOOTH",
"255 1230 OFFCURVE",
"359 1174 OFFCURVE",
"374 1121 CURVE SMOOTH",
"381 1096 OFFCURVE",
"371 1001 OFFCURVE",
"359 919 CURVE SMOOTH",
"340 790 OFFCURVE",
"318 710 OFFCURVE",
"301 692 CURVE SMOOTH",
"212 597 OFFCURVE",
"145 525 OFFCURVE",
"137 476 CURVE SMOOTH",
"132 444 OFFCURVE",
"156 429 OFFCURVE",
"221 429 CURVE SMOOTH",
"267 429 OFFCURVE",
"278 405 OFFCURVE",
"266 330 CURVE SMOOTH",
"258 279 OFFCURVE",
"242 221 OFFCURVE",
"217 190 CURVE SMOOTH",
"134 87 OFFCURVE",
"66 64 OFFCURVE",
"59 30 CURVE SMOOTH",
"55 10 OFFCURVE",
"87 0 OFFCURVE",
"153 0 CURVE SMOOTH"
);
}
);
width = 1253;
}
);
note = uni0141;
unicode = 0141;
},
{
glyphname = M;
layers = (
{
layerId = "92A672BF-229C-4BEC-8D25-4DDBB2A38145";
paths = (
{
closed = 1;
nodes = (
"368 6 OFFCURVE",
"453 34 OFFCURVE",
"453 58 CURVE SMOOTH",
"453 106 OFFCURVE",
"427 129 OFFCURVE",
"408 216 CURVE SMOOTH",
"388 303 OFFCURVE",
"378 354.333 OFFCURVE",
"378 417 CURVE SMOOTH",
"378 836 OFFCURVE",
"399 1065 OFFCURVE",
"422 1067 CURVE SMOOTH",
"442 1069 OFFCURVE",
"509.833 927.833 OFFCURVE",
"623.5 649.5 CURVE SMOOTH",
"766 301 OFFCURVE",
"842 81 OFFCURVE",
"903 81 CURVE SMOOTH",
"961 81 OFFCURVE",
"985 136 OFFCURVE",
"1222 693 CURVE SMOOTH",
"1334.667 947.667 OFFCURVE",
"1395.333 1075 OFFCURVE",
"1404 1075 CURVE SMOOTH",
"1434 1014 OFFCURVE",
"1444 899 OFFCURVE",
"1448 644 CURVE SMOOTH",
"1449 571 OFFCURVE",
"1449 487 OFFCURVE",
"1449 389 CURVE SMOOTH",
"1449 247.667 OFFCURVE",
"1400 158 OFFCURVE",
"1396 100 CURVE SMOOTH",
"1390 10 OFFCURVE",
"1456 16 OFFCURVE",
"1567 17 CURVE SMOOTH",
"1687 18 OFFCURVE",
"1784 0 OFFCURVE",
"1784 55 CURVE SMOOTH",
"1784 79 OFFCURVE",
"1670 180 OFFCURVE",
"1663 216 CURVE SMOOTH",
"1641 329.333 OFFCURVE",
"1630 408 OFFCURVE",
"1630 865 CURVE SMOOTH",
"1630 934 OFFCURVE",
"1638 1195 OFFCURVE",
"1659 1230 CURVE SMOOTH",
"1677 1260 OFFCURVE",
"1736 1289 OFFCURVE",
"1736 1326 CURVE SMOOTH",
"1736 1360 OFFCURVE",
"1695.667 1377 OFFCURVE",
"1615 1377 CURVE SMOOTH",
"1487 1377 OFFCURVE",
"1435 1365 OFFCURVE",
"1377 1270 CURVE SMOOTH",
"1354.333 1232.667 OFFCURVE",
"962 402 OFFCURVE",
"936 403 CURVE SMOOTH",
"891 405 OFFCURVE",
"567.5 1201.333 OFFCURVE",
"558.5 1218 CURVE SMOOTH",
"496 1335 OFFCURVE",
"445 1374 OFFCURVE",
"320 1374 CURVE SMOOTH",
"213.333 1374 OFFCURVE",
"160 1361 OFFCURVE",
"160 1335 CURVE SMOOTH",
"160 1319 OFFCURVE",
"248 1236 OFFCURVE",
"262 1207 CURVE SMOOTH",
"279.333 1170.333 OFFCURVE",
"288 979 OFFCURVE",
"288 879 CURVE SMOOTH",
"288 824 OFFCURVE",
"268 383 OFFCURVE",
"242 220 CURVE SMOOTH",
"234 170 OFFCURVE",
"118 106 OFFCURVE",
"118 69 CURVE SMOOTH",
"118 24 OFFCURVE",
"200 7 OFFCURVE",
"283 6 CURVE SMOOTH"
);
}
);
width = 1902;
},
{
layerId = "5CBF0BAD-1756-4F16-9711-93DC239D102B";
paths = (
{
closed = 1;
nodes = (
"363 21 OFFCURVE",
"440 42 OFFCURVE",
"445 74 CURVE SMOOTH",
"451 113 OFFCURVE",
"451 167 OFFCURVE",
"457 230 CURVE SMOOTH",
"469 358 OFFCURVE",
"482 523 OFFCURVE",
"506 674 CURVE SMOOTH",
"535 857 OFFCURVE",
"559 949 OFFCURVE",
"580 949 CURVE SMOOTH",
"600 949 OFFCURVE",
"658 741 OFFCURVE",
"716 500 CURVE SMOOTH",
"812 101 OFFCURVE",
"834 59 OFFCURVE",
"898 59 CURVE SMOOTH",
"959 59 OFFCURVE",
"1001 83 OFFCURVE",
"1298 625 CURVE SMOOTH",
"1420 848 OFFCURVE",
"1485 959 OFFCURVE",
"1502 959 CURVE SMOOTH",
"1524 959 OFFCURVE",
"1472 716 OFFCURVE",
"1468 607 CURVE SMOOTH",
"1464 499 OFFCURVE",
"1446 375 OFFCURVE",
"1437 319 CURVE SMOOTH",
"1423 230 OFFCURVE",
"1282 123 OFFCURVE",
"1273 64 CURVE SMOOTH",
"1261 -13 OFFCURVE",
"1484 30 OFFCURVE",
"1641 30 CURVE SMOOTH",
"1721 30 OFFCURVE",
"1763 49 OFFCURVE",
"1770 87 CURVE SMOOTH",
"1775 116 OFFCURVE",
"1703 143 OFFCURVE",
"1679 208 CURVE SMOOTH",
"1658 264 OFFCURVE",
"1715 512 OFFCURVE",
"1733 660 CURVE SMOOTH",
"1776 1015 OFFCURVE",
"1782 1097 OFFCURVE",
"1824 1174 CURVE SMOOTH",
"1850 1222 OFFCURVE",
"1924 1262 OFFCURVE",
"1933 1321 CURVE SMOOTH",
"1937 1347 OFFCURVE",
"1867 1368 OFFCURVE",
"1722 1368 CURVE SMOOTH",
"1492 1368 OFFCURVE",
"1450 1222 OFFCURVE",
"1260 890 CURVE SMOOTH",
"1122 649 OFFCURVE",
"1053 537 OFFCURVE",
"1012 537 CURVE SMOOTH",
"981 537 OFFCURVE",
"894 841 OFFCURVE",
"857 1008 CURVE SMOOTH",
"790 1312 OFFCURVE",
"695 1381 OFFCURVE",
"439 1381 CURVE SMOOTH",
"369 1381 OFFCURVE",
"327 1363 OFFCURVE",
"321 1326 CURVE SMOOTH",
"315 1289 OFFCURVE",
"381 1150 OFFCURVE",
"385 1092 CURVE SMOOTH",
"392 995 OFFCURVE",
"350 800 OFFCURVE",
"301 569 CURVE SMOOTH",
"255 353 OFFCURVE",
"237 271 OFFCURVE",
"228 242 CURVE SMOOTH",
"213 195 OFFCURVE",
"117 115 OFFCURVE",
"109 68 CURVE SMOOTH",
"104 37 OFFCURVE",
"164 21 OFFCURVE",
"288 21 CURVE SMOOTH"
);
}
);
width = 1928;
}
);
note = uni004D;
unicode = 004D;
},
{
glyphname = N;
layers = (
{
anchors = (
{
name = top;
position = "{772, 1385}";
}
);
layerId = "92A672BF-229C-4BEC-8D25-4DDBB2A38145";
paths = (
{
closed = 1;
nodes = (
"447 0 OFFCURVE",
"492 19 OFFCURVE",
"492 56 CURVE SMOOTH",
"492 109 OFFCURVE",
"428 134 OFFCURVE",
"413 190 CURVE SMOOTH",
"391 271 OFFCURVE",
"383 500 OFFCURVE",
"383 700 CURVE SMOOTH",
"383 894 OFFCURVE",
"389.667 1101 OFFCURVE",
"403 1101 CURVE SMOOTH",
"427.667 1101 OFFCURVE",
"544.167 952.833 OFFCURVE",
"752.5 656.5 CURVE SMOOTH",
"960.833 360.167 OFFCURVE",
"1080.667 192.667 OFFCURVE",
"1112 154 CURVE SMOOTH",
"1184 64.667 OFFCURVE",
"1241 6 OFFCURVE",
"1283 6 CURVE SMOOTH",
"1337 6 OFFCURVE",
"1346 74 OFFCURVE",
"1349 367 CURVE SMOOTH",
"1352 700 LINE SMOOTH",
"1354 892 OFFCURVE",
"1362 1106 OFFCURVE",
"1375 1192 CURVE SMOOTH",
"1382 1239 OFFCURVE",
"1496 1287 OFFCURVE",
"1496 1342 CURVE SMOOTH",
"1496 1364 OFFCURVE",
"1432 1386 OFFCURVE",
"1303 1386 CURVE SMOOTH",
"1168 1386 OFFCURVE",
"1107 1369 OFFCURVE",
"1108 1346 CURVE SMOOTH",
"1110 1309 OFFCURVE",
"1173 1313 OFFCURVE",
"1218.5 1207 CURVE SMOOTH",
"1233 1174 OFFCURVE",
"1233 1078 OFFCURVE",
"1232 700 CURVE SMOOTH",
"1232 449 OFFCURVE",
"1221 366 OFFCURVE",
"1200 366 CURVE SMOOTH",
"1156 366 OFFCURVE",
"640.697 1139.418 OFFCURVE",
"486.5 1290.5 CURVE SMOOTH",
"420.5 1355.167 OFFCURVE",
"358.333 1382 OFFCURVE",
"201 1382 CURVE SMOOTH",
"152.333 1382 OFFCURVE",
"128 1372 OFFCURVE",
"128 1338 CURVE SMOOTH",
"128 1304 OFFCURVE",
"241 1257 OFFCURVE",
"261.5 1157 CURVE SMOOTH",
"272 1108 OFFCURVE",
"275 960 OFFCURVE",
"272 700 CURVE SMOOTH",
"270 501 OFFCURVE",
"272 295 OFFCURVE",
"251 195 CURVE SMOOTH",
"237 127 OFFCURVE",
"115 105 OFFCURVE",
"115 40 CURVE SMOOTH",
"115 12 OFFCURVE",
"189 5 OFFCURVE",
"284 3 CURVE SMOOTH"
);
}
);
width = 1592;
},
{
anchors = (
{
name = top;
position = "{912, 1374}";
}
);
layerId = "5CBF0BAD-1756-4F16-9711-93DC239D102B";
paths = (
{
closed = 1;
nodes = (
"411 7 OFFCURVE",
"475 25 OFFCURVE",
"482 64 CURVE SMOOTH",
"490 106 OFFCURVE",
"438 148 OFFCURVE",
"441 226 CURVE SMOOTH",
"447 371 OFFCURVE",
"451 534 OFFCURVE",
"480 715 CURVE SMOOTH",
"509 896 OFFCURVE",
"529 986 OFFCURVE",
"543 986 CURVE SMOOTH",
"575 986 OFFCURVE",
"662 853 OFFCURVE",
"801 587 CURVE SMOOTH",
"940 321 OFFCURVE",
"1018 179 OFFCURVE",
"1030 160 CURVE SMOOTH",
"1087 69 OFFCURVE",
"1141 17 OFFCURVE",
"1215 17 CURVE SMOOTH",
"1268 17 OFFCURVE",
"1294 37 OFFCURVE",
"1317 163 CURVE SMOOTH",
"1445 872 LINE SMOOTH",
"1470 1011 OFFCURVE",
"1478 1071 OFFCURVE",
"1487 1105 CURVE SMOOTH",
"1507 1180 OFFCURVE",
"1628 1206 OFFCURVE",
"1640 1279 CURVE SMOOTH",
"1649 1335 OFFCURVE",
"1575 1359 OFFCURVE",
"1334 1359 CURVE SMOOTH",
"1273 1359 OFFCURVE",
"1239 1344 OFFCURVE",
"1236 1314 CURVE SMOOTH",
"1235 1303 OFFCURVE",
"1243 1282 OFFCURVE",
"1263 1253 CURVE SMOOTH",
"1298 1202 OFFCURVE",
"1301 1079 OFFCURVE",
"1269 884 CURVE SMOOTH",
"1212 534 OFFCURVE",
"1177 498 OFFCURVE",
"1153 498 CURVE SMOOTH",
"1123 498 OFFCURVE",
"749 1189 OFFCURVE",
"709 1239 CURVE SMOOTH",
"636 1331 OFFCURVE",
"550 1376 OFFCURVE",
"442 1376 CURVE SMOOTH",
"304 1376 OFFCURVE",
"257 1364 OFFCURVE",
"246 1301 CURVE SMOOTH",
"235 1240 OFFCURVE",
"343 1200 OFFCURVE",
"353 1129 CURVE SMOOTH",
"370 1010 OFFCURVE",
"315 794 OFFCURVE",
"275 574 CURVE SMOOTH",
"222 282 OFFCURVE",
"211 239 OFFCURVE",
"198 204 CURVE SMOOTH",
"180 157 OFFCURVE",
"71 121 OFFCURVE",
"65 83 CURVE SMOOTH",
"53 7 OFFCURVE",
"117 7 OFFCURVE",
"230 7 CURVE SMOOTH"
);
}
);
width = 1562;
}
);
note = uni004E;
unicode = 004E;
},
{
glyphname = O;
layers = (
{
anchors = (
{
name = bottom;
position = "{739, -29}";
},
{
name = top;
position = "{738, 1416}";
}
);
layerId = "92A672BF-229C-4BEC-8D25-4DDBB2A38145";
paths = (
{
closed = 1;
nodes = (
"489 66 OFFCURVE",
"322 317 OFFCURVE",
"322 702 CURVE SMOOTH",
"322 1087 OFFCURVE",
"480 1320 OFFCURVE",
"742 1320 CURVE SMOOTH",
"1002 1320 OFFCURVE",
"1169 1070.333 OFFCURVE",
"1169 685 CURVE SMOOTH",
"1169 356 OFFCURVE",
"1046 66 OFFCURVE",
"763 66 CURVE SMOOTH"
);
},
{
closed = 1;
nodes = (
"1411 1124 OFFCURVE",
"1159 1412 OFFCURVE",
"788 1412 CURVE SMOOTH",
"365 1412 OFFCURVE",
"99 1126 OFFCURVE",
"99 699 CURVE SMOOTH",
"99 245 OFFCURVE",
"339 -28 OFFCURVE",
"764 -28 CURVE SMOOTH",
"1147 -28 OFFCURVE",
"1411 299 OFFCURVE",
"1411 690 CURVE SMOOTH"
);
}
);
width = 1533;
},
{
anchors = (
{
name = bottom;
position = "{595, -33}";
},
{
name = top;
position = "{933, 1405}";
}
);
layerId = "5CBF0BAD-1756-4F16-9711-93DC239D102B";
paths = (
{
closed = 1;
nodes = (
"1103 308 OFFCURVE",
"954 108 OFFCURVE",
"714 108 CURVE SMOOTH",
"490 108 OFFCURVE",
"402 409 OFFCURVE",
"446 687 CURVE SMOOTH",
"504 1056 OFFCURVE",
"670 1267 OFFCURVE",
"898 1267 CURVE SMOOTH",
"1131 1267 OFFCURVE",
"1210 982 OFFCURVE",
"1166 706 CURVE SMOOTH"
);
},
{
closed = 1;
nodes = (
"92 275 OFFCURVE",
"294 -34 OFFCURVE",
"685 -34 CURVE SMOOTH",
"1119 -34 OFFCURVE",
"1437 263 OFFCURVE",
"1508 713 CURVE SMOOTH",
"1567 1089 OFFCURVE",
"1348 1406 OFFCURVE",
"983 1406 CURVE SMOOTH",
"539 1406 OFFCURVE",
"227 1123 OFFCURVE",
"157 682 CURVE SMOOTH"
);
}
);
width = 1533;
}
);
note = uni004F;
unicode = 004F;
},
{
glyphname = Oslash;
layers = (
{
layerId = "92A672BF-229C-4BEC-8D25-4DDBB2A38145";
paths = (
{
closed = 1;
nodes = (
"336 -68 OFFCURVE",
"436 -1 OFFCURVE",
"488 0 CURVE SMOOTH",
"530 1 OFFCURVE",
"596 -18 OFFCURVE",
"675 -18 CURVE SMOOTH",
"1111 -18 OFFCURVE",
"1376 291 OFFCURVE",
"1376 746 CURVE SMOOTH",
"1376 1050 OFFCURVE",
"1245 1170 OFFCURVE",
"1245 1311.5 CURVE SMOOTH",
"1245 1339 OFFCURVE",
"1248 1374 OFFCURVE",
"1240 1391 CURVE SMOOTH",
"1229 1415 OFFCURVE",
"1211 1421 OFFCURVE",
"1187 1419 CURVE SMOOTH",
"1138 1414 OFFCURVE",
"1071 1374 OFFCURVE",
"1018 1374 CURVE",
"956 1379 OFFCURVE",
"895 1385 OFFCURVE",
"833 1390 CURVE SMOOTH",
"386 1390 OFFCURVE",
"118 1089 OFFCURVE",
"118 640 CURVE SMOOTH",
"118 311 OFFCURVE",
"260 162 OFFCURVE",
"260 57 CURVE SMOOTH",
"258 33 OFFCURVE",
"239 21 OFFCURVE",
"241 -14 CURVE SMOOTH",
"243 -50 OFFCURVE",
"269.333 -68 OFFCURVE",
"302 -68 CURVE SMOOTH"
);
},
{
closed = 1;
nodes = (
"628 66 OFFCURVE",
"541 98 OFFCURVE",
"541 159 CURVE SMOOTH",
"541 178 OFFCURVE",
"713 448 OFFCURVE",
"853 700 CURVE SMOOTH",
"971 913 OFFCURVE",
"1059 1116 OFFCURVE",
"1071 1116 CURVE SMOOTH",
"1103 1116 OFFCURVE",
"1129 980 OFFCURVE",
"1129 864 CURVE SMOOTH",
"1129 388 OFFCURVE",
"964 78 OFFCURVE",
"704 68 CURVE SMOOTH"
);
},
{
closed = 1;
nodes = (
"377 258 OFFCURVE",
"324 523 OFFCURVE",
"324 645 CURVE SMOOTH",
"326 1079 OFFCURVE",
"475 1310 OFFCURVE",
"757 1310 CURVE SMOOTH",
"881 1310 OFFCURVE",
"986 1256 OFFCURVE",
"986 1175 CURVE SMOOTH",
"986 1044.333 OFFCURVE",
"484 258 OFFCURVE",
"444 258 CURVE SMOOTH"
);
}
);
width = 1543;
},
{
layerId = "5CBF0BAD-1756-4F16-9711-93DC239D102B";
paths = (
{
closed = 1;
nodes = (
"271 -66 OFFCURVE",
"341 -4 OFFCURVE",
"374 -4 CURVE SMOOTH",
"433 -4 OFFCURVE",
"538 -29 OFFCURVE",
"633 -25 CURVE SMOOTH",
"1181 0 OFFCURVE",
"1444 290 OFFCURVE",
"1509 700 CURVE SMOOTH",
"1555 991 OFFCURVE",
"1418 1162 OFFCURVE",
"1422 1185 CURVE SMOOTH",
"1432 1242 OFFCURVE",
"1422 1269 OFFCURVE",
"1432 1329 CURVE SMOOTH",
"1441 1385 OFFCURVE",
"1413 1404 OFFCURVE",
"1371 1404 CURVE SMOOTH",
"1297 1404 OFFCURVE",
"1270 1348 OFFCURVE",
"1184 1348 CURVE SMOOTH",
"1123 1348 OFFCURVE",
"1061 1404 OFFCURVE",
"981 1404 CURVE SMOOTH",
"549 1404 OFFCURVE",
"222 1073 OFFCURVE",
"154 643 CURVE SMOOTH",
"106 341 OFFCURVE",
"213 198 OFFCURVE",
"207 158 CURVE SMOOTH",
"199 106 OFFCURVE",
"162 23 OFFCURVE",
"157 -4 CURVE SMOOTH",
"153 -27 OFFCURVE",
"184 -66 OFFCURVE",
"226 -66 CURVE SMOOTH"
);
},
{
closed = 1;
nodes = (
"546 102 OFFCURVE",
"510 135 OFFCURVE",
"518 180 CURVE SMOOTH",
"523 210 OFFCURVE",
"719 397 OFFCURVE",
"879 603 CURVE SMOOTH",
"1042 813 OFFCURVE",
"1151 1024 OFFCURVE",
"1170 1024 CURVE SMOOTH",
"1177 1024 OFFCURVE",
"1176 1006 OFFCURVE",
"1176 971 CURVE SMOOTH",
"1176 596 OFFCURVE",
"1063 136 OFFCURVE",
"586 105 CURVE SMOOTH"
);
},
{
closed = 1;
nodes = (
"426 337 OFFCURVE",
"434 615 OFFCURVE",
"454 736 CURVE SMOOTH",
"498 1005 OFFCURVE",
"635 1237 OFFCURVE",
"880 1237 CURVE SMOOTH",
"992 1237 OFFCURVE",
"1080 1168 OFFCURVE",
"1069 1097 CURVE SMOOTH",
"1052 989 OFFCURVE",
"571 337 OFFCURVE",
"470 337 CURVE SMOOTH"
);
}
);
width = 1541;
}
);
note = uni00D8;
unicode = 00D8;
},
{
glyphname = OE;
layers = (
{
layerId = "92A672BF-229C-4BEC-8D25-4DDBB2A38145";
paths = (
{
closed = 1;
nodes = (
"842 -1 OFFCURVE",
"958 16 OFFCURVE",
"1051 16 CURVE SMOOTH",
"1105 16 OFFCURVE",
"1271 -5 OFFCURVE",
"1454 -8 CURVE SMOOTH",
"1654 -11 OFFCURVE",
"1866 9 OFFCURVE",
"1866 196 CURVE SMOOTH",
"1866 237.333 OFFCURVE",
"1859 259 OFFCURVE",
"1844 259 CURVE SMOOTH",
"1746 259 OFFCURVE",
"1706 114 OFFCURVE",
"1438 114 CURVE SMOOTH",
"1237 114 OFFCURVE",
"1210 242 OFFCURVE",
"1210 456 CURVE SMOOTH",
"1210 581.333 OFFCURVE",
"1266.667 644 OFFCURVE",
"1380 644 CURVE SMOOTH",
"1457 644 OFFCURVE",
"1568 559 OFFCURVE",
"1600 561 CURVE SMOOTH",
"1646 564 OFFCURVE",
"1655 609 OFFCURVE",
"1655 716 CURVE SMOOTH",
"1655 820 OFFCURVE",
"1630 868 OFFCURVE",
"1590 868 CURVE SMOOTH",
"1568 868 OFFCURVE",
"1463 791 OFFCURVE",
"1411 791 CURVE SMOOTH",
"1277 791 OFFCURVE",
"1221 831 OFFCURVE",
"1221 955 CURVE SMOOTH",
"1221 1158 OFFCURVE",
"1245 1267 OFFCURVE",
"1421 1267 CURVE SMOOTH",
"1651 1267 OFFCURVE",
"1744 1147 OFFCURVE",
"1801 1147 CURVE SMOOTH",
"1815 1147 OFFCURVE",
"1822 1164 OFFCURVE",
"1822 1198 CURVE SMOOTH",
"1822 1284 OFFCURVE",
"1790 1338.333 OFFCURVE",
"1726 1361 CURVE SMOOTH",
"1639 1392 OFFCURVE",
"1438 1374 OFFCURVE",
"1122 1374 CURVE SMOOTH",
"1017 1374 OFFCURVE",
"979 1374 OFFCURVE",
"770 1391 CURVE SMOOTH",
"360 1391 OFFCURVE",
"90 1110 OFFCURVE",
"90 703 CURVE SMOOTH",
"90 261 OFFCURVE",
"314 -9 OFFCURVE",
"738 -9 CURVE SMOOTH"
);
},
{
closed = 1;
nodes = (
"436 76 OFFCURVE",
"321 395 OFFCURVE",
"321 771 CURVE SMOOTH",
"321 1063 OFFCURVE",
"485 1307 OFFCURVE",
"770 1307 CURVE SMOOTH",
"943 1307 OFFCURVE",
"986 1254 OFFCURVE",
"986 1082 CURVE SMOOTH",
"983 397 OFFCURVE",
"980 193 OFFCURVE",
"969 162 CURVE SMOOTH",
"944 90 OFFCURVE",
"860 76 OFFCURVE",
"763 76 CURVE SMOOTH"
);
}
);
width = 2036;
},
{
layerId = "5CBF0BAD-1756-4F16-9711-93DC239D102B";
paths = (
{
closed = 1;
nodes = (
"774 -26 OFFCURVE",
"989 -3 OFFCURVE",
"1074 -3 CURVE SMOOTH",
"1176 -3 OFFCURVE",
"1208 -8 OFFCURVE",
"1310 -10 CURVE SMOOTH",
"1659 -17 OFFCURVE",
"1771 13 OFFCURVE",
"1808 242 CURVE SMOOTH",
"1814 279 OFFCURVE",
"1807 298 OFFCURVE",
"1788 298 CURVE SMOOTH",
"1724 298 OFFCURVE",
"1589 141 OFFCURVE",
"1373 141 CURVE SMOOTH",
"1253 141 OFFCURVE",
"1207 197 OFFCURVE",
"1234 370 CURVE SMOOTH",
"1261 541 OFFCURVE",
"1293 614 OFFCURVE",
"1381 614 CURVE SMOOTH",
"1496 614 OFFCURVE",
"1491 527 OFFCURVE",
"1582 527 CURVE SMOOTH",
"1616 527 OFFCURVE",
"1654 556 OFFCURVE",
"1679 706 CURVE SMOOTH",
"1693 791 OFFCURVE",
"1676 862 OFFCURVE",
"1623 862 CURVE SMOOTH",
"1566 862 OFFCURVE",
"1509 784 OFFCURVE",
"1427 784 CURVE SMOOTH",
"1355 784 OFFCURVE",
"1306 830 OFFCURVE",
"1316 897 CURVE SMOOTH",
"1339 1053 OFFCURVE",
"1395 1217 OFFCURVE",
"1542 1217 CURVE SMOOTH",
"1668 1217 OFFCURVE",
"1779 1053 OFFCURVE",
"1828 1053 CURVE SMOOTH",
"1859 1053 OFFCURVE",
"1902 1120 OFFCURVE",
"1907 1155 CURVE SMOOTH",
"1934 1345 OFFCURVE",
"1836 1370 OFFCURVE",
"1536 1370 CURVE SMOOTH",
"1342 1370 OFFCURVE",
"1280 1366 OFFCURVE",
"1281 1366 CURVE SMOOTH",
"1385 1366 OFFCURVE",
"1075 1385 OFFCURVE",
"942 1385 CURVE SMOOTH",
"512 1385 OFFCURVE",
"239 1102 OFFCURVE",
"169 656 CURVE SMOOTH",
"105 251 OFFCURVE",
"291 -26 OFFCURVE",
"713 -26 CURVE SMOOTH"
);
},
{
closed = 1;
nodes = (
"491 112 OFFCURVE",
"402 389 OFFCURVE",
"447 674 CURVE SMOOTH",
"507 1051 OFFCURVE",
"678 1248 OFFCURVE",
"911 1248 CURVE SMOOTH",
"1107 1248 OFFCURVE",
"1144 1198 OFFCURVE",
"1112 993 CURVE SMOOTH",
"1039 527 OFFCURVE",
"987 226 OFFCURVE",
"949 179 CURVE SMOOTH",
"910 130 OFFCURVE",
"852 115 OFFCURVE",
"742 114 CURVE SMOOTH"
);
}
);
width = 2004;
}
);
note = uni0152;
unicode = 0152;
},
{
glyphname = P;
layers = (
{
layerId = "92A672BF-229C-4BEC-8D25-4DDBB2A38145";
paths = (
{
closed = 1;
nodes = (
"510 0 OFFCURVE",
"624 10 OFFCURVE",
"624 44 CURVE SMOOTH",
"624 75.308 OFFCURVE",
"504.511 123.29 OFFCURVE",
"486.5 167.5 CURVE SMOOTH",
"473 200 OFFCURVE",
"466 292 OFFCURVE",
"470 380 CURVE SMOOTH",
"474 458 OFFCURVE",
"450 526 OFFCURVE",
"480 541 CURVE SMOOTH",
"527 564 OFFCURVE",
"557 579 OFFCURVE",
"618 579 CURVE SMOOTH",
"913 579 OFFCURVE",
"1173 711 OFFCURVE",
"1173 1000 CURVE SMOOTH",
"1173 1279 OFFCURVE",
"985 1395 OFFCURVE",
"701 1402 CURVE SMOOTH",
"250 1413 OFFCURVE",
"123 1384 OFFCURVE",
"123 1337 CURVE SMOOTH",
"123 1287 OFFCURVE",
"237 1256 OFFCURVE",
"243 1204.5 CURVE SMOOTH",
"248 1161 OFFCURVE",
"259 985 OFFCURVE",
"255 680.5 CURVE SMOOTH",
"253 509 OFFCURVE",
"246 285 OFFCURVE",
"223 179 CURVE SMOOTH",
"207 107 OFFCURVE",
"115 95 OFFCURVE",
"115 46 CURVE SMOOTH",
"115 20.667 OFFCURVE",
"273 0 OFFCURVE",
"359 0 CURVE SMOOTH"
);
},
{
closed = 1;
nodes = (
"518 652 OFFCURVE",
"470 700 OFFCURVE",
"470 772 CURVE SMOOTH",
"470 1152 LINE SMOOTH",
"470 1273 OFFCURVE",
"505 1307 OFFCURVE",
"578 1307 CURVE SMOOTH",
"838 1307 OFFCURVE",
"952 1211 OFFCURVE",
"953 969 CURVE SMOOTH",
"953 755 OFFCURVE",
"827 652 OFFCURVE",
"582 652 CURVE SMOOTH"
);
}
);
width = 1267;
},
{
layerId = "5CBF0BAD-1756-4F16-9711-93DC239D102B";
paths = (
{
closed = 1;
nodes = (
"495 -5 OFFCURVE",
"663 0 OFFCURVE",
"673 59 CURVE SMOOTH",
"678 90 OFFCURVE",
"627 127 OFFCURVE",
"578 172 CURVE SMOOTH",
"542 205 OFFCURVE",
"529 252 OFFCURVE",
"538 311 CURVE SMOOTH",
"558 440 OFFCURVE",
"592 514 OFFCURVE",
"640 534 CURVE SMOOTH",
"652 539 OFFCURVE",
"733 546 OFFCURVE",
"822 554 CURVE SMOOTH",
"1125 581 OFFCURVE",
"1283 749 OFFCURVE",
"1319 973 CURVE SMOOTH",
"1365 1262 OFFCURVE",
"1275 1398 OFFCURVE",
"768 1398 CURVE SMOOTH",
"332 1398 OFFCURVE",
"299 1373 OFFCURVE",
"293 1328 CURVE SMOOTH",
"288 1293 OFFCURVE",
"375 1249 OFFCURVE",
"387 1148 CURVE SMOOTH",
"393 1099 OFFCURVE",
"376 946 OFFCURVE",
"335 701 CURVE SMOOTH",
"290 434 OFFCURVE",
"272 341 OFFCURVE",
"249 250 CURVE SMOOTH",
"228 167 OFFCURVE",
"105 135 OFFCURVE",
"91 50 CURVE SMOOTH",
"85 13 OFFCURVE",
"176 -5 OFFCURVE",
"365 -5 CURVE SMOOTH"
);
},
{
closed = 1;
nodes = (
"618 653 OFFCURVE",
"596 670 OFFCURVE",
"611 751 CURVE SMOOTH",
"689 1175 LINE SMOOTH",
"699 1231 OFFCURVE",
"726 1262 OFFCURVE",
"822 1262 CURVE SMOOTH",
"974 1262 OFFCURVE",
"1065 1147 OFFCURVE",
"1035 958 CURVE SMOOTH",
"1004 765 OFFCURVE",
"900 653 OFFCURVE",
"755 653 CURVE SMOOTH"
);
}
);
width = 1304;
}
);
note = uni0050;
unicode = 0050;
},
{
glyphname = Thorn;
layers = (
{
layerId = "92A672BF-229C-4BEC-8D25-4DDBB2A38145";
paths = (
{
closed = 1;
nodes = (
"480 14 OFFCURVE",
"627 11 OFFCURVE",
"627 60 CURVE SMOOTH",
"627 93 OFFCURVE",
"544 119 OFFCURVE",
"520 155 CURVE SMOOTH",
"508 173 OFFCURVE",
"502 205 OFFCURVE",
"504 237 CURVE SMOOTH",
"506 271 OFFCURVE",
"518 304 OFFCURVE",
"542 316 CURVE SMOOTH",
"552.667 321.333 OFFCURVE",
"603.667 327.333 OFFCURVE",
"695 334 CURVE SMOOTH",
"972 353 OFFCURVE",
"1177 479 OFFCURVE",
"1177 729 CURVE SMOOTH",
"1177 1004 OFFCURVE",
"1028 1100 OFFCURVE",
"739 1131 CURVE SMOOTH",
"606 1145 OFFCURVE",
"514 1139 OFFCURVE",
"514 1204 CURVE SMOOTH",
"514 1279 OFFCURVE",
"618 1293 OFFCURVE",
"618 1340 CURVE SMOOTH",
"618 1378 OFFCURVE",
"581 1382 OFFCURVE",
"415 1381 CURVE SMOOTH",
"252 1381 OFFCURVE",
"132 1395 OFFCURVE",
"132 1334 CURVE SMOOTH",
"132 1302 OFFCURVE",
"242 1273 OFFCURVE",
"256 1223 CURVE SMOOTH",
"270.667 1170.333 OFFCURVE",
"278 998.833 OFFCURVE",
"278 708.5 CURVE SMOOTH",
"278 418.167 OFFCURVE",
"270.667 245.333 OFFCURVE",
"256 190 CURVE SMOOTH",
"242.157 136.934 OFFCURVE",
"135 94.316 OFFCURVE",
"135 53 CURVE SMOOTH",
"135 29.667 OFFCURVE",
"276 6 OFFCURVE",
"353 9 CURVE SMOOTH"
);
},
{
closed = 1;
nodes = (
"524 397 OFFCURVE",
"480 414 OFFCURVE",
"479 484 CURVE SMOOTH",
"478 548 OFFCURVE",
"490 967 OFFCURVE",
"489 1012 CURVE SMOOTH",
"488 1046 OFFCURVE",
"540.667 1060 OFFCURVE",
"620 1060 CURVE SMOOTH",
"813 1060 OFFCURVE",
"925 943 OFFCURVE",
"925 754 CURVE SMOOTH",
"925 521 OFFCURVE",
"824 398 OFFCURVE",
"607 397 CURVE SMOOTH"
);
}
);
width = 1285;
},
{
layerId = "5CBF0BAD-1756-4F16-9711-93DC239D102B";
paths = (
{
closed = 1;
nodes = (
"537 -1 OFFCURVE",
"628 15 OFFCURVE",
"633 50 CURVE SMOOTH",
"640 99 OFFCURVE",
"607 128 OFFCURVE",
"579 159 CURVE SMOOTH",
"557 184 OFFCURVE",
"537 210 OFFCURVE",
"545 248 CURVE SMOOTH",
"551 278 OFFCURVE",
"569 293 OFFCURVE",
"595 302 CURVE SMOOTH",
"632 315 OFFCURVE",
"736 313 OFFCURVE",
"808 317 CURVE SMOOTH",
"1093 333 OFFCURVE",
"1241 460 OFFCURVE",
"1285 729 CURVE SMOOTH",
"1324 970 OFFCURVE",
"1212 1086 OFFCURVE",
"943 1111 CURVE SMOOTH",
"814 1123 OFFCURVE",
"751 1140 OFFCURVE",
"754 1163 CURVE SMOOTH",
"760 1212 OFFCURVE",
"842 1243 OFFCURVE",
"857 1328 CURVE SMOOTH",
"863 1363 OFFCURVE",
"795 1376 OFFCURVE",
"539 1376 CURVE SMOOTH",
"356 1376 OFFCURVE",
"318 1353 OFFCURVE",
"312 1313 CURVE SMOOTH",
"304 1261 OFFCURVE",
"405 1232 OFFCURVE",
"423 1168 CURVE SMOOTH",
"434 1128 OFFCURVE",
"385 901 OFFCURVE",
"353 705 CURVE SMOOTH",
"328 551 OFFCURVE",
"285 297 OFFCURVE",
"269 256 CURVE SMOOTH",
"242 186 OFFCURVE",
"118 97 OFFCURVE",
"112 64 CURVE SMOOTH",
"101 2 OFFCURVE",
"140 -4 OFFCURVE",
"410 -2 CURVE SMOOTH"
);
},
{
closed = 1;
nodes = (
"600 425 OFFCURVE",
"586 451 OFFCURVE",
"594 502 CURVE SMOOTH",
"617 646 OFFCURVE",
"639 790 OFFCURVE",
"662 934 CURVE SMOOTH",
"669 978 OFFCURVE",
"691 1000 OFFCURVE",
"729 1000 CURVE SMOOTH",
"948 1000 OFFCURVE",
"1028 934 OFFCURVE",
"997 738 CURVE SMOOTH",
"960 503 OFFCURVE",
"879 425 OFFCURVE",
"637 425 CURVE SMOOTH"
);
}
);
width = 1370;
}
);
note = uni00DE;
unicode = 00DE;
},
{
glyphname = Q;
layers = (
{
layerId = "92A672BF-229C-4BEC-8D25-4DDBB2A38145";
paths = (
{
closed = 1;
nodes = (
"1469 -306 OFFCURVE",
"1546 -288 OFFCURVE",
"1546 -233 CURVE SMOOTH",
"1546 -189 OFFCURVE",
"1150 -121 OFFCURVE",
"1150 -34 CURVE SMOOTH",
"1150 -8 OFFCURVE",
"1173 21 OFFCURVE",
"1219 104 CURVE SMOOTH",
"1317 281 OFFCURVE",
"1366 482 OFFCURVE",
"1366 706 CURVE SMOOTH",
"1366 1121 OFFCURVE",
"1131 1419 OFFCURVE",
"735 1419 CURVE SMOOTH",
"330 1419 OFFCURVE",
"79 1144 OFFCURVE",
"79 713 CURVE SMOOTH",
"79 359 OFFCURVE",
"230 211 OFFCURVE",
"351 119 CURVE SMOOTH",
"491 13 OFFCURVE",
"1187 -306 OFFCURVE",
"1351 -306 CURVE SMOOTH"
);
},
{
closed = 1;
nodes = (
"465 83 OFFCURVE",
"292 374 OFFCURVE",
"292 741 CURVE SMOOTH",
"292 1091 OFFCURVE",
"465 1322 OFFCURVE",
"750 1322 CURVE SMOOTH",
"1013 1322 OFFCURVE",
"1192 1067 OFFCURVE",
"1192 678 CURVE SMOOTH",
"1192 362 OFFCURVE",
"1035 83 OFFCURVE",
"752 83 CURVE SMOOTH"
);
}
);
width = 1555;
},
{
layerId = "5CBF0BAD-1756-4F16-9711-93DC239D102B";
paths = (
{
closed = 1;
nodes = (
"1306 -309 OFFCURVE",
"1491 -262 OFFCURVE",
"1495 -190 CURVE SMOOTH",
"1500 -88 OFFCURVE",
"1250 -89 OFFCURVE",
"1168 -36 CURVE SMOOTH",
"1120 -5 OFFCURVE",
"1053 2 OFFCURVE",
"1057 25 CURVE SMOOTH",
"1065 72 OFFCURVE",
"1455 194 OFFCURVE",
"1536 695 CURVE SMOOTH",
"1611 1160 OFFCURVE",
"1398 1438 OFFCURVE",
"938 1438 CURVE SMOOTH",
"540 1438 OFFCURVE",
"203 1118 OFFCURVE",
"139 719 CURVE SMOOTH",
"88 400 OFFCURVE",
"204 215 OFFCURVE",
"282 130 CURVE SMOOTH",
"371 34 OFFCURVE",
"1087 -309 OFFCURVE",
"1169 -309 CURVE SMOOTH"
);
},
{
closed = 1;
nodes = (
"512 126 OFFCURVE",
"434 442 OFFCURVE",
"474 699 CURVE SMOOTH",
"527 1040 OFFCURVE",
"677 1291 OFFCURVE",
"915 1291 CURVE SMOOTH",
"1168 1291 OFFCURVE",
"1261 1011 OFFCURVE",
"1216 731 CURVE SMOOTH",
"1147 299 OFFCURVE",
"1006 126 OFFCURVE",
"736 126 CURVE SMOOTH"
);
}
);
width = 1589;
}
);
note = uni0051;
unicode = 0051;
},
{
glyphname = R;
layers = (
{
layerId = "92A672BF-229C-4BEC-8D25-4DDBB2A38145";
paths = (
{
closed = 1;
nodes = (
"1264 -13 OFFCURVE",
"1318 7 OFFCURVE",
"1318 48 CURVE SMOOTH",
"1318 96 OFFCURVE",
"1202 127 OFFCURVE",
"1154 182 CURVE SMOOTH",
"1082 264 OFFCURVE",
"879 566 OFFCURVE",
"879 639 CURVE SMOOTH",
"879 657 OFFCURVE",
"1125 844 OFFCURVE",
"1125 1015 CURVE SMOOTH",
"1125 1286 OFFCURVE",
"920 1388 OFFCURVE",
"626 1394 CURVE SMOOTH",
"345 1400 OFFCURVE",
"114 1397 OFFCURVE",
"114 1350 CURVE SMOOTH",
"114 1301 OFFCURVE",
"208 1298 OFFCURVE",
"230 1247 CURVE SMOOTH",
"253 1194 OFFCURVE",
"264 1072 OFFCURVE",
"259 729 CURVE SMOOTH",
"254 417 OFFCURVE",
"262 265 OFFCURVE",
"245.5 184.5 CURVE SMOOTH",
"238 147 OFFCURVE",
"113 100 OFFCURVE",
"113 60 CURVE SMOOTH",
"113 14 OFFCURVE",
"200 9 OFFCURVE",
"501 3 CURVE SMOOTH",
"561 3 OFFCURVE",
"591 14.333 OFFCURVE",
"591 37 CURVE SMOOTH",
"591 60 OFFCURVE",
"490 133 OFFCURVE",
"478.5 162.5 CURVE SMOOTH",
"468 188 OFFCURVE",
"462 253 OFFCURVE",
"463 356 CURVE SMOOTH",
"464 543 OFFCURVE",
"501 603 OFFCURVE",
"540 603 CURVE SMOOTH",
"672 603 OFFCURVE",
"734 532 OFFCURVE",
"868.5 295 CURVE SMOOTH",
"992 76 OFFCURVE",
"1014 -16 OFFCURVE",
"1200 -13 CURVE SMOOTH"
);
},
{
closed = 1;
nodes = (
"459 707 OFFCURVE",
"454 718 OFFCURVE",
"454 810 CURVE SMOOTH",
"454 1155 LINE SMOOTH",
"454 1252 OFFCURVE",
"452 1298 OFFCURVE",
"519 1298 CURVE SMOOTH",
"795 1298 OFFCURVE",
"924 1228 OFFCURVE",
"924 984 CURVE SMOOTH",
"924 783 OFFCURVE",
"803 707 OFFCURVE",
"538 707 CURVE SMOOTH"
);
}
);
width = 1385;
},
{
layerId = "5CBF0BAD-1756-4F16-9711-93DC239D102B";
paths = (
{
closed = 1;
nodes = (
"1228 -4 OFFCURVE",
"1320 17 OFFCURVE",
"1334 100 CURVE SMOOTH",
"1343 155 OFFCURVE",
"1172 179 OFFCURVE",
"1139 267 CURVE SMOOTH",
"1120 317 OFFCURVE",
"992 556 OFFCURVE",
"998 603 CURVE SMOOTH",
"1000 619 OFFCURVE",
"1258 782 OFFCURVE",
"1295 1012 CURVE SMOOTH",
"1336 1267 OFFCURVE",
"1199 1386 OFFCURVE",
"792 1386 CURVE SMOOTH",
"551 1386 OFFCURVE",
"304 1396 OFFCURVE",
"291 1322 CURVE SMOOTH",
"285 1288 OFFCURVE",
"381 1207 OFFCURVE",
"384 1130 CURVE SMOOTH",
"386 1084 OFFCURVE",
"363 901 OFFCURVE",
"327 675 CURVE SMOOTH",
"318 618 OFFCURVE",
"276 321 OFFCURVE",
"245 236 CURVE SMOOTH",
"220 168 OFFCURVE",
"92 132 OFFCURVE",
"82 59 CURVE SMOOTH",
"76 17 OFFCURVE",
"67 -1 OFFCURVE",
"413 -1 CURVE SMOOTH",
"522 -1 OFFCURVE",
"579 16 OFFCURVE",
"585 51 CURVE SMOOTH",
"588 70 OFFCURVE",
"566 125 OFFCURVE",
"547 180 CURVE SMOOTH",
"530 230 OFFCURVE",
"514 280 OFFCURVE",
"518 306 CURVE SMOOTH",
"546 491 OFFCURVE",
"565 566 OFFCURVE",
"634 566 CURVE SMOOTH",
"742 566 OFFCURVE",
"800 438 OFFCURVE",
"834 303 CURVE SMOOTH",
"871 155 OFFCURVE",
"890 -1 OFFCURVE",
"1121 -3 CURVE SMOOTH"
);
},
{
closed = 1;
nodes = (
"617 701 OFFCURVE",
"606 722 OFFCURVE",
"614 775 CURVE SMOOTH",
"672 1138 LINE SMOOTH",
"689 1242 OFFCURVE",
"708 1253 OFFCURVE",
"787 1253 CURVE SMOOTH",
"990 1253 OFFCURVE",
"1058 1160 OFFCURVE",
"1025 948 CURVE SMOOTH",
"998 772 OFFCURVE",
"886 701 OFFCURVE",
"694 701 CURVE SMOOTH"
);
}
);
width = 1429;
}
);
note = uni0052;
unicode = 0052;
},
{
glyphname = S;
layers = (
{
anchors = (
{
name = top;
position = "{602, 1405}";
}
);
layerId = "92A672BF-229C-4BEC-8D25-4DDBB2A38145";
paths = (
{
closed = 1;
nodes = (
"852 -7 OFFCURVE",
"1047 142 OFFCURVE",
"1047 354 CURVE SMOOTH",
"1047 503 OFFCURVE",
"993 586 OFFCURVE",
"885 664 CURVE SMOOTH",
"782 740 OFFCURVE",
"629 811 OFFCURVE",
"427 933 CURVE SMOOTH",
"359 974 OFFCURVE",
"329 1046 OFFCURVE",
"335 1115 CURVE SMOOTH",
"343 1215 OFFCURVE",
"423 1312 OFFCURVE",
"565 1312 CURVE SMOOTH",
"776 1312 OFFCURVE",
"866 1103 OFFCURVE",
"930 1103 CURVE SMOOTH",
"961 1103 OFFCURVE",
"989 1121 OFFCURVE",
"989 1155 CURVE SMOOTH",
"989 1286 OFFCURVE",
"987 1368 OFFCURVE",
"893.5 1368 CURVE SMOOTH",
"829.472 1368 OFFCURVE",
"662.376 1407 OFFCURVE",
"573 1407 CURVE SMOOTH",
"331.667 1407 OFFCURVE",
"140 1269 OFFCURVE",
"140 1053 CURVE SMOOTH",
"140 945 OFFCURVE",
"176 856 OFFCURVE",
"249 786 CURVE SMOOTH",
"381 659 OFFCURVE",
"664 574 OFFCURVE",
"762 496.5 CURVE SMOOTH",
"826 446 OFFCURVE",
"863 384 OFFCURVE",
"859 297 CURVE SMOOTH",
"855 177 OFFCURVE",
"768 91 OFFCURVE",
"577 91 CURVE SMOOTH",
"461 91 OFFCURVE",
"392 149 OFFCURVE",
"345 190 CURVE SMOOTH",
"297 231 OFFCURVE",
"225 384 OFFCURVE",
"189 384 CURVE SMOOTH",
"142 384 OFFCURVE",
"128 334 OFFCURVE",
"128 216 CURVE SMOOTH",
"128 129 OFFCURVE",
"147 76 OFFCURVE",
"186 58 CURVE SMOOTH",
"247 32 OFFCURVE",
"480 -7 OFFCURVE",
"584 -7 CURVE SMOOTH"
);
}
);
width = 1150;
},
{
anchors = (
{
name = top;
position = "{771, 1407}";
}
);
layerId = "5CBF0BAD-1756-4F16-9711-93DC239D102B";
paths = (
{
closed = 1;
nodes = (
"825 -20 OFFCURVE",
"1032 127 OFFCURVE",
"1076 401 CURVE SMOOTH",
"1091 494 OFFCURVE",
"1067 577 OFFCURVE",
"1006 651 CURVE SMOOTH",
"897 783 OFFCURVE",
"711 821 OFFCURVE",
"581 927 CURVE SMOOTH",
"522 975 OFFCURVE",
"497 1029 OFFCURVE",
"507 1090 CURVE SMOOTH",
"522 1181 OFFCURVE",
"615 1256 OFFCURVE",
"716 1256 CURVE SMOOTH",
"903 1256 OFFCURVE",
"965 1035 OFFCURVE",
"1072 1035 CURVE SMOOTH",
"1105 1035 OFFCURVE",
"1129 1083 OFFCURVE",
"1144 1180 CURVE SMOOTH",
"1159 1277 OFFCURVE",
"1146 1337 OFFCURVE",
"1104 1360 CURVE SMOOTH",
"1043 1393 OFFCURVE",
"927 1407 OFFCURVE",
"716 1407 CURVE SMOOTH",
"493 1407 OFFCURVE",
"271 1252 OFFCURVE",
"235 1025 CURVE SMOOTH",
"216 904 OFFCURVE",
"257 799 OFFCURVE",
"361 713 CURVE SMOOTH",
"448 641 OFFCURVE",
"705 541 OFFCURVE",
"774 452 CURVE SMOOTH",
"805 412 OFFCURVE",
"815 361 OFFCURVE",
"806 299 CURVE SMOOTH",
"794 216 OFFCURVE",
"684 131 OFFCURVE",
"560 131 CURVE SMOOTH",
"499 131 OFFCURVE",
"450 142 OFFCURVE",
"414 165 CURVE SMOOTH",
"378 188 OFFCURVE",
"217 403 OFFCURVE",
"178 403 CURVE SMOOTH",
"132 403 OFFCURVE",
"115 365 OFFCURVE",
"99 263 CURVE SMOOTH",
"82 154 OFFCURVE",
"92 84 OFFCURVE",
"131 54 CURVE SMOOTH",
"172 22 OFFCURVE",
"385 -20 OFFCURVE",
"532 -20 CURVE SMOOTH"
);
}
);
width = 1150;
}
);
note = uni0053;
unicode = 0053;
},
{
glyphname = T;
layers = (
{
layerId = "92A672BF-229C-4BEC-8D25-4DDBB2A38145";
paths = (
{
closed = 1;
nodes = (
"892 -6 OFFCURVE",
"912 8 OFFCURVE",
"912 41 CURVE SMOOTH",
"912 62 OFFCURVE",
"783 138 OFFCURVE",
"777 166 CURVE SMOOTH",
"768 205 OFFCURVE",
"750 607 OFFCURVE",
"751 712 CURVE SMOOTH",
"753 873 OFFCURVE",
"748 1146 OFFCURVE",
"779.5 1225 CURVE SMOOTH",
"804.589 1288.043 OFFCURVE",
"962 1268 OFFCURVE",
"1039 1265 CURVE SMOOTH",
"1085 1263 OFFCURVE",
"1210 1066 OFFCURVE",
"1232 1066 CURVE SMOOTH",
"1250 1066 OFFCURVE",
"1259 1106.333 OFFCURVE",
"1259 1163 CURVE SMOOTH",
"1259 1306 OFFCURVE",
"1239 1386 OFFCURVE",
"1172 1386 CURVE SMOOTH",
"1084 1386 OFFCURVE",
"1006 1391 OFFCURVE",
"620 1392 CURVE SMOOTH",
"284 1392 OFFCURVE",
"110 1389 OFFCURVE",
"98 1383 CURVE SMOOTH",
"66.667 1367 OFFCURVE",
"51 1290.667 OFFCURVE",
"51 1154 CURVE SMOOTH",
"51 1091 OFFCURVE",
"56 1066 OFFCURVE",
"98 1066 CURVE SMOOTH",
"142 1066 OFFCURVE",
"197 1270 OFFCURVE",
"406 1270 CURVE SMOOTH",
"476 1270 OFFCURVE",
"516.5 1253.333 OFFCURVE",
"527.5 1220 CURVE SMOOTH",
"550 1153 OFFCURVE",
"552 949 OFFCURVE",
"551 739 CURVE SMOOTH",
"550 559 OFFCURVE",
"530 252 OFFCURVE",
"519 193 CURVE SMOOTH",
"509 140 OFFCURVE",
"372 76 OFFCURVE",
"380 46 CURVE SMOOTH",
"387 20 OFFCURVE",
"447 -2 OFFCURVE",
"581 -2 CURVE SMOOTH"
);
}
);
width = 1304;
},
{
layerId = "5CBF0BAD-1756-4F16-9711-93DC239D102B";
paths = (
{
closed = 1;
nodes = (
"876 0 OFFCURVE",
"915 10 OFFCURVE",
"921 53 CURVE SMOOTH",
"926 92 OFFCURVE",
"801 197 OFFCURVE",
"797 236 CURVE SMOOTH",
"793 273 OFFCURVE",
"832 590 OFFCURVE",
"849 708 CURVE SMOOTH",
"869 844 OFFCURVE",
"915 1077 OFFCURVE",
"934 1144 CURVE SMOOTH",
"950 1202 OFFCURVE",
"981 1231 OFFCURVE",
"1025 1231 CURVE SMOOTH",
"1197 1231 OFFCURVE",
"1234 1032 OFFCURVE",
"1333 1032 CURVE SMOOTH",
"1375 1032 OFFCURVE",
"1389 1074 OFFCURVE",
"1409 1202 CURVE SMOOTH",
"1434 1359 OFFCURVE",
"1415 1386 OFFCURVE",
"1271 1389 CURVE SMOOTH",
"1130 1392 OFFCURVE",
"999 1385 OFFCURVE",
"859 1388 CURVE SMOOTH",
"647 1393 OFFCURVE",
"318 1385 OFFCURVE",
"296 1379 CURVE SMOOTH",
"241 1364 OFFCURVE",
"215 1238 OFFCURVE",
"198 1130 CURVE SMOOTH",
"187 1061 OFFCURVE",
"189 1034 OFFCURVE",
"235 1034 CURVE SMOOTH",
"287 1034 OFFCURVE",
"429 1232 OFFCURVE",
"556 1232 CURVE SMOOTH",
"620 1232 OFFCURVE",
"636 1205 OFFCURVE",
"638 1150 CURVE SMOOTH",
"640 1084 OFFCURVE",
"614 871 OFFCURVE",
"581 666 CURVE SMOOTH",
"551 482 OFFCURVE",
"516 306 OFFCURVE",
"491 247 CURVE SMOOTH",
"458 168 OFFCURVE",
"323 123 OFFCURVE",
"310 42 CURVE SMOOTH",
"305 11 OFFCURVE",
"328 -2 OFFCURVE",
"644 -1 CURVE SMOOTH"
);
}
);
width = 1334;
}
);
note = uni0054;
unicode = 0054;
},
{
glyphname = U;
layers = (
{
anchors = (
{
name = top;
position = "{807, 1374}";
}
);
layerId = "92A672BF-229C-4BEC-8D25-4DDBB2A38145";
paths = (
{
closed = 1;
nodes = (
"1219 -11 OFFCURVE",
"1300 225 OFFCURVE",
"1300 662 CURVE SMOOTH",
"1300 909 OFFCURVE",
"1302 1142 OFFCURVE",
"1317 1191 CURVE SMOOTH",
"1326.333 1222.333 OFFCURVE",
"1449 1293 OFFCURVE",
"1449 1328 CURVE SMOOTH",
"1449 1395 OFFCURVE",
"1345 1389 OFFCURVE",
"1232.5 1390 CURVE SMOOTH",
"1150 1391 OFFCURVE",
"1070 1398.232 OFFCURVE",
"1070 1364 CURVE SMOOTH",
"1070 1315 OFFCURVE",
"1149 1258 OFFCURVE",
"1168 1189.5 CURVE SMOOTH",
"1184 1130 OFFCURVE",
"1187 964 OFFCURVE",
"1187 842 CURVE SMOOTH",
"1187 400 OFFCURVE",
"1172 98 OFFCURVE",
"835 98 CURVE SMOOTH",
"423 98 OFFCURVE",
"443 375 OFFCURVE",
"443 877 CURVE SMOOTH",
"443 1059.667 OFFCURVE",
"450 1167 OFFCURVE",
"452 1202 CURVE SMOOTH",
"456 1268 OFFCURVE",
"556 1297 OFFCURVE",
"552 1351 CURVE SMOOTH",
"550 1377 OFFCURVE",
"496.667 1392 OFFCURVE",
"386 1392 CURVE SMOOTH",
"170 1392 OFFCURVE",
"90 1387 OFFCURVE",
"90 1347 CURVE SMOOTH",
"90 1293 OFFCURVE",
"193 1286 OFFCURVE",
"212 1226 CURVE SMOOTH",
"231 1169 OFFCURVE",
"235 989 OFFCURVE",
"236 804 CURVE SMOOTH",
"240 124 OFFCURVE",
"324 -11 OFFCURVE",
"814 -11 CURVE SMOOTH"
);
}
);
width = 1525;
},
{
anchors = (
{
name = top;
position = "{916, 1374}";
}
);
layerId = "5CBF0BAD-1756-4F16-9711-93DC239D102B";
paths = (
{
closed = 1;
nodes = (
"1143 -16 OFFCURVE",
"1286 209 OFFCURVE",
"1365 710 CURVE SMOOTH",
"1412 1007 OFFCURVE",
"1425 1112 OFFCURVE",
"1440 1145 CURVE SMOOTH",
"1474 1220 OFFCURVE",
"1578 1223 OFFCURVE",
"1592 1308 CURVE SMOOTH",
"1605 1386 OFFCURVE",
"1503 1388 OFFCURVE",
"1372 1388 CURVE SMOOTH",
"1220 1388 OFFCURVE",
"1169 1383 OFFCURVE",
"1162 1337 CURVE SMOOTH",
"1155 1291 OFFCURVE",
"1216 1238 OFFCURVE",
"1216 1141 CURVE SMOOTH",
"1216 1053 OFFCURVE",
"1206 921 OFFCURVE",
"1178 747 CURVE SMOOTH",
"1119 380 OFFCURVE",
"1061 145 OFFCURVE",
"761 145 CURVE SMOOTH",
"480 145 OFFCURVE",
"499 369 OFFCURVE",
"547 704 CURVE SMOOTH",
"572 880 OFFCURVE",
"607 1054 OFFCURVE",
"626 1118 CURVE SMOOTH",
"657 1223 OFFCURVE",
"742 1317 OFFCURVE",
"748 1350 CURVE SMOOTH",
"753 1380 OFFCURVE",
"715 1395 OFFCURVE",
"635 1395 CURVE SMOOTH",
"312 1395 OFFCURVE",
"224 1396 OFFCURVE",
"210 1307 CURVE SMOOTH",
"198 1231 OFFCURVE",
"309 1231 OFFCURVE",
"324 1176 CURVE SMOOTH",
"331 1150 OFFCURVE",
"323 1115 OFFCURVE",
"231 543 CURVE SMOOTH",
"170 165 OFFCURVE",
"321 -16 OFFCURVE",
"683 -16 CURVE SMOOTH"
);
}
);
width = 1506;
}
);
note = uni0055;
unicode = 0055;
},
{
glyphname = V;
layers = (
{
layerId = "92A672BF-229C-4BEC-8D25-4DDBB2A38145";
paths = (
{
closed = 1;
nodes = (
"761 -4 OFFCURVE",
"804 58 OFFCURVE",
"857 178 CURVE SMOOTH",
"966 425 OFFCURVE",
"1207 1086 OFFCURVE",
"1279 1223 CURVE SMOOTH",
"1295 1254 OFFCURVE",
"1401 1321 OFFCURVE",
"1401 1346 CURVE SMOOTH",
"1401 1383 OFFCURVE",
"1351 1394 OFFCURVE",
"1233 1394 CURVE SMOOTH",
"1091 1394 OFFCURVE",
"1020 1379.667 OFFCURVE",
"1020 1351 CURVE SMOOTH",
"1020 1324 OFFCURVE",
"1104 1256 OFFCURVE",
"1104 1202.5 CURVE SMOOTH",
"1104 1105 OFFCURVE",
"907 556 OFFCURVE",
"847 423 CURVE SMOOTH",
"802.333 323.667 OFFCURVE",
"796 274 OFFCURVE",
"774 274 CURVE SMOOTH",
"747.333 274 OFFCURVE",
"721 327 OFFCURVE",
"663 500 CURVE SMOOTH",
"594 706 OFFCURVE",
"423 1176 OFFCURVE",
"423 1221.5 CURVE SMOOTH",
"423 1262.926 OFFCURVE",
"479 1323.648 OFFCURVE",
"479 1353 CURVE SMOOTH",
"479 1377 OFFCURVE",
"404.667 1389 OFFCURVE",
"256 1389 CURVE SMOOTH",
"107.333 1389 OFFCURVE",
"33 1379 OFFCURVE",
"33 1360 CURVE SMOOTH",
"33 1333 OFFCURVE",
"154 1262 OFFCURVE",
"188.5 1194 CURVE SMOOTH",
"242 1086 OFFCURVE",
"536 255 OFFCURVE",
"590.5 132 CURVE SMOOTH",
"631 41 OFFCURVE",
"653 -4 OFFCURVE",
"727 -4 CURVE SMOOTH"
);
}
);
width = 1424;
},
{
layerId = "5CBF0BAD-1756-4F16-9711-93DC239D102B";
paths = (
{
closed = 1;
nodes = (
"724 -18 OFFCURVE",
"780 8 OFFCURVE",
"821 61 CURVE SMOOTH",
"971 255 OFFCURVE",
"1266 920 OFFCURVE",
"1403 1125 CURVE SMOOTH",
"1441 1182 OFFCURVE",
"1590 1292 OFFCURVE",
"1595 1322 CURVE SMOOTH",
"1604 1377 OFFCURVE",
"1541 1388 OFFCURVE",
"1427 1388 CURVE SMOOTH",
"1222 1388 OFFCURVE",
"1173 1382 OFFCURVE",
"1165 1330 CURVE SMOOTH",
"1161 1305 OFFCURVE",
"1208 1228 OFFCURVE",
"1202 1190 CURVE SMOOTH",
"1185 1080 OFFCURVE",
"962 622 OFFCURVE",
"896 485 CURVE SMOOTH",
"853 395 OFFCURVE",
"823 353 OFFCURVE",
"803 353 CURVE SMOOTH",
"795 353 OFFCURVE",
"782 397 OFFCURVE",
"760 484 CURVE SMOOTH",
"725 624 OFFCURVE",
"632 1087 OFFCURVE",
"646 1186 CURVE SMOOTH",
"655 1251 OFFCURVE",
"697 1269 OFFCURVE",
"706 1324 CURVE SMOOTH",
"714 1371 OFFCURVE",
"652 1388 OFFCURVE",
"504 1388 CURVE SMOOTH",
"322 1388 OFFCURVE",
"186 1377 OFFCURVE",
"180 1344 CURVE SMOOTH",
"166 1266 OFFCURVE",
"289 1237 OFFCURVE",
"315 1148 CURVE SMOOTH",
"325 1114 OFFCURVE",
"533 182 OFFCURVE",
"553 114 CURVE SMOOTH",
"579 26 OFFCURVE",
"610 -18 OFFCURVE",
"652 -18 CURVE SMOOTH"
);
}
);
width = 1470;
}
);
note = uni0056;
unicode = 0056;
},
{
glyphname = W;
layers = (
{
layerId = "92A672BF-229C-4BEC-8D25-4DDBB2A38145";
paths = (
{
closed = 1;
nodes = (
"674.333 67 OFFCURVE",
"718.333 107.333 OFFCURVE",
"757 188 CURVE SMOOTH",
"811 300 OFFCURVE",
"939 701 OFFCURVE",
"987 823 CURVE SMOOTH",
"1010 882 OFFCURVE",
"1025 911 OFFCURVE",
"1032 911 CURVE SMOOTH",
"1057 911 OFFCURVE",
"1062 860 OFFCURVE",
"1071 841 CURVE SMOOTH",
"1111 757 OFFCURVE",
"1233 298 OFFCURVE",
"1268 213 CURVE SMOOTH",
"1307.333 117 OFFCURVE",
"1349.667 69 OFFCURVE",
"1395 69 CURVE SMOOTH",
"1446.556 69 OFFCURVE",
"1500.451 128.249 OFFCURVE",
"1546 231 CURVE SMOOTH",
"1624.324 407.685 OFFCURVE",
"1758.52 890.052 OFFCURVE",
"1817 1043 CURVE SMOOTH",
"1856 1133 OFFCURVE",
"1952 1265 OFFCURVE",
"1956 1310 CURVE SMOOTH",
"1959 1364 OFFCURVE",
"1896 1386 OFFCURVE",
"1823 1386 CURVE SMOOTH",
"1726.333 1386 OFFCURVE",
"1678 1355 OFFCURVE",
"1678 1293 CURVE SMOOTH",
"1678 1203 OFFCURVE",
"1695 1169 OFFCURVE",
"1695 1137 CURVE SMOOTH",
"1695 1069 OFFCURVE",
"1641.333 871 OFFCURVE",
"1534 543 CURVE SMOOTH",
"1508.667 465 OFFCURVE",
"1483.667 426 OFFCURVE",
"1459 426 CURVE SMOOTH",
"1429 426 OFFCURVE",
"1406.667 443.167 OFFCURVE",
"1392 477.5 CURVE SMOOTH",
"1354 566 OFFCURVE",
"1202 1066 OFFCURVE",
"1202 1120 CURVE SMOOTH",
"1202 1158 OFFCURVE",
"1222 1185 OFFCURVE",
"1222 1234 CURVE SMOOTH",
"1222 1299 OFFCURVE",
"1109 1358 OFFCURVE",
"1025 1356 CURVE SMOOTH",
"940 1354 OFFCURVE",
"838 1303 OFFCURVE",
"838 1221 CURVE SMOOTH",
"838 1156 OFFCURVE",
"884 1100 OFFCURVE",
"884 1045 CURVE SMOOTH",
"884 940 OFFCURVE",
"803 551 OFFCURVE",
"756.5 474.5 CURVE SMOOTH",
"735.5 440.167 OFFCURVE",
"715 423 OFFCURVE",
"695 423 CURVE SMOOTH",
"663.667 423 OFFCURVE",
"633.333 468 OFFCURVE",
"604 558 CURVE SMOOTH",
"496.667 886 OFFCURVE",
"436 1092 OFFCURVE",
"436 1177 CURVE SMOOTH",
"436 1262 OFFCURVE",
"455 1276 OFFCURVE",
"455 1308 CURVE SMOOTH",
"455 1343 OFFCURVE",
"408.667 1380 OFFCURVE",
"210 1380 CURVE SMOOTH",
"153 1380 OFFCURVE",
"100 1343 OFFCURVE",
"100 1305 CURVE SMOOTH",
"100 1284 OFFCURVE",
"218 1079 OFFCURVE",
"245.5 1004.5 CURVE SMOOTH",
"268.5 942.833 OFFCURVE",
"364 617 OFFCURVE",
"432 391 CURVE SMOOTH",
"482 209 OFFCURVE",
"553 67 OFFCURVE",
"625 67 CURVE SMOOTH"
);
}
);
width = 2044;
},
{
layerId = "5CBF0BAD-1756-4F16-9711-93DC239D102B";
paths = (
{
closed = 1;
nodes = (
"702 5 OFFCURVE",
"760 53 OFFCURVE",
"797 113 CURVE SMOOTH",
"835 172 OFFCURVE",
"1007 575 OFFCURVE",
"1084 755 CURVE SMOOTH",
"1101 796 OFFCURVE",
"1116 817 OFFCURVE",
"1120 817 CURVE SMOOTH",
"1124 817 OFFCURVE",
"1129 800 OFFCURVE",
"1136 764 CURVE SMOOTH",
"1168 607 OFFCURVE",
"1235 183 OFFCURVE",
"1246 143 CURVE SMOOTH",
"1272 50 OFFCURVE",
"1294 10 OFFCURVE",
"1357 10 CURVE SMOOTH",
"1441 10 OFFCURVE",
"1503 85 OFFCURVE",
"1552 184 CURVE SMOOTH",
"1599 282 OFFCURVE",
"1675 480 OFFCURVE",
"1865 932 CURVE SMOOTH",
"1891 993 OFFCURVE",
"2054 1257 OFFCURVE",
"2059 1288 CURVE SMOOTH",
"2066 1336 OFFCURVE",
"2026 1360 OFFCURVE",
"1940 1360 CURVE SMOOTH",
"1830 1360 OFFCURVE",
"1707 1310 OFFCURVE",
"1692 1208 CURVE SMOOTH",
"1682 1141 OFFCURVE",
"1695 1077 OFFCURVE",
"1685 1013 CURVE SMOOTH",
"1671 909 OFFCURVE",
"1589 717 OFFCURVE",
"1542 603 CURVE SMOOTH",
"1520 550 OFFCURVE",
"1486 520 OFFCURVE",
"1473 520 CURVE SMOOTH",
"1461 520 OFFCURVE",
"1454 540 OFFCURVE",
"1446 581 CURVE SMOOTH",
"1413 769 OFFCURVE",
"1391 886 OFFCURVE",
"1387 978 CURVE SMOOTH",
"1385 1017 OFFCURVE",
"1387 1062 OFFCURVE",
"1393 1101 CURVE SMOOTH",
"1418 1251 OFFCURVE",
"1370 1340 OFFCURVE",
"1244 1340 CURVE SMOOTH",
"1108 1340 OFFCURVE",
"1026 1297 OFFCURVE",
"1005 1148 CURVE SMOOTH",
"998 1097 OFFCURVE",
"988 987 OFFCURVE",
"977 941 CURVE SMOOTH",
"940 788 OFFCURVE",
"914 715 OFFCURVE",
"872 629 CURVE SMOOTH",
"850 584 OFFCURVE",
"821 527 OFFCURVE",
"801 527 CURVE SMOOTH",
"788 527 OFFCURVE",
"774 547 OFFCURVE",
"763 579 CURVE SMOOTH",
"731 672 OFFCURVE",
"708 865 OFFCURVE",
"724 978 CURVE SMOOTH",
"738 1075 OFFCURVE",
"759 1148 OFFCURVE",
"757 1203 CURVE SMOOTH",
"752 1330 OFFCURVE",
"656 1369 OFFCURVE",
"418 1369 CURVE SMOOTH",
"355 1369 OFFCURVE",
"311 1329 OFFCURVE",
"305 1294 CURVE SMOOTH",
"300 1257 OFFCURVE",
"388 1059 OFFCURVE",
"399 993 CURVE SMOOTH",
"424 847 OFFCURVE",
"511 157 OFFCURVE",
"534 96 CURVE SMOOTH",
"558 36 OFFCURVE",
"599 5 OFFCURVE",
"657 5 CURVE SMOOTH"
);
}
);
width = 2072;
}
);
note = uni0057;
unicode = 0057;
},
{
glyphname = X;
layers = (
{
layerId = "92A672BF-229C-4BEC-8D25-4DDBB2A38145";
paths = (
{
closed = 1;
nodes = (
"404 3 OFFCURVE",
"462 11 OFFCURVE",
"462 45 CURVE SMOOTH",
"462 57 OFFCURVE",
"395 98 OFFCURVE",
"395 123 CURVE SMOOTH",
"395 178 OFFCURVE",
"620 550 OFFCURVE",
"663 550 CURVE SMOOTH",
"709 550 OFFCURVE",
"938 179 OFFCURVE",
"938 133.5 CURVE SMOOTH",
"938 107 OFFCURVE",
"905 75 OFFCURVE",
"898 43 CURVE SMOOTH",
"890 8 OFFCURVE",
"936 3 OFFCURVE",
"1065 3 CURVE SMOOTH",
"1259 3 OFFCURVE",
"1356 17.667 OFFCURVE",
"1356 47 CURVE SMOOTH",
"1356 81 OFFCURVE",
"1212 155 OFFCURVE",
"1174 204 CURVE SMOOTH",
"942 503 OFFCURVE",
"839 691.333 OFFCURVE",
"839 750 CURVE SMOOTH",
"839 808.667 OFFCURVE",
"933.333 954.333 OFFCURVE",
"1122 1187 CURVE SMOOTH",
"1166 1242 OFFCURVE",
"1328 1324 OFFCURVE",
"1328 1352 CURVE SMOOTH",
"1328 1380 OFFCURVE",
"1263 1394 OFFCURVE",
"1133 1394 CURVE SMOOTH",
"1003 1394 OFFCURVE",
"944 1385 OFFCURVE",
"944 1352 CURVE SMOOTH",
"944 1335 OFFCURVE",
"1010 1293 OFFCURVE",
"1010 1270 CURVE SMOOTH",
"1010 1215 OFFCURVE",
"802 883 OFFCURVE",
"759 883 CURVE SMOOTH",
"714 883 OFFCURVE",
"509 1210 OFFCURVE",
"509 1262 CURVE SMOOTH",
"509 1284 OFFCURVE",
"563 1325 OFFCURVE",
"563 1345 CURVE SMOOTH",
"563 1373 OFFCURVE",
"531.333 1387 OFFCURVE",
"468 1387 CURVE SMOOTH",
"197 1384 OFFCURVE",
"93 1376 OFFCURVE",
"93 1340 CURVE SMOOTH",
"93 1312 OFFCURVE",
"222 1259 OFFCURVE",
"260 1214 CURVE SMOOTH",
"327 1134 OFFCURVE",
"598 748 OFFCURVE",
"598 704 CURVE SMOOTH",
"598 639.333 OFFCURVE",
"460 436 OFFCURVE",
"262 187 CURVE SMOOTH",
"217 130 OFFCURVE",
"76 92 OFFCURVE",
"76 37 CURVE SMOOTH",
"76 14 OFFCURVE",
"142.667 3 OFFCURVE",
"276 3 CURVE SMOOTH"
);
}
);
width = 1428;
},
{
layerId = "5CBF0BAD-1756-4F16-9711-93DC239D102B";
paths = (
{
closed = 1;
nodes = (
"380 -1 OFFCURVE",
"459 15 OFFCURVE",
"465 58 CURVE SMOOTH",
"469 85 OFFCURVE",
"432 148 OFFCURVE",
"443 218 CURVE SMOOTH",
"451 269 OFFCURVE",
"652 522 OFFCURVE",
"707 522 CURVE SMOOTH",
"746 522 OFFCURVE",
"870 229 OFFCURVE",
"861 172 CURVE SMOOTH",
"854 126 OFFCURVE",
"821 111 OFFCURVE",
"813 60 CURVE SMOOTH",
"805 6 OFFCURVE",
"845 0 OFFCURVE",
"1046 -1 CURVE SMOOTH",
"1194 -2 OFFCURVE",
"1351 -8 OFFCURVE",
"1364 64 CURVE SMOOTH",
"1372 110 OFFCURVE",
"1249 179 OFFCURVE",
"1213 232 CURVE SMOOTH",
"1158 313 OFFCURVE",
"941 693 OFFCURVE",
"948 732 CURVE SMOOTH",
"957 780 OFFCURVE",
"1081 936 OFFCURVE",
"1274 1141 CURVE SMOOTH",
"1349 1221 OFFCURVE",
"1516 1257 OFFCURVE",
"1528 1340 CURVE SMOOTH",
"1533 1374 OFFCURVE",
"1449 1388 OFFCURVE",
"1275 1388 CURVE SMOOTH",
"1116 1388 OFFCURVE",
"1083 1375 OFFCURVE",
"1079 1347 CURVE SMOOTH",
"1072 1300 OFFCURVE",
"1115 1289 OFFCURVE",
"1102 1208 CURVE SMOOTH",
"1092 1145 OFFCURVE",
"911 915 OFFCURVE",
"846 915 CURVE SMOOTH",
"830 915 OFFCURVE",
"702 1171 OFFCURVE",
"708 1210 CURVE SMOOTH",
"713 1243 OFFCURVE",
"753 1293 OFFCURVE",
"756 1311 CURVE SMOOTH",
"768 1383 OFFCURVE",
"741 1394 OFFCURVE",
"626 1394 CURVE SMOOTH",
"435 1394 OFFCURVE",
"230 1402 OFFCURVE",
"219 1331 CURVE SMOOTH",
"213 1293 OFFCURVE",
"353 1188 OFFCURVE",
"393 1120 CURVE SMOOTH",
"536 877 OFFCURVE",
"604 734 OFFCURVE",
"597 689 CURVE SMOOTH",
"587 624 OFFCURVE",
"231 236 OFFCURVE",
"148 177 CURVE SMOOTH",
"54 110 OFFCURVE",
"5 71 OFFCURVE",
"2 55 CURVE SMOOTH",
"-5 17 OFFCURVE",
"112 -1 OFFCURVE",
"237 -1 CURVE SMOOTH"
);
}
);
width = 1458;
}
);
note = uni0058;
unicode = 0058;
},
{
glyphname = Y;
layers = (
{
anchors = (
{
name = top;
position = "{696, 1393}";
}
);
layerId = "92A672BF-229C-4BEC-8D25-4DDBB2A38145";
paths = (
{
closed = 1;
nodes = (
"858 -7 OFFCURVE",
"923 -14 OFFCURVE",
"923 32 CURVE SMOOTH",
"923 68.531 OFFCURVE",
"834.213 90.412 OFFCURVE",
"802.5 129.5 CURVE SMOOTH",
"788.167 147.167 OFFCURVE",
"781 178 OFFCURVE",
"781 222 CURVE SMOOTH",
"781 640 OFFCURVE",
"863 803 OFFCURVE",
"1119 1184 CURVE SMOOTH",
"1160.46 1245.63 OFFCURVE",
"1294 1317.351 OFFCURVE",
"1294 1360 CURVE SMOOTH",
"1294 1383.333 OFFCURVE",
"1254 1395 OFFCURVE",
"1174 1395 CURVE SMOOTH",
"1012 1395 OFFCURVE",
"933 1383 OFFCURVE",
"933 1349 CURVE SMOOTH",
"933 1321 OFFCURVE",
"973 1282 OFFCURVE",
"973 1247 CURVE SMOOTH",
"973 1166 OFFCURVE",
"770 739 OFFCURVE",
"709 739 CURVE SMOOTH",
"666 739 OFFCURVE",
"438 1193 OFFCURVE",
"438 1258 CURVE SMOOTH",
"438 1278 OFFCURVE",
"492 1325 OFFCURVE",
"492 1341 CURVE SMOOTH",
"492 1370.333 OFFCURVE",
"454 1385 OFFCURVE",
"378 1385 CURVE SMOOTH",
"233 1385 OFFCURVE",
"63 1386 OFFCURVE",
"63 1329.5 CURVE SMOOTH",
"63 1307.833 OFFCURVE",
"82.833 1286.5 OFFCURVE",
"122.5 1265.5 CURVE SMOOTH",
"279 1183 OFFCURVE",
"574 637 OFFCURVE",
"574 386.5 CURVE SMOOTH",
"574 275.5 OFFCURVE",
"568.333 204.667 OFFCURVE",
"557 174 CURVE SMOOTH",
"535.487 115.789 OFFCURVE",
"435 72.909 OFFCURVE",
"435 27 CURVE SMOOTH",
"435 7 OFFCURVE",
"498.333 -3 OFFCURVE",
"625 -3 CURVE SMOOTH"
);
}
);
width = 1340;
},
{
anchors = (
{
name = top;
position = "{845, 1370}";
}
);
layerId = "5CBF0BAD-1756-4F16-9711-93DC239D102B";
paths = (
{
closed = 1;
nodes = (
"867 -23 OFFCURVE",
"908 -15 OFFCURVE",
"917 31 CURVE SMOOTH",
"923 63 OFFCURVE",
"792 129 OFFCURVE",
"813 258 CURVE SMOOTH",
"826 339 OFFCURVE",
"837 428 OFFCURVE",
"864 503 CURVE SMOOTH",
"944 726 OFFCURVE",
"1124 913 OFFCURVE",
"1316 1143 CURVE SMOOTH",
"1385 1226 OFFCURVE",
"1494 1243 OFFCURVE",
"1508 1338 CURVE SMOOTH",
"1513 1372 OFFCURVE",
"1474 1389 OFFCURVE",
"1391 1389 CURVE SMOOTH",
"1138 1389 OFFCURVE",
"1085 1352 OFFCURVE",
"1078 1307 CURVE SMOOTH",
"1070 1254 OFFCURVE",
"1107 1196 OFFCURVE",
"1097 1134 CURVE SMOOTH",
"1086 1065 OFFCURVE",
"859 749 OFFCURVE",
"809 749 CURVE SMOOTH",
"768 749 OFFCURVE",
"652 1151 OFFCURVE",
"662 1214 CURVE SMOOTH",
"668 1251 OFFCURVE",
"691 1283 OFFCURVE",
"697 1320 CURVE SMOOTH",
"705 1368 OFFCURVE",
"661 1392 OFFCURVE",
"565 1392 CURVE SMOOTH",
"291 1392 OFFCURVE",
"195 1376 OFFCURVE",
"184 1310 CURVE SMOOTH",
"172 1239 OFFCURVE",
"278 1202 OFFCURVE",
"313 1138 CURVE SMOOTH",
"425 933 OFFCURVE",
"609 594 OFFCURVE",
"572 371 CURVE SMOOTH",
"559 292 OFFCURVE",
"542 228 OFFCURVE",
"512 187 CURVE SMOOTH",
"465 123 OFFCURVE",
"382 79 OFFCURVE",
"375 36 CURVE SMOOTH",
"366 -19 OFFCURVE",
"401 -27 OFFCURVE",
"746 -24 CURVE SMOOTH"
);
}
);
width = 1403;
}
);
note = uni0059;
unicode = 0059;
},
{
glyphname = Z;
layers = (
{
anchors = (
{
name = top;
position = "{608, 1395}";
}
);
layerId = "92A672BF-229C-4BEC-8D25-4DDBB2A38145";
paths = (
{
closed = 1;
nodes = (
"943 -7 LINE SMOOTH",
"1053 -7 OFFCURVE",
"1118.333 7.333 OFFCURVE",
"1139 36 CURVE SMOOTH",
"1178 89 OFFCURVE",
"1187 190 OFFCURVE",
"1187 279 CURVE SMOOTH",
"1187 316.333 OFFCURVE",
"1175 335 OFFCURVE",
"1151 335 CURVE SMOOTH",
"1135 335 OFFCURVE",
"1106 297.667 OFFCURVE",
"1064 223 CURVE SMOOTH",
"996 102 OFFCURVE",
"855 100 OFFCURVE",
"645 100 CURVE SMOOTH",
"487.667 100 OFFCURVE",
"409 107.667 OFFCURVE",
"409 123 CURVE SMOOTH",
"409 155 OFFCURVE",
"1146 1203 OFFCURVE",
"1146 1319 CURVE SMOOTH",
"1146 1349 OFFCURVE",
"1111 1379 OFFCURVE",
"1085 1381 CURVE SMOOTH",
"1038 1385 OFFCURVE",
"718 1393 OFFCURVE",
"691 1394 CURVE SMOOTH",
"304 1395 OFFCURVE",
"185 1391 OFFCURVE",
"163 1369 CURVE SMOOTH",
"134.333 1340.333 OFFCURVE",
"120 1259.333 OFFCURVE",
"120 1126 CURVE SMOOTH",
"120 1085.333 OFFCURVE",
"134.333 1065 OFFCURVE",
"163 1065 CURVE SMOOTH",
"185.667 1065 OFFCURVE",
"211.667 1091 OFFCURVE",
"241 1143 CURVE SMOOTH",
"326 1294 OFFCURVE",
"445 1285 OFFCURVE",
"694 1285 CURVE SMOOTH",
"799.333 1285 OFFCURVE",
"852 1272 OFFCURVE",
"852 1243.5 CURVE SMOOTH",
"852 1203 OFFCURVE",
"109 155 OFFCURVE",
"109 58 CURVE SMOOTH",
"109 3 OFFCURVE",
"186 1 OFFCURVE",
"283 1 CURVE SMOOTH"
);
}
);
width = 1273;
},
{
anchors = (
{
name = top;
position = "{824, 1394}";
}
);
layerId = "5CBF0BAD-1756-4F16-9711-93DC239D102B";
paths = (
{
closed = 1;
nodes = (
"913 -1 LINE SMOOTH",
"996 -1 OFFCURVE",
"1050 14 OFFCURVE",
"1073 45 CURVE SMOOTH",
"1112 97 OFFCURVE",
"1143 180 OFFCURVE",
"1160 295 CURVE SMOOTH",
"1168 348 OFFCURVE",
"1157 375 OFFCURVE",
"1125 375 CURVE SMOOTH",
"1094 375 OFFCURVE",
"839 187 OFFCURVE",
"813 181 CURVE SMOOTH",
"758 168 OFFCURVE",
"666 148 OFFCURVE",
"578 146 CURVE SMOOTH",
"478 144 OFFCURVE",
"429 157 OFFCURVE",
"434 189 CURVE SMOOTH",
"448 276 OFFCURVE",
"1259 1159 OFFCURVE",
"1281 1308 CURVE SMOOTH",
"1287 1349 OFFCURVE",
"1280 1373 OFFCURVE",
"1258 1380 CURVE SMOOTH",
"1235 1387 OFFCURVE",
"1084 1389 OFFCURVE",
"806 1389 CURVE SMOOTH",
"522 1389 OFFCURVE",
"390 1387 OFFCURVE",
"365 1368 CURVE SMOOTH",
"331 1342 OFFCURVE",
"303 1264 OFFCURVE",
"282 1133 CURVE SMOOTH",
"273 1076 OFFCURVE",
"284 1047 OFFCURVE",
"316 1047 CURVE SMOOTH",
"337 1047 OFFCURVE",
"386 1064 OFFCURVE",
"439 1100 CURVE SMOOTH",
"540 1168 OFFCURVE",
"588 1243 OFFCURVE",
"750 1245 CURVE SMOOTH",
"826 1246 OFFCURVE",
"930 1230 OFFCURVE",
"924 1190 CURVE SMOOTH",
"913 1117 OFFCURVE",
"67 223 OFFCURVE",
"46 89 CURVE SMOOTH",
"33 8 OFFCURVE",
"82 -1 OFFCURVE",
"181 -1 CURVE SMOOTH"
);
}
);
width = 1278;
}
);
note = uni005A;
unicode = 005A;
},
{
glyphname = a;
layers = (
{
anchors = (
{
name = top;
position = "{534, 972}";
}
);
layerId = "92A672BF-229C-4BEC-8D25-4DDBB2A38145";
paths = (
{
closed = 1;
nodes = (
"430 -20 OFFCURVE",
"628 82 OFFCURVE",
"642 82 CURVE SMOOTH",
"655 82 OFFCURVE",
"752 -9 OFFCURVE",
"791 -9 CURVE SMOOTH",
"850.564 -9 OFFCURVE",
"973 18.778 OFFCURVE",
"973 65 CURVE SMOOTH",
"973 93 OFFCURVE",
"861 131 OFFCURVE",
"844 174 CURVE SMOOTH",
"836 196 OFFCURVE",
"836 350 OFFCURVE",
"836 485 CURVE SMOOTH",
"836 820 OFFCURVE",
"804 974 OFFCURVE",
"503 974 CURVE SMOOTH",
"334 974 OFFCURVE",
"125 911 OFFCURVE",
"125 780 CURVE SMOOTH",
"125 728.969 OFFCURVE",
"157.836 689 OFFCURVE",
"186 689 CURVE SMOOTH",
"314 689 OFFCURVE",
"324 875 OFFCURVE",
"465 875 CURVE SMOOTH",
"566.333 875 OFFCURVE",
"623.333 829.667 OFFCURVE",
"622 731 CURVE SMOOTH",
"618 590 OFFCURVE",
"605 564 OFFCURVE",
"476 531.5 CURVE SMOOTH",
"231 470 OFFCURVE",
"84 421 OFFCURVE",
"84 219 CURVE SMOOTH",
"84 64.333 OFFCURVE",
"176.667 -20 OFFCURVE",
"358 -20 CURVE SMOOTH"
);
},
{
closed = 1;
nodes = (
"283 94 OFFCURVE",
"269 159 OFFCURVE",
"271 262 CURVE SMOOTH",
"273 357 OFFCURVE",
"420 462 OFFCURVE",
"593 462 CURVE SMOOTH",
"629 462 OFFCURVE",
"646 453 OFFCURVE",
"646 421 CURVE SMOOTH",
"646 373 OFFCURVE",
"646 326 OFFCURVE",
"646 278 CURVE SMOOTH",
"646 167 OFFCURVE",
"530 94 OFFCURVE",
"400 94 CURVE SMOOTH"
);
}
);
width = 1050;
},
{
anchors = (
{
name = top;
position = "{630, 979}";
}
);
layerId = "5CBF0BAD-1756-4F16-9711-93DC239D102B";
paths = (
{
closed = 1;
nodes = (
"512 -15 OFFCURVE",
"589 148 OFFCURVE",
"622 148 CURVE SMOOTH",
"650 148 OFFCURVE",
"652 0 OFFCURVE",
"722 0 CURVE SMOOTH",
"947 0 OFFCURVE",
"1039 60 OFFCURVE",
"1039 140 CURVE SMOOTH",
"1039 178 OFFCURVE",
"1013 195 OFFCURVE",
"988 195 CURVE SMOOTH",
"954 195 OFFCURVE",
"906 212 OFFCURVE",
"906 257 CURVE SMOOTH",
"906 460 OFFCURVE",
"1006 725 OFFCURVE",
"1004 837 CURVE SMOOTH",
"1003 892 OFFCURVE",
"984 915 OFFCURVE",
"931 915 CURVE SMOOTH",
"899 915 OFFCURVE",
"881 903 OFFCURVE",
"844 903 CURVE SMOOTH",
"804 903 OFFCURVE",
"769 938 OFFCURVE",
"718 938 CURVE SMOOTH",
"537 938 OFFCURVE",
"394 883 OFFCURVE",
"310 821 CURVE SMOOTH",
"245 773 OFFCURVE",
"161 666 OFFCURVE",
"122 590 CURVE SMOOTH",
"83 514 OFFCURVE",
"58 418 OFFCURVE",
"58 302 CURVE SMOOTH",
"58 140 OFFCURVE",
"157 -15 OFFCURVE",
"306 -15 CURVE SMOOTH"
);
},
{
closed = 1;
nodes = (
"339 159 OFFCURVE",
"306 320 OFFCURVE",
"306 388 CURVE SMOOTH",
"306 523 OFFCURVE",
"418 810 OFFCURVE",
"617 810 CURVE SMOOTH",
"695 810 OFFCURVE",
"723 761 OFFCURVE",
"723 700 CURVE SMOOTH",
"723 558 OFFCURVE",
"680 451 OFFCURVE",
"636 311 CURVE SMOOTH",
"614 240 OFFCURVE",
"525 159 OFFCURVE",
"401 159 CURVE SMOOTH"
);
}
);
width = 1109;
}
);
note = uni0061;
unicode = 0061;
},
{
glyphname = ae;
layers = (
{
layerId = "92A672BF-229C-4BEC-8D25-4DDBB2A38145";
paths = (
{
closed = 1;
nodes = (
"1215 -9 OFFCURVE",
"1431 76 OFFCURVE",
"1431 173 CURVE SMOOTH",
"1431 192 OFFCURVE",
"1422 202 OFFCURVE",
"1403 202 CURVE SMOOTH",
"1388 202 OFFCURVE",
"1211 111 OFFCURVE",
"1114 111 CURVE SMOOTH",
"947.333 111 OFFCURVE",
"847 231.333 OFFCURVE",
"847 406 CURVE SMOOTH",
"847 444.667 OFFCURVE",
"869.333 469 OFFCURVE",
"914 479 CURVE SMOOTH",
"1000 498 OFFCURVE",
"1347 497 OFFCURVE",
"1413 533 CURVE SMOOTH",
"1439 547 OFFCURVE",
"1452 579 OFFCURVE",
"1452 630 CURVE SMOOTH",
"1452 827 OFFCURVE",
"1302 969 OFFCURVE",
"1075 969 CURVE SMOOTH",
"965.756 969 OFFCURVE",
"818.371 881 OFFCURVE",
"767 881 CURVE SMOOTH",
"740 881 OFFCURVE",
"638 965 OFFCURVE",
"489 965 CURVE SMOOTH",
"338 965 OFFCURVE",
"144 899 OFFCURVE",
"144 766 CURVE SMOOTH",
"144 725 OFFCURVE",
"171 692 OFFCURVE",
"224 692 CURVE SMOOTH",
"343 692 OFFCURVE",
"296 871 OFFCURVE",
"488.5 871 CURVE SMOOTH",
"568 871 OFFCURVE",
"644 797 OFFCURVE",
"644 648 CURVE SMOOTH",
"644 567 OFFCURVE",
"578 549 OFFCURVE",
"480 532 CURVE SMOOTH",
"258 494 OFFCURVE",
"83 424 OFFCURVE",
"83 237 CURVE SMOOTH",
"83 81 OFFCURVE",
"184 -7 OFFCURVE",
"361.5 -7 CURVE SMOOTH",
"539 -7 OFFCURVE",
"682 135 OFFCURVE",
"705 135 CURVE SMOOTH",
"737 135 OFFCURVE",
"852 -9 OFFCURVE",
"1092 -9 CURVE SMOOTH"
);
},
{
closed = 1;
nodes = (
"332 131 OFFCURVE",
"285 164 OFFCURVE",
"285 266 CURVE SMOOTH",
"285 420 OFFCURVE",
"343 460 OFFCURVE",
"617 479 CURVE SMOOTH",
"658 482 OFFCURVE",
"675 435 OFFCURVE",
"678 270 CURVE SMOOTH",
"678 202 OFFCURVE",
"540.667 131 OFFCURVE",
"442 131 CURVE SMOOTH"
);
},
{
closed = 1;
nodes = (
"838 542 OFFCURVE",
"815 556.667 OFFCURVE",
"815 584 CURVE SMOOTH",
"815 746 OFFCURVE",
"906 857 OFFCURVE",
"1031 857 CURVE SMOOTH",
"1163 857 OFFCURVE",
"1232 802 OFFCURVE",
"1232 622 CURVE SMOOTH",
"1232 568 OFFCURVE",
"1189 547 OFFCURVE",
"884 543 CURVE SMOOTH"
);
}
);
width = 1566;
},
{
layerId = "5CBF0BAD-1756-4F16-9711-93DC239D102B";
paths = (
{
closed = 1;
nodes = (
"1135 -21 OFFCURVE",
"1434 62 OFFCURVE",
"1434 170 CURVE SMOOTH",
"1434 199 OFFCURVE",
"1412 213 OFFCURVE",
"1392 210 CURVE SMOOTH",
"1330 201 OFFCURVE",
"1244 152 OFFCURVE",
"1166 152 CURVE SMOOTH",
"1016 152 OFFCURVE",
"951 213 OFFCURVE",
"951 305 CURVE SMOOTH",
"951 343 OFFCURVE",
"982 387 OFFCURVE",
"1023 396 CURVE SMOOTH",
"1188 431 OFFCURVE",
"1341 485 OFFCURVE",
"1460 557 CURVE SMOOTH",
"1497 579 OFFCURVE",
"1539 656 OFFCURVE",
"1539 720 CURVE SMOOTH",
"1539 900 OFFCURVE",
"1422 956 OFFCURVE",
"1226 956 CURVE SMOOTH",
"1089 956 OFFCURVE",
"1023 866 OFFCURVE",
"983 866 CURVE SMOOTH",
"959 866 OFFCURVE",
"959 872 OFFCURVE",
"954 915 CURVE SMOOTH",
"951 941 OFFCURVE",
"928 941 OFFCURVE",
"894 941 CURVE SMOOTH",
"827 941 OFFCURVE",
"869 922 OFFCURVE",
"796 922 CURVE SMOOTH",
"721 922 OFFCURVE",
"746 933 OFFCURVE",
"633 933 CURVE SMOOTH",
"514 933 OFFCURVE",
"458 892 OFFCURVE",
"411 866 CURVE SMOOTH",
"332 822 OFFCURVE",
"279 784 OFFCURVE",
"205 689 CURVE SMOOTH",
"151 619 OFFCURVE",
"67 433 OFFCURVE",
"62 252 CURVE SMOOTH",
"55 91 OFFCURVE",
"176 -18 OFFCURVE",
"350 -18 CURVE SMOOTH",
"600 -18 OFFCURVE",
"660 176 OFFCURVE",
"706 178 CURVE SMOOTH",
"730 179 OFFCURVE",
"772 -21 OFFCURVE",
"999 -21 CURVE SMOOTH"
);
},
{
closed = 1;
nodes = (
"375 152 OFFCURVE",
"324 316 OFFCURVE",
"324 388 CURVE SMOOTH",
"324 515 OFFCURVE",
"475 820 OFFCURVE",
"629 820 CURVE SMOOTH",
"697 820 OFFCURVE",
"771 797 OFFCURVE",
"771 745 CURVE SMOOTH",
"771 668 OFFCURVE",
"688 152 OFFCURVE",
"443 152 CURVE SMOOTH"
);
},
{
closed = 1;
nodes = (
"1002 499 OFFCURVE",
"970 507 OFFCURVE",
"970 528 CURVE SMOOTH",
"968 669 OFFCURVE",
"1091 834 OFFCURVE",
"1195 834 CURVE SMOOTH",
"1266 834 OFFCURVE",
"1308 807 OFFCURVE",
"1308 720 CURVE SMOOTH",
"1308 650 OFFCURVE",
"1195 508 OFFCURVE",
"1030 500 CURVE SMOOTH"
);
}
);
width = 1586;
}
);
note = uni00E6;
unicode = 00E6;
},
{
glyphname = b;
layers = (
{
layerId = "92A672BF-229C-4BEC-8D25-4DDBB2A38145";
paths = (
{
closed = 1;
nodes = (
"878 -13 OFFCURVE",
"1048 201 OFFCURVE",
"1048 474 CURVE SMOOTH",
"1048 757 OFFCURVE",
"897 945 OFFCURVE",
"676 945 CURVE SMOOTH",
"519 945 OFFCURVE",
"428 877 OFFCURVE",
"397 877 CURVE SMOOTH",
"370.333 877 OFFCURVE",
"357 956.167 OFFCURVE",
"357 1114.5 CURVE SMOOTH",
"357 1325 OFFCURVE",
"375 1455 OFFCURVE",
"264 1455 CURVE SMOOTH",
"193 1455 OFFCURVE",
"47 1433 OFFCURVE",
"47 1402 CURVE SMOOTH",
"47 1355 OFFCURVE",
"130 1346 OFFCURVE",
"151 1306 CURVE SMOOTH",
"183 1245 OFFCURVE",
"174 1126 OFFCURVE",
"170 697 CURVE SMOOTH",
"165 243 OFFCURVE",
"154 181 OFFCURVE",
"154 124 CURVE SMOOTH",
"154 56 OFFCURVE",
"180 22 OFFCURVE",
"232 22 CURVE SMOOTH",
"256 22 OFFCURVE",
"276 33 OFFCURVE",
"311 33 CURVE SMOOTH",
"418 33 OFFCURVE",
"482 -13 OFFCURVE",
"612 -13 CURVE SMOOTH"
);
},
{
closed = 1;
nodes = (
"392 72 OFFCURVE",
"359 139 OFFCURVE",
"357 358 CURVE SMOOTH",
"353 765 OFFCURVE",
"412 860 OFFCURVE",
"602 860 CURVE SMOOTH",
"752 860 OFFCURVE",
"845 715 OFFCURVE",
"846 458 CURVE SMOOTH",
"846 278 OFFCURVE",
"766 72 OFFCURVE",
"605 72 CURVE SMOOTH"
);
}
);
width = 1149;
},
{
layerId = "5CBF0BAD-1756-4F16-9711-93DC239D102B";
paths = (
{
closed = 1;
nodes = (
"867 -20 OFFCURVE",
"1114 310 OFFCURVE",
"1114 558 CURVE SMOOTH",
"1114 777 OFFCURVE",
"1036 914 OFFCURVE",
"826 914 CURVE SMOOTH",
"709 914 OFFCURVE",
"594 815 OFFCURVE",
"559 815 CURVE SMOOTH",
"529 815 OFFCURVE",
"549 999 OFFCURVE",
"582 1163 CURVE SMOOTH",
"632 1412 OFFCURVE",
"630 1455 OFFCURVE",
"556 1455 CURVE SMOOTH",
"405 1455 OFFCURVE",
"267 1414 OFFCURVE",
"267 1361 CURVE SMOOTH",
"267 1311 OFFCURVE",
"350 1258 OFFCURVE",
"354 1202 CURVE SMOOTH",
"357 1164 OFFCURVE",
"296 865 OFFCURVE",
"243 607 CURVE SMOOTH",
"179 297 OFFCURVE",
"134 243 OFFCURVE",
"133 107 CURVE SMOOTH",
"133 50 OFFCURVE",
"194 0 OFFCURVE",
"268 0 CURVE SMOOTH",
"333 0 OFFCURVE",
"369 12 OFFCURVE",
"416 12 CURVE SMOOTH",
"449 12 OFFCURVE",
"550 -20 OFFCURVE",
"590 -20 CURVE SMOOTH"
);
},
{
closed = 1;
nodes = (
"475 110 OFFCURVE",
"421 160 OFFCURVE",
"424 305 CURVE SMOOTH",
"428 520 OFFCURVE",
"590 759 OFFCURVE",
"753 759 CURVE SMOOTH",
"825 759 OFFCURVE",
"874 724 OFFCURVE",
"874 480 CURVE SMOOTH",
"874 297 OFFCURVE",
"701 110 OFFCURVE",
"572 110 CURVE SMOOTH"
);
}
);
width = 1200;
}
);
note = uni0062;
unicode = 0062;
},
{
glyphname = c;
layers = (
{
layerId = "92A672BF-229C-4BEC-8D25-4DDBB2A38145";
paths = (
{
closed = 1;
nodes = (
"715.667 -18 OFFCURVE",
"888 86.333 OFFCURVE",
"888 153 CURVE SMOOTH",
"888 178 OFFCURVE",
"882 189 OFFCURVE",
"864 189 CURVE SMOOTH",
"827 189 OFFCURVE",
"685 93 OFFCURVE",
"600 93 CURVE SMOOTH",
"396 93 OFFCURVE",
"283 242.5 OFFCURVE",
"283 476.5 CURVE SMOOTH",
"283 703 OFFCURVE",
"380 871 OFFCURVE",
"529 871 CURVE SMOOTH",
"682 871 OFFCURVE",
"721 682 OFFCURVE",
"813 682 CURVE SMOOTH",
"864 682 OFFCURVE",
"886 738 OFFCURVE",
"887 804 CURVE SMOOTH",
"887 925 OFFCURVE",
"731 967 OFFCURVE",
"582 967 CURVE SMOOTH",
"276 967 OFFCURVE",
"86 763 OFFCURVE",
"86 458.5 CURVE SMOOTH",
"86 157 OFFCURVE",
"247 -18 OFFCURVE",
"569 -18 CURVE SMOOTH"
);
}
);
width = 973;
},
{
layerId = "5CBF0BAD-1756-4F16-9711-93DC239D102B";
paths = (
{
closed = 1;
nodes = (
"687 -20 OFFCURVE",
"867 97 OFFCURVE",
"867 160 CURVE SMOOTH",
"867 195 OFFCURVE",
"854 213 OFFCURVE",
"828 213 CURVE SMOOTH",
"798 213 OFFCURVE",
"680 153 OFFCURVE",
"615 153 CURVE SMOOTH",
"417 153 OFFCURVE",
"380 235 OFFCURVE",
"380 468 CURVE SMOOTH",
"380 645 OFFCURVE",
"494 788 OFFCURVE",
"638 788 CURVE SMOOTH",
"735 788 OFFCURVE",
"772 656 OFFCURVE",
"881 656 CURVE SMOOTH",
"939 656 OFFCURVE",
"969 703 OFFCURVE",
"969 795 CURVE SMOOTH",
"969 897 OFFCURVE",
"829 938 OFFCURVE",
"644 938 CURVE SMOOTH",
"411 938 OFFCURVE",
"129 700 OFFCURVE",
"129 434 CURVE SMOOTH",
"129 123 OFFCURVE",
"210 -20 OFFCURVE",
"532 -20 CURVE SMOOTH"
);
}
);
width = 1005;
}
);
note = uni0063;
unicode = 0063;
},
{
glyphname = ccedilla;
layers = (
{
layerId = "92A672BF-229C-4BEC-8D25-4DDBB2A38145";
paths = (
{
closed = 1;
nodes = (
"571 -430 OFFCURVE",
"714 -341 OFFCURVE",
"714 -247 CURVE SMOOTH",
"714 -226 OFFCURVE",
"695 -202 OFFCURVE",
"620 -120 CURVE SMOOTH",
"594.667 -92 OFFCURVE",
"574.333 -69.667 OFFCURVE",
"559 -53 CURVE",
"663 -42 OFFCURVE",
"834 31 OFFCURVE",
"834 112 CURVE SMOOTH",
"834 139.333 OFFCURVE",
"818 153 OFFCURVE",
"786 153 CURVE SMOOTH",
"772 153 OFFCURVE",
"639 73 OFFCURVE",
"557 73 CURVE SMOOTH",
"377 73 OFFCURVE",
"273 205.833 OFFCURVE",
"273 418.5 CURVE SMOOTH",
"273 631.167 OFFCURVE",
"358 759 OFFCURVE",
"498 759 CURVE SMOOTH",
"659 759 OFFCURVE",
"671 593 OFFCURVE",
"774 593 CURVE SMOOTH",
"812.667 593 OFFCURVE",
"832 630 OFFCURVE",
"832 704 CURVE SMOOTH",
"832 835 OFFCURVE",
"684 867 OFFCURVE",
"504 867 CURVE SMOOTH",
"260 867 OFFCURVE",
"97 656 OFFCURVE",
"97 397 CURVE SMOOTH",
"100 162 OFFCURVE",
"226 -26 OFFCURVE",
"458 -52 CURVE",
"454.667 -58 OFFCURVE",
"453 -62.667 OFFCURVE",
"453 -66 CURVE SMOOTH",
"453 -72 OFFCURVE",
"462.167 -88.833 OFFCURVE",
"480.5 -116.5 CURVE SMOOTH",
"498.833 -144.167 OFFCURVE",
"508 -164 OFFCURVE",
"508 -176 CURVE SMOOTH",
"506 -262 OFFCURVE",
"461 -317 OFFCURVE",
"399 -317 CURVE SMOOTH",
"375 -317 OFFCURVE",
"363 -338.667 OFFCURVE",
"363 -382 CURVE SMOOTH",
"363 -423 OFFCURVE",
"392 -430 OFFCURVE",
"477 -430 CURVE SMOOTH"
);
}
);
width = 983;
},
{
layerId = "5CBF0BAD-1756-4F16-9711-93DC239D102B";
paths = (
{
closed = 1;
nodes = (
"469 -426 OFFCURVE",
"570 -348 OFFCURVE",
"570 -220 CURVE SMOOTH",
"570 -156 OFFCURVE",
"528 -113 OFFCURVE",
"462 -81 CURVE SMOOTH",
"420 -61 OFFCURVE",
"407 -30 OFFCURVE",
"406 -12 CURVE",
"588 -12 OFFCURVE",
"848 54 OFFCURVE",
"848 149 CURVE SMOOTH",
"848 182 OFFCURVE",
"839 222 OFFCURVE",
"791 222 CURVE SMOOTH",
"741 222 OFFCURVE",
"616 149 OFFCURVE",
"567 149 CURVE SMOOTH",
"487 149 OFFCURVE",
"359 221 OFFCURVE",
"359 420 CURVE SMOOTH",
"359 618 OFFCURVE",
"492 782 OFFCURVE",
"606 782 CURVE SMOOTH",
"788 782 OFFCURVE",
"809 652 OFFCURVE",
"865.5 652 CURVE SMOOTH",
"911 652 OFFCURVE",
"966 715 OFFCURVE",
"966 798 CURVE SMOOTH",
"966 896 OFFCURVE",
"936 941 OFFCURVE",
"609 941 CURVE SMOOTH",
"310 941 OFFCURVE",
"102 663 OFFCURVE",
"102 371 CURVE SMOOTH",
"102 90 OFFCURVE",
"186 17 OFFCURVE",
"315 -9 CURVE",
"315 -28 OFFCURVE",
"287 -57 OFFCURVE",
"287 -110 CURVE SMOOTH",
"287 -132 OFFCURVE",
"304 -150 OFFCURVE",
"338 -165 CURVE SMOOTH",
"372 -180 OFFCURVE",
"389 -199 OFFCURVE",
"389 -224 CURVE SMOOTH",
"389 -284 OFFCURVE",
"350 -314 OFFCURVE",
"272 -314 CURVE SMOOTH",
"211 -314 OFFCURVE",
"186 -324 OFFCURVE",
"186 -371 CURVE SMOOTH",
"186 -426 OFFCURVE",
"251 -426 OFFCURVE",
"333 -426 CURVE"
);
}
);
width = 1067;
}
);
note = uni00E7;
unicode = 00E7;
},
{
glyphname = d;
layers = (
{
layerId = "92A672BF-229C-4BEC-8D25-4DDBB2A38145";
paths = (
{
closed = 1;
nodes = (
"629 -18 OFFCURVE",
"725 81 OFFCURVE",
"765 81 CURVE SMOOTH",
"775 81 OFFCURVE",
"831 -8 OFFCURVE",
"906 -8 CURVE SMOOTH",
"969 -8 OFFCURVE",
"1076 8 OFFCURVE",
"1076 63 CURVE SMOOTH",
"1076 97 OFFCURVE",
"974 124 OFFCURVE",
"964 184 CURVE SMOOTH",
"959 213 OFFCURVE",
"956 426 OFFCURVE",
"956 805 CURVE SMOOTH",
"956 1017 OFFCURVE",
"955 1272 OFFCURVE",
"956 1368 CURVE SMOOTH",
"957 1426 OFFCURVE",
"907 1462 OFFCURVE",
"874 1462 CURVE SMOOTH",
"734 1462 OFFCURVE",
"647 1439 OFFCURVE",
"647 1399 CURVE SMOOTH",
"647 1364.185 OFFCURVE",
"732.03 1344.237 OFFCURVE",
"755 1301 CURVE SMOOTH",
"766 1280 OFFCURVE",
"773 1196 OFFCURVE",
"773 1118 CURVE SMOOTH",
"773 1000 OFFCURVE",
"759 941 OFFCURVE",
"713 941 CURVE SMOOTH",
"674 941 OFFCURVE",
"620 956 OFFCURVE",
"570 955 CURVE SMOOTH",
"262 948 OFFCURVE",
"90 752.667 OFFCURVE",
"90 442 CURVE SMOOTH",
"90 202 OFFCURVE",
"221 -18 OFFCURVE",
"444 -18 CURVE SMOOTH"
);
},
{
closed = 1;
nodes = (
"372.333 88 OFFCURVE",
"274 243.667 OFFCURVE",
"274 445 CURVE SMOOTH",
"276 724 OFFCURVE",
"363 872 OFFCURVE",
"534 872 CURVE SMOOTH",
"752 872 OFFCURVE",
"761 814 OFFCURVE",
"761 429 CURVE SMOOTH",
"761 169 OFFCURVE",
"703 88 OFFCURVE",
"515 88 CURVE SMOOTH"
);
}
);
width = 1176;
},
{
layerId = "5CBF0BAD-1756-4F16-9711-93DC239D102B";
paths = (
{
closed = 1;
nodes = (
"531 -26 OFFCURVE",
"635 103 OFFCURVE",
"699 103 CURVE SMOOTH",
"726 103 OFFCURVE",
"796 -15 OFFCURVE",
"871 -15 CURVE SMOOTH",
"1013 -15 OFFCURVE",
"1108 51 OFFCURVE",
"1108 109 CURVE SMOOTH",
"1108 147 OFFCURVE",
"985 183 OFFCURVE",
"985 258 CURVE SMOOTH",
"985 300 OFFCURVE",
"1013 426 OFFCURVE",
"1074 792 CURVE SMOOTH",
"1096 923 OFFCURVE",
"1141 1107 OFFCURVE",
"1147 1306 CURVE SMOOTH",
"1150 1412 OFFCURVE",
"1105 1459 OFFCURVE",
"1003 1459 CURVE SMOOTH",
"922 1459 OFFCURVE",
"798 1396 OFFCURVE",
"798 1343 CURVE SMOOTH",
"798 1331 OFFCURVE",
"817 1311 OFFCURVE",
"855 1278 CURVE SMOOTH",
"906 1233 OFFCURVE",
"901 1152 OFFCURVE",
"871 1035 CURVE SMOOTH",
"853 965 OFFCURVE",
"855 907 OFFCURVE",
"824 907 CURVE SMOOTH",
"781 907 OFFCURVE",
"754 914 OFFCURVE",
"672 914 CURVE SMOOTH",
"375 914 OFFCURVE",
"128 686 OFFCURVE",
"128 363 CURVE SMOOTH",
"128 126 OFFCURVE",
"255 -26 OFFCURVE",
"380 -26 CURVE SMOOTH"
);
},
{
closed = 1;
nodes = (
"381 149 OFFCURVE",
"364 232 OFFCURVE",
"364 425 CURVE SMOOTH",
"364 642 OFFCURVE",
"516 792 OFFCURVE",
"667 792 CURVE SMOOTH",
"751 792 OFFCURVE",
"802 748 OFFCURVE",
"802 581 CURVE SMOOTH",
"802 290 OFFCURVE",
"586 149 OFFCURVE",
"487 149 CURVE SMOOTH"
);
}
);
width = 1218;
}
);
note = uni0064;
unicode = 0064;
},
{
glyphname = eth;
layers = (
{
layerId = "92A672BF-229C-4BEC-8D25-4DDBB2A38145";
paths = (
{
closed = 1;
nodes = (
"853 -29 OFFCURVE",
"1024 178 OFFCURVE",
"1023 504 CURVE SMOOTH",
"1022 908 OFFCURVE",
"789 1189 OFFCURVE",
"789 1220 CURVE SMOOTH",
"789 1262 OFFCURVE",
"825 1308 OFFCURVE",
"825 1349 CURVE SMOOTH",
"825 1376.333 OFFCURVE",
"808.333 1390 OFFCURVE",
"775 1390 CURVE SMOOTH",
"728 1390 OFFCURVE",
"667 1360 OFFCURVE",
"612 1360 CURVE SMOOTH",
"542 1360 OFFCURVE",
"465 1426 OFFCURVE",
"383 1426 CURVE SMOOTH",
"327 1426 OFFCURVE",
"306 1417 OFFCURVE",
"308 1395 CURVE SMOOTH",
"308 1352 OFFCURVE",
"445 1289 OFFCURVE",
"445 1245.5 CURVE SMOOTH",
"445 1202 OFFCURVE",
"380 1185 OFFCURVE",
"380 1145 CURVE SMOOTH",
"380 1109 OFFCURVE",
"446 1100 OFFCURVE",
"542 1100 CURVE SMOOTH",
"644 1100 OFFCURVE",
"719 1037 OFFCURVE",
"719 941 CURVE SMOOTH",
"719 908 OFFCURVE",
"697 898 OFFCURVE",
"585 901 CURVE SMOOTH",
"270 901 OFFCURVE",
"106 733 OFFCURVE",
"106 406 CURVE SMOOTH",
"106 155 OFFCURVE",
"285 -29 OFFCURVE",
"546 -29 CURVE SMOOTH"
);
},
{
closed = 1;
nodes = (
"413.667 51 OFFCURVE",
"313 197.667 OFFCURVE",
"313 431 CURVE SMOOTH",
"313 712 OFFCURVE",
"391 855 OFFCURVE",
"549 855 CURVE SMOOTH",
"736 855 OFFCURVE",
"818 704 OFFCURVE",
"818 494 CURVE SMOOTH",
"818 211 OFFCURVE",
"730 51 OFFCURVE",
"543 51 CURVE SMOOTH"
);
}
);
width = 1152;
},
{
layerId = "5CBF0BAD-1756-4F16-9711-93DC239D102B";
paths = (
{
closed = 1;
nodes = (
"916 -32 OFFCURVE",
"1088 229 OFFCURVE",
"1087 575 CURVE SMOOTH",
"1086 994 OFFCURVE",
"947 1149 OFFCURVE",
"947 1208 CURVE SMOOTH",
"947 1233 OFFCURVE",
"1054 1326 OFFCURVE",
"1052 1364 CURVE SMOOTH",
"1050 1401 OFFCURVE",
"1031 1437 OFFCURVE",
"991 1437 CURVE SMOOTH",
"951 1437 OFFCURVE",
"892 1382 OFFCURVE",
"810 1382 CURVE SMOOTH",
"761 1382 OFFCURVE",
"611 1437 OFFCURVE",
"558 1437 CURVE SMOOTH",
"483 1437 OFFCURVE",
"445 1417 OFFCURVE",
"445 1376 CURVE SMOOTH",
"445 1330 OFFCURVE",
"587 1268 OFFCURVE",
"587 1237 CURVE SMOOTH",
"587 1193 OFFCURVE",
"473 1148 OFFCURVE",
"473 1104 CURVE SMOOTH",
"473 1028 OFFCURVE",
"637 1097 OFFCURVE",
"698 1097 CURVE SMOOTH",
"779 1097 OFFCURVE",
"794 1043 OFFCURVE",
"794 972 CURVE SMOOTH",
"794 929 OFFCURVE",
"739 904 OFFCURVE",
"649 904 CURVE SMOOTH",
"434 904 OFFCURVE",
"177 716 OFFCURVE",
"177 416 CURVE SMOOTH",
"177 189 OFFCURVE",
"266 -32 OFFCURVE",
"567 -32 CURVE SMOOTH"
);
},
{
closed = 1;
nodes = (
"478 100 OFFCURVE",
"416 256 OFFCURVE",
"416 443 CURVE SMOOTH",
"416 668 OFFCURVE",
"570 790 OFFCURVE",
"689 790 CURVE SMOOTH",
"810 790 OFFCURVE",
"840 758 OFFCURVE",
"844 500 CURVE SMOOTH",
"844 274 OFFCURVE",
"732 100 OFFCURVE",
"598 100 CURVE SMOOTH"
);
}
);
width = 1236;
}
);
note = uni00F0;
unicode = 00F0;
},
{
glyphname = e;
layers = (
{
anchors = (
{
name = top;
position = "{510, 972}";
}
);
layerId = "92A672BF-229C-4BEC-8D25-4DDBB2A38145";
paths = (
{
closed = 1;
nodes = (
"700 -19 OFFCURVE",
"873 102 OFFCURVE",
"873 196 CURVE SMOOTH",
"873 218 OFFCURVE",
"861 229 OFFCURVE",
"838 229 CURVE SMOOTH",
"810 229 OFFCURVE",
"660 140 OFFCURVE",
"569 140 CURVE SMOOTH",
"420 140 OFFCURVE",
"385 188 OFFCURVE",
"385 271 CURVE SMOOTH",
"385 330 OFFCURVE",
"461 379 OFFCURVE",
"666 445 CURVE SMOOTH",
"838 500 OFFCURVE",
"976 540 OFFCURVE",
"976 700 CURVE SMOOTH",
"976 883 OFFCURVE",
"809 941 OFFCURVE",
"619 941 CURVE SMOOTH",
"373 941 OFFCURVE",
"115 617 OFFCURVE",
"115 360 CURVE SMOOTH",
"115 95 OFFCURVE",
"236 -19 OFFCURVE",
"552 -19 CURVE SMOOTH"
);
},
{
closed = 1;
nodes = (
"420 514 OFFCURVE",
"385 500 OFFCURVE",
"385 566 CURVE SMOOTH",
"385 669 OFFCURVE",
"497 807 OFFCURVE",
"621 807 CURVE SMOOTH",
"750 807 OFFCURVE",
"768 768 OFFCURVE",
"768 700 CURVE SMOOTH",
"768 648 OFFCURVE",
"752 618 OFFCURVE",
"678 585 CURVE SMOOTH",
"611 555 OFFCURVE",
"553 520 OFFCURVE",
"464 514 CURVE SMOOTH"
);
}
);
width = 1015;
},
{
anchors = (
{
name = top;
position = "{670, 987}";
}
);
layerId = "5CBF0BAD-1756-4F16-9711-93DC239D102B";
paths = (
{
closed = 1;
nodes = (
"700 -19 OFFCURVE",
"873 102 OFFCURVE",
"873 196 CURVE SMOOTH",
"873 218 OFFCURVE",
"861 229 OFFCURVE",
"838 229 CURVE SMOOTH",
"810 229 OFFCURVE",
"660 140 OFFCURVE",
"569 140 CURVE SMOOTH",
"458 140 OFFCURVE",
"385 210 OFFCURVE",
"385 271 CURVE SMOOTH",
"385 354 OFFCURVE",
"461 379 OFFCURVE",
"666 445 CURVE SMOOTH",
"838 500 OFFCURVE",
"976 540 OFFCURVE",
"976 700 CURVE SMOOTH",
"976 883 OFFCURVE",
"809 941 OFFCURVE",
"619 941 CURVE SMOOTH",
"373 941 OFFCURVE",
"135 617 OFFCURVE",
"135 360 CURVE SMOOTH",
"135 95 OFFCURVE",
"236 -19 OFFCURVE",
"552 -19 CURVE SMOOTH"
);
},
{
closed = 1;
nodes = (
"420 514 OFFCURVE",
"385 500 OFFCURVE",
"385 566 CURVE SMOOTH",
"385 669 OFFCURVE",
"497 807 OFFCURVE",
"621 807 CURVE SMOOTH",
"750 807 OFFCURVE",
"768 768 OFFCURVE",
"768 700 CURVE SMOOTH",
"768 648 OFFCURVE",
"752 618 OFFCURVE",
"678 585 CURVE SMOOTH",
"611 555 OFFCURVE",
"553 520 OFFCURVE",
"464 514 CURVE SMOOTH"
);
}
);
width = 1050;
}
);
note = uni0065;
unicode = 0065;
},
{
glyphname = f;
layers = (
{
layerId = "92A672BF-229C-4BEC-8D25-4DDBB2A38145";
paths = (
{
closed = 1;
nodes = (
"217 -319 OFFCURVE",
"361 -244 OFFCURVE",
"361 -192 CURVE SMOOTH",
"361 -131 OFFCURVE",
"401 33 OFFCURVE",
"428 149 CURVE SMOOTH",
"437 187 OFFCURVE",
"443 241 OFFCURVE",
"489 484 CURVE SMOOTH",
"514 617 OFFCURVE",
"545 663 OFFCURVE",
"561 700 CURVE SMOOTH",
"582 747 OFFCURVE",
"777 776 OFFCURVE",
"777 834 CURVE SMOOTH",
"777 924 OFFCURVE",
"695 880 OFFCURVE",
"673 909 CURVE SMOOTH",
"653 935 OFFCURVE",
"599 1035 OFFCURVE",
"599 1083 CURVE SMOOTH",
"599 1142 OFFCURVE",
"678 1290 OFFCURVE",
"743 1290 CURVE SMOOTH",
"777 1290 OFFCURVE",
"837 1251 OFFCURVE",
"914 1251 CURVE SMOOTH",
"966 1251 OFFCURVE",
"1012 1307 OFFCURVE",
"1012 1375 CURVE SMOOTH",
"1012 1445 OFFCURVE",
"952 1483 OFFCURVE",
"777 1483 CURVE SMOOTH",
"552 1483 OFFCURVE",
"430 1274 OFFCURVE",
"333 1033 CURVE SMOOTH",
"299 949 OFFCURVE",
"203 908 OFFCURVE",
"203 872 CURVE SMOOTH",
"203 822 OFFCURVE",
"247 729 OFFCURVE",
"264 673 CURVE SMOOTH",
"273 644 OFFCURVE",
"261 549 OFFCURVE",
"247 446 CURVE SMOOTH",
"226 286 OFFCURVE",
"174 -7 OFFCURVE",
"143 -51 CURVE SMOOTH",
"78 -144 OFFCURVE",
"-42 -171 OFFCURVE",
"-42 -234 CURVE SMOOTH",
"-42 -313 OFFCURVE",
"40 -319 OFFCURVE",
"90 -319 CURVE SMOOTH"
);
}
);
width = 738;
},
{
layerId = "5CBF0BAD-1756-4F16-9711-93DC239D102B";
paths = (
{
closed = 1;
nodes = (
"217 -319 OFFCURVE",
"361 -244 OFFCURVE",
"361 -192 CURVE SMOOTH",
"361 -131 OFFCURVE",
"401 33 OFFCURVE",
"428 149 CURVE SMOOTH",
"437 187 OFFCURVE",
"443 241 OFFCURVE",
"489 484 CURVE SMOOTH",
"514 617 OFFCURVE",
"545 663 OFFCURVE",
"561 700 CURVE SMOOTH",
"582 747 OFFCURVE",
"777 776 OFFCURVE",
"777 834 CURVE SMOOTH",
"777 924 OFFCURVE",
"695 880 OFFCURVE",
"673 909 CURVE SMOOTH",
"653 935 OFFCURVE",
"599 1035 OFFCURVE",
"599 1083 CURVE SMOOTH",
"599 1142 OFFCURVE",
"678 1290 OFFCURVE",
"743 1290 CURVE SMOOTH",
"777 1290 OFFCURVE",
"837 1251 OFFCURVE",
"914 1251 CURVE SMOOTH",
"966 1251 OFFCURVE",
"1012 1307 OFFCURVE",
"1012 1375 CURVE SMOOTH",
"1012 1445 OFFCURVE",
"952 1483 OFFCURVE",
"777 1483 CURVE SMOOTH",
"552 1483 OFFCURVE",
"430 1274 OFFCURVE",
"333 1033 CURVE SMOOTH",
"299 949 OFFCURVE",
"203 908 OFFCURVE",
"203 872 CURVE SMOOTH",
"203 822 OFFCURVE",
"247 729 OFFCURVE",
"264 673 CURVE SMOOTH",
"273 644 OFFCURVE",
"261 549 OFFCURVE",
"247 446 CURVE SMOOTH",
"226 286 OFFCURVE",
"174 -7 OFFCURVE",
"143 -51 CURVE SMOOTH",
"78 -144 OFFCURVE",
"-42 -171 OFFCURVE",
"-42 -234 CURVE SMOOTH",
"-42 -313 OFFCURVE",
"40 -319 OFFCURVE",
"90 -319 CURVE SMOOTH"
);
}
);
width = 795;
}
);
note = uni0066;
unicode = 0066;
},
{
glyphname = g;
layers = (
{
layerId = "92A672BF-229C-4BEC-8D25-4DDBB2A38145";
paths = (
{
closed = 1;
nodes = (
"744 -465 OFFCURVE",
"988 -341 OFFCURVE",
"988 -120.5 CURVE SMOOTH",
"988 78 OFFCURVE",
"834 120 OFFCURVE",
"600 136 CURVE SMOOTH",
"444 146 OFFCURVE",
"307 147 OFFCURVE",
"307 222 CURVE SMOOTH",
"307 303 OFFCURVE",
"383 307 OFFCURVE",
"492 313 CURVE SMOOTH",
"701 322 OFFCURVE",
"887 437 OFFCURVE",
"887 623 CURVE SMOOTH",
"887 700 OFFCURVE",
"877 740 OFFCURVE",
"856 804 CURVE SMOOTH",
"847 832 OFFCURVE",
"882.5 850.5 OFFCURVE",
"935.5 857.5 CURVE SMOOTH",
"988.5 864.5 OFFCURVE",
"1015 887 OFFCURVE",
"1015 925 CURVE SMOOTH",
"1015 953.667 OFFCURVE",
"981.333 968 OFFCURVE",
"914 968 CURVE SMOOTH",
"853 969 OFFCURVE",
"793 969 OFFCURVE",
"732 970 CURVE SMOOTH",
"678 971 OFFCURVE",
"623 971 OFFCURVE",
"569 972 CURVE SMOOTH",
"331 972 OFFCURVE",
"132 853 OFFCURVE",
"132 639 CURVE SMOOTH",
"132 454 OFFCURVE",
"241 386 OFFCURVE",
"241 356 CURVE SMOOTH",
"241 307 OFFCURVE",
"154 276 OFFCURVE",
"154 169 CURVE SMOOTH",
"154 102 OFFCURVE",
"221 78 OFFCURVE",
"221 33 CURVE SMOOTH",
"221 -17 OFFCURVE",
"83 -85 OFFCURVE",
"83 -210.5 CURVE SMOOTH",
"83 -396 OFFCURVE",
"277 -465 OFFCURVE",
"506 -465 CURVE SMOOTH"
);
},
{
closed = 1;
nodes = (
"324 -359 OFFCURVE",
"221 -283 OFFCURVE",
"220 -147 CURVE SMOOTH",
"220 -49 OFFCURVE",
"296 28 OFFCURVE",
"404 28 CURVE SMOOTH",
"771 13 OFFCURVE",
"842 -9 OFFCURVE",
"842 -141 CURVE SMOOTH",
"842 -279 OFFCURVE",
"729 -340 OFFCURVE",
"479 -359 CURVE SMOOTH"
);
},
{
closed = 1;
nodes = (
"355 389 OFFCURVE",
"304 478 OFFCURVE",
"303 667 CURVE SMOOTH",
"303 813 OFFCURVE",
"376 915 OFFCURVE",
"505 915 CURVE SMOOTH",
"612 915 OFFCURVE",
"684 774 OFFCURVE",
"684 657 CURVE SMOOTH",
"684 449 OFFCURVE",
"637 389 OFFCURVE",
"481 389 CURVE SMOOTH"
);
}
);
width = 1085;
},
{
layerId = "5CBF0BAD-1756-4F16-9711-93DC239D102B";
paths = (
{
closed = 1;
nodes = (
"717 -398 OFFCURVE",
"918 -280 OFFCURVE",
"924 -122 CURVE SMOOTH",
"930 48 OFFCURVE",
"890 106 OFFCURVE",
"671 145 CURVE SMOOTH",
"543 168 OFFCURVE",
"400 180 OFFCURVE",
"400 224 CURVE SMOOTH",
"400 263 OFFCURVE",
"427 278 OFFCURVE",
"574 301 CURVE SMOOTH",
"801 336 OFFCURVE",
"920 439 OFFCURVE",
"936 615 CURVE SMOOTH",
"939 646 OFFCURVE",
"935 679 OFFCURVE",
"935 715 CURVE SMOOTH",
"935 779 OFFCURVE",
"943 792 OFFCURVE",
"1019 827 CURVE SMOOTH",
"1045 839 OFFCURVE",
"1060 861 OFFCURVE",
"1060 891 CURVE SMOOTH",
"1060 947 OFFCURVE",
"1023 966 OFFCURVE",
"975 966 CURVE SMOOTH",
"903 962 OFFCURVE",
"830 954 OFFCURVE",
"758 954 CURVE SMOOTH",
"684 954 OFFCURVE",
"685 973 OFFCURVE",
"607 973 CURVE SMOOTH",
"427 973 OFFCURVE",
"239 849 OFFCURVE",
"239 637 CURVE SMOOTH",
"239 458 OFFCURVE",
"349 398 OFFCURVE",
"349 357 CURVE SMOOTH",
"349 320 OFFCURVE",
"229 267 OFFCURVE",
"229 180 CURVE SMOOTH",
"229 94 OFFCURVE",
"274 131 OFFCURVE",
"270 51 CURVE SMOOTH",
"268 21 OFFCURVE",
"67 -73 OFFCURVE",
"67 -190 CURVE SMOOTH",
"67 -337 OFFCURVE",
"193 -398 OFFCURVE",
"456 -398 CURVE SMOOTH"
);
},
{
closed = 1;
nodes = (
"368 -295 OFFCURVE",
"250 -261 OFFCURVE",
"250 -141 CURVE SMOOTH",
"250 -38 OFFCURVE",
"320 0 OFFCURVE",
"414 0 CURVE SMOOTH",
"479 0 OFFCURVE",
"718 -63 OFFCURVE",
"718 -137 CURVE SMOOTH",
"719 -260 OFFCURVE",
"625 -295 OFFCURVE",
"525 -295 CURVE SMOOTH"
);
},
{
closed = 1;
nodes = (
"430 427 OFFCURVE",
"465 530 OFFCURVE",
"465 653 CURVE SMOOTH",
"465 816 OFFCURVE",
"545 858 OFFCURVE",
"640 858 CURVE SMOOTH",
"722 858 OFFCURVE",
"714 820 OFFCURVE",
"716 683 CURVE SMOOTH",
"714 509 OFFCURVE",
"607 427 OFFCURVE",
"515 427 CURVE SMOOTH"
);
}
);
width = 1123;
}
);
note = uni0067;
unicode = 0067;
},
{
glyphname = h;
layers = (
{
layerId = "92A672BF-229C-4BEC-8D25-4DDBB2A38145";
paths = (
{
closed = 1;
nodes = (
"1066 3 OFFCURVE",
"1128 8 OFFCURVE",
"1128 42 CURVE SMOOTH",
"1128 55.342 OFFCURVE",
"1043.081 114.863 OFFCURVE",
"1028 140.5 CURVE SMOOTH",
"1010 172 OFFCURVE",
"1013 220 OFFCURVE",
"1016 490 CURVE SMOOTH",
"1016 775 OFFCURVE",
"974 963 OFFCURVE",
"724 963 CURVE SMOOTH",
"564 963 OFFCURVE",
"451 879 OFFCURVE",
"425 879 CURVE SMOOTH",
"398 879 OFFCURVE",
"398 958 OFFCURVE",
"398 1340 CURVE SMOOTH",
"398 1438 OFFCURVE",
"381 1468 OFFCURVE",
"295 1468 CURVE SMOOTH",
"219 1468 OFFCURVE",
"92 1447 OFFCURVE",
"92 1404 CURVE SMOOTH",
"92 1369 OFFCURVE",
"189 1350 OFFCURVE",
"198 1275 CURVE SMOOTH",
"210 1172 OFFCURVE",
"220 923 OFFCURVE",
"221 691 CURVE SMOOTH",
"221 481 OFFCURVE",
"217 284 OFFCURVE",
"206.5 216 CURVE SMOOTH",
"199.485 168.96 OFFCURVE",
"109 69.104 OFFCURVE",
"109 52 CURVE SMOOTH",
"109 19.333 OFFCURVE",
"174.333 3 OFFCURVE",
"305 3 CURVE SMOOTH",
"435.667 3 OFFCURVE",
"501 17 OFFCURVE",
"501 45 CURVE SMOOTH",
"501 69 OFFCURVE",
"426.109 120.854 OFFCURVE",
"414.5 145 CURVE SMOOTH",
"402 172 OFFCURVE",
"398 346 OFFCURVE",
"404 496 CURVE SMOOTH",
"411 730 OFFCURVE",
"443 845 OFFCURVE",
"666.5 845 CURVE SMOOTH",
"806 845 OFFCURVE",
"815 743 OFFCURVE",
"832 474 CURVE SMOOTH",
"841 326 OFFCURVE",
"839 174 OFFCURVE",
"825 142.5 CURVE SMOOTH",
"819 129 OFFCURVE",
"753 46 OFFCURVE",
"753 31 CURVE SMOOTH",
"753 8.333 OFFCURVE",
"783 -3 OFFCURVE",
"843 -3 CURVE SMOOTH"
);
}
);
width = 1216;
},
{
layerId = "5CBF0BAD-1756-4F16-9711-93DC239D102B";
paths = (
{
closed = 1;
nodes = (
"979 20 OFFCURVE",
"1085 46 OFFCURVE",
"1085 114 CURVE SMOOTH",
"1085 139 OFFCURVE",
"1028 199 OFFCURVE",
"1028 244 CURVE SMOOTH",
"1028 332 OFFCURVE",
"1088 487 OFFCURVE",
"1093 700 CURVE SMOOTH",
"1095 793 OFFCURVE",
"1014 910 OFFCURVE",
"879 910 CURVE SMOOTH",
"740 910 OFFCURVE",
"601 775 OFFCURVE",
"564 775 CURVE SMOOTH",
"533 775 OFFCURVE",
"564 908 OFFCURVE",
"610 1157 CURVE SMOOTH",
"658 1418 OFFCURVE",
"645 1466 OFFCURVE",
"551 1466 CURVE SMOOTH",
"431 1466 OFFCURVE",
"281 1422 OFFCURVE",
"281 1368 CURVE SMOOTH",
"281 1352 OFFCURVE",
"315 1312 OFFCURVE",
"357 1268 CURVE SMOOTH",
"381 1243 OFFCURVE",
"357 1032 OFFCURVE",
"289 700 CURVE SMOOTH",
"231 416 OFFCURVE",
"188 295 OFFCURVE",
"185.5 263 CURVE SMOOTH",
"181 201 OFFCURVE",
"139 95 OFFCURVE",
"139 50 CURVE SMOOTH",
"139 20 OFFCURVE",
"139.167 1 OFFCURVE",
"245.5 1 CURVE SMOOTH",
"392 1 OFFCURVE",
"433 -1 OFFCURVE",
"433 75 CURVE SMOOTH",
"433 106 OFFCURVE",
"444 216 OFFCURVE",
"458 287 CURVE SMOOTH",
"476 379 OFFCURVE",
"515 511 OFFCURVE",
"532 553 CURVE SMOOTH",
"567 637 OFFCURVE",
"610 725 OFFCURVE",
"715 725 CURVE SMOOTH",
"817 725 OFFCURVE",
"841 643 OFFCURVE",
"824 468 CURVE SMOOTH",
"813 352 OFFCURVE",
"801 237 OFFCURVE",
"794 206 CURVE SMOOTH",
"787 172 OFFCURVE",
"797 135 OFFCURVE",
"800 96 CURVE SMOOTH",
"805 34 OFFCURVE",
"841 20 OFFCURVE",
"919 20 CURVE SMOOTH"
);
}
);
width = 1269;
}
);
note = uni0068;
unicode = 0068;
},
{
glyphname = i;
layers = (
{
layerId = "92A672BF-229C-4BEC-8D25-4DDBB2A38145";
paths = (
{
closed = 1;
nodes = (
"489 -3 OFFCURVE",
"546 -5 OFFCURVE",
"546 39 CURVE SMOOTH",
"546 51.995 OFFCURVE",
"429.9 112.849 OFFCURVE",
"422 140.5 CURVE SMOOTH",
"407 195 OFFCURVE",
"405 300 OFFCURVE",
"407 418 CURVE SMOOTH",
"410 565 OFFCURVE",
"419 732 OFFCURVE",
"415 839 CURVE SMOOTH",
"410 920 OFFCURVE",
"411 961 OFFCURVE",
"338 961 CURVE SMOOTH",
"238 961 OFFCURVE",
"87 943 OFFCURVE",
"87 885 CURVE SMOOTH",
"87 843.049 OFFCURVE",
"174.906 847.912 OFFCURVE",
"206.5 810 CURVE SMOOTH",
"224 788 OFFCURVE",
"224 750 OFFCURVE",
"225 462 CURVE SMOOTH",
"226 284 OFFCURVE",
"219 180 OFFCURVE",
"213 151 CURVE SMOOTH",
"208 127 OFFCURVE",
"96 61 OFFCURVE",
"96 33 CURVE SMOOTH",
"96 -19 OFFCURVE",
"146 -7 OFFCURVE",
"415 -3 CURVE SMOOTH"
);
},
{
closed = 1;
nodes = (
"375 1171 OFFCURVE",
"437 1194 OFFCURVE",
"437 1293 CURVE SMOOTH",
"437 1365 OFFCURVE",
"385 1412 OFFCURVE",
"322 1412 CURVE SMOOTH",
"229 1409 OFFCURVE",
"181 1395 OFFCURVE",
"184 1304 CURVE SMOOTH",
"187 1228 OFFCURVE",
"225 1171 OFFCURVE",
"278 1171 CURVE SMOOTH"
);
}
);
width = 628;
},
{
layerId = "5CBF0BAD-1756-4F16-9711-93DC239D102B";
paths = (
{
closed = 1;
nodes = (
"475 -5 OFFCURVE",
"614 66 OFFCURVE",
"614 119 CURVE SMOOTH",
"614 175 OFFCURVE",
"509 163 OFFCURVE",
"490 237 CURVE SMOOTH",
"477 291 OFFCURVE",
"488 387 OFFCURVE",
"509 521 CURVE SMOOTH",
"534 683 OFFCURVE",
"570 800 OFFCURVE",
"570 852 CURVE SMOOTH",
"570 924 OFFCURVE",
"544 944 OFFCURVE",
"498 944 CURVE SMOOTH",
"383 944 OFFCURVE",
"165 925 OFFCURVE",
"165 852 CURVE SMOOTH",
"165 796 OFFCURVE",
"276 768 OFFCURVE",
"291 716 CURVE SMOOTH",
"298 691 OFFCURVE",
"307 615 OFFCURVE",
"283 500 CURVE SMOOTH",
"254 360 OFFCURVE",
"217.667 266.167 OFFCURVE",
"209 232.5 CURVE SMOOTH",
"192 167 OFFCURVE",
"126 120 OFFCURVE",
"126 57 CURVE SMOOTH",
"126 22 OFFCURVE",
"180 -2 OFFCURVE",
"377 -4 CURVE SMOOTH"
);
},
{
closed = 1;
nodes = (
"598 1102 OFFCURVE",
"663 1161 OFFCURVE",
"663 1265 CURVE SMOOTH",
"663 1334 OFFCURVE",
"626 1393 OFFCURVE",
"510 1393 CURVE SMOOTH",
"418 1393 OFFCURVE",
"363 1318 OFFCURVE",
"363 1241 CURVE SMOOTH",
"363 1128 OFFCURVE",
"392 1102 OFFCURVE",
"510 1102 CURVE SMOOTH"
);
}
);
width = 691;
}
);
note = uni0069;
unicode = 0069;
},
{
glyphname = idotless;
layers = (
{
anchors = (
{
name = top;
position = "{278, 1059}";
}
);
layerId = "92A672BF-229C-4BEC-8D25-4DDBB2A38145";
paths = (
{
closed = 1;
nodes = (
"500 -3 OFFCURVE",
"556 5 OFFCURVE",
"556 39 CURVE SMOOTH",
"556 52 OFFCURVE",
"440 113 OFFCURVE",
"432 141 CURVE SMOOTH",
"417 195 OFFCURVE",
"415 300 OFFCURVE",
"417 418 CURVE SMOOTH",
"420 565 OFFCURVE",
"429 732 OFFCURVE",
"425 839 CURVE SMOOTH",
"420 920 OFFCURVE",
"411 970 OFFCURVE",
"338 970 CURVE SMOOTH",
"238 970 OFFCURVE",
"87 943 OFFCURVE",
"87 885 CURVE SMOOTH",
"87 843.049 OFFCURVE",
"174.906 847.912 OFFCURVE",
"206.5 810 CURVE SMOOTH",
"224 788 OFFCURVE",
"224 750 OFFCURVE",
"225 462 CURVE SMOOTH",
"226 284 OFFCURVE",
"223 179 OFFCURVE",
"213 151 CURVE SMOOTH",
"199 111 OFFCURVE",
"96 75 OFFCURVE",
"96 39 CURVE SMOOTH",
"96 6 OFFCURVE",
"134 -3 OFFCURVE",
"415 -3 CURVE SMOOTH"
);
}
);
width = 628;
},
{
anchors = (
{
name = top;
position = "{452, 1032}";
}
);
layerId = "5CBF0BAD-1756-4F16-9711-93DC239D102B";
paths = (
{
closed = 1;
nodes = (
"475 -5 OFFCURVE",
"614 66 OFFCURVE",
"614 119 CURVE SMOOTH",
"614 175 OFFCURVE",
"509 163 OFFCURVE",
"490 237 CURVE SMOOTH",
"477 291 OFFCURVE",
"488 387 OFFCURVE",
"509 521 CURVE SMOOTH",
"534 683 OFFCURVE",
"570 800 OFFCURVE",
"570 852 CURVE SMOOTH",
"570 924 OFFCURVE",
"544 944 OFFCURVE",
"498 944 CURVE SMOOTH",
"383 944 OFFCURVE",
"135 925 OFFCURVE",
"135 852 CURVE SMOOTH",
"135 796 OFFCURVE",
"246 768 OFFCURVE",
"261 716 CURVE SMOOTH",
"268 691 OFFCURVE",
"287 615 OFFCURVE",
"263 500 CURVE SMOOTH",
"234 360 OFFCURVE",
"217.667 266.167 OFFCURVE",
"209 232.5 CURVE SMOOTH",
"192 167 OFFCURVE",
"126 120 OFFCURVE",
"126 57 CURVE SMOOTH",
"126 22 OFFCURVE",
"180 -2 OFFCURVE",
"377 -4 CURVE SMOOTH"
);
}
);
width = 691;
}
);
note = uni0069;
unicode = 0131;
},
{
glyphname = j;
layers = (
{
layerId = "92A672BF-229C-4BEC-8D25-4DDBB2A38145";
paths = (
{
closed = 1;
nodes = (
"359 -426 OFFCURVE",
"421 -141 OFFCURVE",
"421 430 CURVE SMOOTH",
"421 955 OFFCURVE",
"410 964 OFFCURVE",
"349 964 CURVE SMOOTH",
"238 964 OFFCURVE",
"97 954 OFFCURVE",
"97 892 CURVE SMOOTH",
"97 850 OFFCURVE",
"212 821 OFFCURVE",
"223 763.5 CURVE SMOOTH",
"230 729 OFFCURVE",
"234 587 OFFCURVE",
"234 338 CURVE SMOOTH",
"234 -227 OFFCURVE",
"172 -276 OFFCURVE",
"82 -276 CURVE SMOOTH",
"11 -276 OFFCURVE",
"-50 -293 OFFCURVE",
"-50 -360 CURVE SMOOTH",
"-50 -409 OFFCURVE",
"-20 -424 OFFCURVE",
"50 -424 CURVE SMOOTH"
);
},
{
closed = 1;
nodes = (
"389.333 1175 OFFCURVE",
"443 1231.333 OFFCURVE",
"443 1294 CURVE SMOOTH",
"440 1388 OFFCURVE",
"416 1417 OFFCURVE",
"316 1417 CURVE SMOOTH",
"261 1417 OFFCURVE",
"190 1374 OFFCURVE",
"190 1306 CURVE SMOOTH",
"190 1219 OFFCURVE",
"236 1175 OFFCURVE",
"316 1175 CURVE SMOOTH"
);
}
);
width = 585;
},
{
layerId = "5CBF0BAD-1756-4F16-9711-93DC239D102B";
paths = (
{
closed = 1;
nodes = (
"308 -427 OFFCURVE",
"390 -175 OFFCURVE",
"505 376 CURVE SMOOTH",
"590 784 OFFCURVE",
"578 938 OFFCURVE",
"488 938 CURVE SMOOTH",
"391 938 OFFCURVE",
"161 893 OFFCURVE",
"161 833 CURVE SMOOTH",
"161 787 OFFCURVE",
"288 745 OFFCURVE",
"300 654 CURVE SMOOTH",
"307 601 OFFCURVE",
"282 467 OFFCURVE",
"259 291 CURVE SMOOTH",
"231 80 OFFCURVE",
"136 -165 OFFCURVE",
"84 -197 CURVE SMOOTH",
"9 -243 OFFCURVE",
"-132 -269 OFFCURVE",
"-132 -347 CURVE SMOOTH",
"-132 -400 OFFCURVE",
"-99 -427 OFFCURVE",
"-32 -427 CURVE SMOOTH"
);
},
{
closed = 1;
nodes = (
"592 1097 OFFCURVE",
"661 1149 OFFCURVE",
"661 1261 CURVE SMOOTH",
"661 1361 OFFCURVE",
"614 1397 OFFCURVE",
"517 1397 CURVE SMOOTH",
"435 1397 OFFCURVE",
"367 1320 OFFCURVE",
"367 1230 CURVE SMOOTH",
"367 1147 OFFCURVE",
"414 1097 OFFCURVE",
"463 1097 CURVE SMOOTH"
);
}
);
width = 664;
}
);
note = uni006A;
unicode = 006A;
},
{
glyphname = k;
layers = (
{
layerId = "92A672BF-229C-4BEC-8D25-4DDBB2A38145";
paths = (
{
closed = 1;
nodes = (
"1037.333 6 OFFCURVE",
"1079 18.667 OFFCURVE",
"1079 44 CURVE SMOOTH",
"1079 54.667 OFFCURVE",
"1046.667 82.667 OFFCURVE",
"982 128 CURVE SMOOTH",
"937 160 OFFCURVE",
"655 507 OFFCURVE",
"655 541 CURVE SMOOTH",
"655 612 OFFCURVE",
"796 758 OFFCURVE",
"920 835 CURVE SMOOTH",
"981 874 OFFCURVE",
"1012 900 OFFCURVE",
"1012 914 CURVE SMOOTH",
"1012 936.667 OFFCURVE",
"946.667 948 OFFCURVE",
"816 948 CURVE SMOOTH",
"744 948 OFFCURVE",
"708 936 OFFCURVE",
"708 912 CURVE SMOOTH",
"708 897 OFFCURVE",
"719 887 OFFCURVE",
"715 862 CURVE SMOOTH",
"705 800 OFFCURVE",
"509 587 OFFCURVE",
"446.5 587 CURVE SMOOTH",
"410 587 OFFCURVE",
"402 615 OFFCURVE",
"410 1181 CURVE SMOOTH",
"413 1394 OFFCURVE",
"400 1472 OFFCURVE",
"325 1472 CURVE SMOOTH",
"245 1472 OFFCURVE",
"84 1450 OFFCURVE",
"84 1408 CURVE SMOOTH",
"84 1394 OFFCURVE",
"97 1380 OFFCURVE",
"127 1364 CURVE SMOOTH",
"198 1326 OFFCURVE",
"215 1287 OFFCURVE",
"204 694 CURVE SMOOTH",
"197 290 OFFCURVE",
"188 157 OFFCURVE",
"136 86 CURVE SMOOTH",
"119 62 OFFCURVE",
"110 50 OFFCURVE",
"110 40 CURVE SMOOTH",
"110 20 OFFCURVE",
"143.333 10 OFFCURVE",
"210 10 CURVE SMOOTH",
"390 10 OFFCURVE",
"480 22 OFFCURVE",
"480 46 CURVE SMOOTH",
"480 93 OFFCURVE",
"409 122 OFFCURVE",
"409 259 CURVE SMOOTH",
"409 369 OFFCURVE",
"430 428 OFFCURVE",
"471 428 CURVE SMOOTH",
"502.333 428 OFFCURVE",
"539.667 401 OFFCURVE",
"583 347 CURVE SMOOTH",
"649.667 264.333 OFFCURVE",
"700.667 178.667 OFFCURVE",
"736 90 CURVE SMOOTH",
"768 14 OFFCURVE",
"799 6 OFFCURVE",
"954 6 CURVE SMOOTH"
);
}
);
width = 1139;
},
{
layerId = "5CBF0BAD-1756-4F16-9711-93DC239D102B";
paths = (
{
closed = 1;
nodes = (
"1111 -1 OFFCURVE",
"1117 34 OFFCURVE",
"1117 91 CURVE SMOOTH",
"1117 109 OFFCURVE",
"1025 142 OFFCURVE",
"966 194 CURVE SMOOTH",
"883 267 OFFCURVE",
"758 487 OFFCURVE",
"758 531 CURVE SMOOTH",
"758 584 OFFCURVE",
"841 616 OFFCURVE",
"1008 717 CURVE SMOOTH",
"1091 767 OFFCURVE",
"1133 824 OFFCURVE",
"1133 846 CURVE SMOOTH",
"1133 884 OFFCURVE",
"1105 909 OFFCURVE",
"974 909 CURVE SMOOTH",
"861 909 OFFCURVE",
"816 877 OFFCURVE",
"816 840 CURVE SMOOTH",
"816 820 OFFCURVE",
"791 765 OFFCURVE",
"778 749 CURVE SMOOTH",
"705 658 OFFCURVE",
"640 592 OFFCURVE",
"576 592 CURVE SMOOTH",
"538 592 OFFCURVE",
"528 613 OFFCURVE",
"624 1104 CURVE SMOOTH",
"684 1412 OFFCURVE",
"675 1480 OFFCURVE",
"590 1480 CURVE SMOOTH",
"465 1480 OFFCURVE",
"305 1441 OFFCURVE",
"305 1367 CURVE SMOOTH",
"305 1309 OFFCURVE",
"382 1286 OFFCURVE",
"405 1237 CURVE SMOOTH",
"437 1169 OFFCURVE",
"384 1011 OFFCURVE",
"330 746 CURVE SMOOTH",
"253 370 OFFCURVE",
"261 356 OFFCURVE",
"244 288 CURVE SMOOTH",
"234 246 OFFCURVE",
"136 95 OFFCURVE",
"136 62 CURVE SMOOTH",
"136 1 OFFCURVE",
"187 0 OFFCURVE",
"299 0 CURVE SMOOTH",
"415 0 OFFCURVE",
"471 8 OFFCURVE",
"471 78 CURVE SMOOTH",
"471 120 OFFCURVE",
"449 182 OFFCURVE",
"475 288 CURVE SMOOTH",
"491 352 OFFCURVE",
"505.667 385 OFFCURVE",
"533 385 CURVE SMOOTH",
"577 385 OFFCURVE",
"623.333 346.667 OFFCURVE",
"672 270 CURVE SMOOTH",
"712 208 OFFCURVE",
"717 91 OFFCURVE",
"760 48 CURVE SMOOTH",
"798 10 OFFCURVE",
"864 -1 OFFCURVE",
"998 -1 CURVE SMOOTH"
);
}
);
width = 1251;
}
);
note = uni006B;
unicode = 006B;
},
{
glyphname = l;
layers = (
{
layerId = "92A672BF-229C-4BEC-8D25-4DDBB2A38145";
paths = (
{
closed = 1;
nodes = (
"189 111 OFFCURVE",
"86 57 OFFCURVE",
"86 27 CURVE SMOOTH",
"86 7.667 OFFCURVE",
"136 0 OFFCURVE",
"276 0 CURVE SMOOTH",
"492 0 OFFCURVE",
"544 3 OFFCURVE",
"544 40 CURVE SMOOTH",
"544 65 OFFCURVE",
"419 116 OFFCURVE",
"415 152 CURVE SMOOTH",
"410 189 OFFCURVE",
"407 433 OFFCURVE",
"407 829 CURVE SMOOTH",
"410 1264 OFFCURVE",
"415 1390 OFFCURVE",
"415 1415 CURVE SMOOTH",
"415 1456 OFFCURVE",
"380.333 1476 OFFCURVE",
"341 1476 CURVE SMOOTH",
"242 1476 OFFCURVE",
"79 1459 OFFCURVE",
"79 1404.5 CURVE SMOOTH",
"79 1363 OFFCURVE",
"195 1326 OFFCURVE",
"200 1304 CURVE SMOOTH",
"207 1269 OFFCURVE",
"216 1071 OFFCURVE",
"210 747.5 CURVE SMOOTH",
"207 597 OFFCURVE",
"220 346 OFFCURVE",
"193 141 CURVE SMOOTH"
);
}
);
width = 612;
},
{
layerId = "5CBF0BAD-1756-4F16-9711-93DC239D102B";
paths = (
{
closed = 1;
nodes = (
"456 0 OFFCURVE",
"580 59 OFFCURVE",
"580 100 CURVE SMOOTH",
"580 148 OFFCURVE",
"456 168 OFFCURVE",
"456 284 CURVE SMOOTH",
"456 348 OFFCURVE",
"499 534 OFFCURVE",
"534 762 CURVE SMOOTH",
"554 889 OFFCURVE",
"639 1223 OFFCURVE",
"639 1410 CURVE SMOOTH",
"639 1454 OFFCURVE",
"600 1482 OFFCURVE",
"549 1482 CURVE SMOOTH",
"442 1482 OFFCURVE",
"242 1457 OFFCURVE",
"242 1387 CURVE SMOOTH",
"242 1363 OFFCURVE",
"365 1268 OFFCURVE",
"365 1243 CURVE SMOOTH",
"365 1156 OFFCURVE",
"331 929 OFFCURVE",
"285 736 CURVE SMOOTH",
"238 538 OFFCURVE",
"180 317 OFFCURVE",
"170 244 CURVE SMOOTH",
"157 149 OFFCURVE",
"84 100 OFFCURVE",
"84 45.5 CURVE SMOOTH",
"84 7 OFFCURVE",
"103 -3 OFFCURVE",
"348 -1 CURVE SMOOTH"
);
}
);
width = 685;
}
);
note = uni006C;
unicode = 006C;
},
{
glyphname = lslash;
layers = (
{
layerId = "92A672BF-229C-4BEC-8D25-4DDBB2A38145";
paths = (
{
closed = 1;
nodes = (
"509 5 OFFCURVE",
"575 13 OFFCURVE",
"575 35 CURVE SMOOTH",
"575 68 OFFCURVE",
"482 88 OFFCURVE",
"465 131 CURVE SMOOTH",
"450.333 167.667 OFFCURVE",
"443 257.5 OFFCURVE",
"443 400.5 CURVE SMOOTH",
"443 543.5 OFFCURVE",
"449.333 635.667 OFFCURVE",
"462 677 CURVE SMOOTH",
"486 756 OFFCURVE",
"615 815 OFFCURVE",
"616 870 CURVE SMOOTH",
"616 885 OFFCURVE",
"604 908 OFFCURVE",
"584 908 CURVE SMOOTH",
"552 908 OFFCURVE",
"515 885 OFFCURVE",
"496 885 CURVE SMOOTH",
"466 885 OFFCURVE",
"451 953 OFFCURVE",
"451 1089 CURVE SMOOTH",
"450 1322 OFFCURVE",
"453 1379 OFFCURVE",
"434 1420 CURVE SMOOTH",
"423.333 1442 OFFCURVE",
"403.333 1453 OFFCURVE",
"374 1453 CURVE SMOOTH",
"281 1453 OFFCURVE",
"117 1434 OFFCURVE",
"117 1371 CURVE SMOOTH",
"117 1344 OFFCURVE",
"207 1331 OFFCURVE",
"228 1299 CURVE SMOOTH",
"240 1280.333 OFFCURVE",
"246 1197.833 OFFCURVE",
"246 1051.5 CURVE SMOOTH",
"246 905.167 OFFCURVE",
"240.667 817.167 OFFCURVE",
"230 787.5 CURVE SMOOTH",
"219.333 757.833 OFFCURVE",
"201 745 OFFCURVE",
"157 710 CURVE SMOOTH",
"136 694 OFFCURVE",
"81 651 OFFCURVE",
"81 612 CURVE SMOOTH",
"81 574 OFFCURVE",
"128 567 OFFCURVE",
"172 567 CURVE SMOOTH",
"219 567 OFFCURVE",
"238 539 OFFCURVE",
"238 346 CURVE SMOOTH",
"238 265 OFFCURVE",
"237 184 OFFCURVE",
"220.5 152.5 CURVE SMOOTH",
"186 88 OFFCURVE",
"123 75 OFFCURVE",
"123 44 CURVE SMOOTH",
"123 -9 OFFCURVE",
"236 -1 OFFCURVE",
"373 4 CURVE SMOOTH"
);
}
);
width = 684;
},
{
layerId = "5CBF0BAD-1756-4F16-9711-93DC239D102B";
paths = (
{
closed = 1;
nodes = (
"479 2 OFFCURVE",
"646 122 OFFCURVE",
"646 144 CURVE SMOOTH",
"646 175 OFFCURVE",
"570 168 OFFCURVE",
"542 243 CURVE SMOOTH",
"523 294 OFFCURVE",
"518 354 OFFCURVE",
"530 458 CURVE SMOOTH",
"542 561 OFFCURVE",
"551 629 OFFCURVE",
"561 660 CURVE SMOOTH",
"579 715 OFFCURVE",
"779 803 OFFCURVE",
"779 874 CURVE SMOOTH",
"779 904 OFFCURVE",
"768 918 OFFCURVE",
"746 919 CURVE SMOOTH",
"707 921 OFFCURVE",
"686 901 OFFCURVE",
"654 901 CURVE SMOOTH",
"611 901 OFFCURVE",
"638 1080 OFFCURVE",
"656 1185 CURVE SMOOTH",
"675 1296 OFFCURVE",
"702 1345 OFFCURVE",
"699 1388 CURVE SMOOTH",
"696 1428 OFFCURVE",
"663 1445 OFFCURVE",
"631 1445 CURVE SMOOTH",
"492 1445 OFFCURVE",
"300 1367 OFFCURVE",
"300 1316 CURVE SMOOTH",
"300 1283 OFFCURVE",
"360 1329 OFFCURVE",
"385 1275 CURVE SMOOTH",
"395 1253 OFFCURVE",
"426 1186 OFFCURVE",
"426 1095 CURVE SMOOTH",
"425 995 OFFCURVE",
"385 931 OFFCURVE",
"373 894 CURVE SMOOTH",
"360 856 OFFCURVE",
"319 724 OFFCURVE",
"265 673 CURVE SMOOTH",
"237 647 OFFCURVE",
"195 607 OFFCURVE",
"195 563 CURVE SMOOTH",
"195 519 OFFCURVE",
"216 500 OFFCURVE",
"264 500 CURVE SMOOTH",
"300 500 OFFCURVE",
"328 458 OFFCURVE",
"328 414 CURVE SMOOTH",
"328 347 OFFCURVE",
"245 215 OFFCURVE",
"219 144 CURVE SMOOTH",
"210 120 OFFCURVE",
"184 63 OFFCURVE",
"184 35 CURVE SMOOTH",
"184 4 OFFCURVE",
"228 0 OFFCURVE",
"387 1 CURVE SMOOTH"
);
}
);
width = 828;
}
);
note = uni0142;
unicode = 0142;
},
{
glyphname = m;
layers = (
{
layerId = "92A672BF-229C-4BEC-8D25-4DDBB2A38145";
paths = (
{
closed = 1;
nodes = (
"425.833 7 OFFCURVE",
"471 17 OFFCURVE",
"471 36 CURVE SMOOTH",
"471 75 OFFCURVE",
"403 114 OFFCURVE",
"403 208 CURVE SMOOTH",
"403 324 OFFCURVE",
"404 418 OFFCURVE",
"407 492 CURVE SMOOTH",
"416 695 OFFCURVE",
"469 835 OFFCURVE",
"657 835 CURVE SMOOTH",
"816 838 OFFCURVE",
"815 682 OFFCURVE",
"820 481 CURVE SMOOTH",
"823 366 OFFCURVE",
"820 208 OFFCURVE",
"814 173.5 CURVE SMOOTH",
"804 114 OFFCURVE",
"715 83 OFFCURVE",
"715 28 CURVE SMOOTH",
"715 8.667 OFFCURVE",
"752 -1 OFFCURVE",
"826 -1 CURVE SMOOTH",
"1022.667 -1 OFFCURVE",
"1121 11.667 OFFCURVE",
"1121 37 CURVE SMOOTH",
"1121 83 OFFCURVE",
"1047 101 OFFCURVE",
"1030 132 CURVE SMOOTH",
"1019.333 150.667 OFFCURVE",
"1014 240.167 OFFCURVE",
"1014 400.5 CURVE SMOOTH",
"1014 740 OFFCURVE",
"1070 836 OFFCURVE",
"1227 835 CURVE SMOOTH",
"1391 834 OFFCURVE",
"1410 662 OFFCURVE",
"1415 516 CURVE SMOOTH",
"1419 436 OFFCURVE",
"1421 334 OFFCURVE",
"1421 210 CURVE SMOOTH",
"1421 157 OFFCURVE",
"1369 40 OFFCURVE",
"1369 30 CURVE SMOOTH",
"1369 13.333 OFFCURVE",
"1399 5 OFFCURVE",
"1459 5 CURVE SMOOTH",
"1633 5 OFFCURVE",
"1720 18.333 OFFCURVE",
"1720 45 CURVE SMOOTH",
"1720 67 OFFCURVE",
"1633 131 OFFCURVE",
"1620.5 170 CURVE SMOOTH",
"1614 191 OFFCURVE",
"1611 256 OFFCURVE",
"1611 362 CURVE SMOOTH",
"1611 710 OFFCURVE",
"1604 965 OFFCURVE",
"1340.5 965 CURVE SMOOTH",
"1135 965 OFFCURVE",
"1050 842 OFFCURVE",
"995 842 CURVE SMOOTH",
"957 842 OFFCURVE",
"898 971 OFFCURVE",
"737 971 CURVE SMOOTH",
"523 971 OFFCURVE",
"455 856 OFFCURVE",
"433 857 CURVE SMOOTH",
"411 858 OFFCURVE",
"347 946 OFFCURVE",
"279 946 CURVE SMOOTH",
"188 946 OFFCURVE",
"123 931 OFFCURVE",
"123 891 CURVE SMOOTH",
"123 866 OFFCURVE",
"181.92 819.716 OFFCURVE",
"197 787.5 CURVE SMOOTH",
"213.087 753.133 OFFCURVE",
"207.706 560.961 OFFCURVE",
"210 491 CURVE SMOOTH",
"214 284 OFFCURVE",
"213 224 OFFCURVE",
"201 180.5 CURVE SMOOTH",
"193 152 OFFCURVE",
"115 100 OFFCURVE",
"117 67 CURVE SMOOTH",
"120 11 OFFCURVE",
"231 7 OFFCURVE",
"335.5 7 CURVE SMOOTH"
);
}
);
width = 1799;
},
{
layerId = "5CBF0BAD-1756-4F16-9711-93DC239D102B";
paths = (
{
closed = 1;
nodes = (
"416 16 OFFCURVE",
"449 66 OFFCURVE",
"468 129 CURVE SMOOTH",
"485 187 OFFCURVE",
"498 286 OFFCURVE",
"509 330 CURVE SMOOTH",
"532 422 OFFCURVE",
"544 525 OFFCURVE",
"595 601 CURVE SMOOTH",
"644 674 OFFCURVE",
"677 729 OFFCURVE",
"789 730 CURVE SMOOTH",
"876 731 OFFCURVE",
"859 561 OFFCURVE",
"842 448 CURVE SMOOTH",
"822 316 OFFCURVE",
"799 240 OFFCURVE",
"792.5 217 CURVE SMOOTH",
"777 161 OFFCURVE",
"731 97 OFFCURVE",
"731 64 CURVE SMOOTH",
"731 24 OFFCURVE",
"789 0 OFFCURVE",
"861 0 CURVE SMOOTH",
"926 0 OFFCURVE",
"976 -3 OFFCURVE",
"1023 41 CURVE SMOOTH",
"1051 67 OFFCURVE",
"1058 90 OFFCURVE",
"1059 138 CURVE SMOOTH",
"1061 214 OFFCURVE",
"1042 337 OFFCURVE",
"1069 423 CURVE SMOOTH",
"1119 582 OFFCURVE",
"1143 700 OFFCURVE",
"1273 700 CURVE SMOOTH",
"1337 700 OFFCURVE",
"1379 621 OFFCURVE",
"1368 463 CURVE SMOOTH",
"1361 367 OFFCURVE",
"1360 277 OFFCURVE",
"1344 187 CURVE SMOOTH",
"1340 166 OFFCURVE",
"1350 126 OFFCURVE",
"1368 91 CURVE SMOOTH",
"1387 55 OFFCURVE",
"1449 54 OFFCURVE",
"1521 55 CURVE SMOOTH",
"1578 56 OFFCURVE",
"1635 89 OFFCURVE",
"1635 141 CURVE SMOOTH",
"1635 160 OFFCURVE",
"1598 197 OFFCURVE",
"1584 225 CURVE SMOOTH",
"1577 241 OFFCURVE",
"1574 337 OFFCURVE",
"1589 423 CURVE SMOOTH",
"1645 737 OFFCURVE",
"1617 909 OFFCURVE",
"1427 909 CURVE SMOOTH",
"1285 909 OFFCURVE",
"1160 778 OFFCURVE",
"1119 778 CURVE SMOOTH",
"1073 778 OFFCURVE",
"1061 928 OFFCURVE",
"905 928 CURVE SMOOTH",
"667 928 OFFCURVE",
"617 770 OFFCURVE",
"570 766 CURVE SMOOTH",
"545 764 OFFCURVE",
"532 884 OFFCURVE",
"455 884 CURVE SMOOTH",
"367 884 OFFCURVE",
"255 818 OFFCURVE",
"255 700 CURVE SMOOTH",
"255 657 OFFCURVE",
"286 601 OFFCURVE",
"286 561 CURVE SMOOTH",
"286 500 OFFCURVE",
"267 490 OFFCURVE",
"252 387 CURVE SMOOTH",
"241 310 OFFCURVE",
"226 256 OFFCURVE",
"226 217 CURVE SMOOTH",
"226 167 OFFCURVE",
"252 96 OFFCURVE",
"267 72 CURVE SMOOTH",
"286 41 OFFCURVE",
"307 16 OFFCURVE",
"341 16 CURVE SMOOTH"
);
}
);
width = 1842;
}
);
note = uni006D;
unicode = 006D;
},
{
glyphname = n;
layers = (
{
anchors = (
{
name = top;
position = "{648, 983}";
}
);
layerId = "92A672BF-229C-4BEC-8D25-4DDBB2A38145";
paths = (
{
closed = 1;
nodes = (
"497 69 OFFCURVE",
"425.513 133.521 OFFCURVE",
"419 150.5 CURVE SMOOTH",
"400 200 OFFCURVE",
"406 242 OFFCURVE",
"411 471 CURVE SMOOTH",
"411 699 OFFCURVE",
"453 850 OFFCURVE",
"659 850 CURVE SMOOTH",
"803 850 OFFCURVE",
"850 777.667 OFFCURVE",
"850 503 CURVE SMOOTH",
"853 286 OFFCURVE",
"856 160 OFFCURVE",
"846.5 134 CURVE SMOOTH",
"842.167 122.667 OFFCURVE",
"776 67 OFFCURVE",
"776 47 CURVE SMOOTH",
"776 7 OFFCURVE",
"830 3 OFFCURVE",
"896 5 CURVE SMOOTH",
"1078.667 5 OFFCURVE",
"1170 19 OFFCURVE",
"1170 47 CURVE SMOOTH",
"1170 72 OFFCURVE",
"1068 112 OFFCURVE",
"1053.5 139 CURVE SMOOTH",
"1044.5 156.333 OFFCURVE",
"1040 227 OFFCURVE",
"1040 351 CURVE SMOOTH",
"1040 727 OFFCURVE",
"1041 963 OFFCURVE",
"754 965 CURVE SMOOTH",
"584 964 OFFCURVE",
"452 836 OFFCURVE",
"429 836 CURVE SMOOTH",
"417 836 OFFCURVE",
"373 949 OFFCURVE",
"313 949 CURVE SMOOTH",
"226 949 OFFCURVE",
"106 936 OFFCURVE",
"106 875 CURVE SMOOTH",
"106 864.425 OFFCURVE",
"195.758 812.42 OFFCURVE",
"205.5 781.5 CURVE SMOOTH",
"215 750 OFFCURVE",
"217 735 OFFCURVE",
"219 488 CURVE SMOOTH",
"219 253 OFFCURVE",
"223 183 OFFCURVE",
"206.5 152.5 CURVE SMOOTH",
"193 128 OFFCURVE",
"93 79 OFFCURVE",
"93 59 CURVE SMOOTH",
"93 2 OFFCURVE",
"176 13 OFFCURVE",
"276 10 CURVE SMOOTH",
"437 7 OFFCURVE",
"497 8 OFFCURVE",
"497 44 CURVE SMOOTH"
);
}
);
width = 1232;
},
{
anchors = (
{
name = top;
position = "{766, 981}";
}
);
layerId = "5CBF0BAD-1756-4F16-9711-93DC239D102B";
paths = (
{
closed = 1;
nodes = (
"1059 28 OFFCURVE",
"1154 70 OFFCURVE",
"1154 108 CURVE SMOOTH",
"1154 150 OFFCURVE",
"1036 209 OFFCURVE",
"1036 249 CURVE SMOOTH",
"1036 307 OFFCURVE",
"1114 601 OFFCURVE",
"1114 724 CURVE SMOOTH",
"1114 873 OFFCURVE",
"1038 932 OFFCURVE",
"903 932 CURVE SMOOTH",
"728 932 OFFCURVE",
"583 755 OFFCURVE",
"563 755 CURVE SMOOTH",
"546 755 OFFCURVE",
"526 913 OFFCURVE",
"484 913 CURVE SMOOTH",
"303 913 OFFCURVE",
"219 875 OFFCURVE",
"219 753 CURVE SMOOTH",
"219 707 OFFCURVE",
"267 650 OFFCURVE",
"267 601 CURVE SMOOTH",
"267 560 OFFCURVE",
"249 434 OFFCURVE",
"219 364 CURVE SMOOTH",
"184 281 OFFCURVE",
"176 230 OFFCURVE",
"173 211 CURVE SMOOTH",
"165 160 OFFCURVE",
"184 108 OFFCURVE",
"199 75 CURVE SMOOTH",
"226 15 OFFCURVE",
"257 1 OFFCURVE",
"297.5 1 CURVE SMOOTH",
"398 1 OFFCURVE",
"455 21 OFFCURVE",
"455 70 CURVE SMOOTH",
"455 93 OFFCURVE",
"457 182 OFFCURVE",
"465 230 CURVE SMOOTH",
"480 325 OFFCURVE",
"477 415 OFFCURVE",
"522 511 CURVE SMOOTH",
"600 678 OFFCURVE",
"660 746 OFFCURVE",
"770 746 CURVE SMOOTH",
"870 746 OFFCURVE",
"881 641 OFFCURVE",
"849 469 CURVE SMOOTH",
"825 341 OFFCURVE",
"815 261 OFFCURVE",
"813 239 CURVE SMOOTH",
"808 186 OFFCURVE",
"777 108 OFFCURVE",
"777 70 CURVE SMOOTH",
"777 8 OFFCURVE",
"852 -28 OFFCURVE",
"992 10 CURVE SMOOTH"
);
}
);
width = 1282;
}
);
note = uni006E;
unicode = 006E;
},
{
glyphname = o;
layers = (
{
anchors = (
{
name = top;
position = "{536, 973}";
}
);
layerId = "92A672BF-229C-4BEC-8D25-4DDBB2A38145";
paths = (
{
closed = 1;
nodes = (
"815 -21 OFFCURVE",
"1014 200 OFFCURVE",
"1014 458 CURVE SMOOTH",
"1014 782 OFFCURVE",
"860 973 OFFCURVE",
"536 973 CURVE SMOOTH",
"276 973 OFFCURVE",
"83 753 OFFCURVE",
"83 493 CURVE SMOOTH",
"83 163 OFFCURVE",
"242 -20 OFFCURVE",
"556 -21 CURVE SMOOTH"
);
},
{
closed = 1;
nodes = (
"360 66 OFFCURVE",
"286 261 OFFCURVE",
"285 498 CURVE SMOOTH",
"285 717 OFFCURVE",
"358 887 OFFCURVE",
"548 887 CURVE SMOOTH",
"708 887 OFFCURVE",
"801 723 OFFCURVE",
"801 430 CURVE SMOOTH",
"801 213 OFFCURVE",
"710 67 OFFCURVE",
"553 66 CURVE"
);
}
);
width = 1112;
},
{
anchors = (
{
name = top;
position = "{706, 973}";
}
);
layerId = "5CBF0BAD-1756-4F16-9711-93DC239D102B";
paths = (
{
closed = 1;
nodes = (
"862 -24 OFFCURVE",
"1065 268 OFFCURVE",
"1076 480 CURVE SMOOTH",
"1092 793 OFFCURVE",
"1002 943 OFFCURVE",
"706 943 CURVE SMOOTH",
"431 943 OFFCURVE",
"144 734 OFFCURVE",
"139 396 CURVE SMOOTH",
"135 99 OFFCURVE",
"275 -24 OFFCURVE",
"581 -24 CURVE SMOOTH"
);
},
{
closed = 1;
nodes = (
"440 110 OFFCURVE",
"390 261 OFFCURVE",
"390 472 CURVE SMOOTH",
"390 613 OFFCURVE",
"517 809 OFFCURVE",
"661 809 CURVE SMOOTH",
"775 809 OFFCURVE",
"838 713 OFFCURVE",
"838 536 CURVE SMOOTH",
"838 356 OFFCURVE",
"768 110 OFFCURVE",
"581 110 CURVE SMOOTH"
);
}
);
width = 1153;
}
);
note = uni006F;
unicode = 006F;
},
{
glyphname = oslash;
layers = (
{
layerId = "92A672BF-229C-4BEC-8D25-4DDBB2A38145";
paths = (
{
closed = 1;
nodes = (
"333 -85 OFFCURVE",
"273 -11 OFFCURVE",
"483 -16 CURVE SMOOTH",
"809 -16 OFFCURVE",
"1014 168 OFFCURVE",
"1014 485 CURVE SMOOTH",
"1014 646 OFFCURVE",
"932 773 OFFCURVE",
"932 862 CURVE SMOOTH",
"932 910 OFFCURVE",
"941 952 OFFCURVE",
"941 995 CURVE SMOOTH",
"941 1024 OFFCURVE",
"928 1039 OFFCURVE",
"902 1039 CURVE SMOOTH",
"847 1039 OFFCURVE",
"804 974 OFFCURVE",
"613 974 CURVE SMOOTH",
"319 974 OFFCURVE",
"101 776 OFFCURVE",
"100 492 CURVE SMOOTH",
"99 233 OFFCURVE",
"201 159 OFFCURVE",
"201 69.5 CURVE SMOOTH",
"201 30.08 OFFCURVE",
"179 -16.692 OFFCURVE",
"179 -49 CURVE SMOOTH",
"179 -73 OFFCURVE",
"190.333 -85 OFFCURVE",
"213 -85 CURVE SMOOTH"
);
},
{
closed = 1;
nodes = (
"462 62 OFFCURVE",
"431 75 OFFCURVE",
"431 113 CURVE SMOOTH",
"431 131 OFFCURVE",
"775 741 OFFCURVE",
"781 741 CURVE SMOOTH",
"795.667 741 OFFCURVE",
"803 706.667 OFFCURVE",
"803 638 CURVE SMOOTH",
"802 466 OFFCURVE",
"779 328 OFFCURVE",
"737 230 CURVE SMOOTH",
"690 121 OFFCURVE",
"620 62 OFFCURVE",
"531 62 CURVE SMOOTH"
);
},
{
closed = 1;
nodes = (
"319 221 OFFCURVE",
"288 382 OFFCURVE",
"288 452 CURVE SMOOTH",
"291 740 OFFCURVE",
"377 892 OFFCURVE",
"546 892 CURVE SMOOTH",
"636 892 OFFCURVE",
"702 861 OFFCURVE",
"702 818 CURVE SMOOTH",
"702 725 OFFCURVE",
"403 221 OFFCURVE",
"349 221 CURVE SMOOTH"
);
}
);
width = 1141;
},
{
layerId = "5CBF0BAD-1756-4F16-9711-93DC239D102B";
paths = (
{
closed = 1;
nodes = (
"268 -61 OFFCURVE",
"321 -12 OFFCURVE",
"495 -12 CURVE SMOOTH",
"813 -12 OFFCURVE",
"1080 239 OFFCURVE",
"1089 524 CURVE SMOOTH",
"1093 659 OFFCURVE",
"1043 771 OFFCURVE",
"1043 806 CURVE SMOOTH",
"1043 855 OFFCURVE",
"1099 885 OFFCURVE",
"1101 950 CURVE SMOOTH",
"1102 979 OFFCURVE",
"1081 995 OFFCURVE",
"1043 995 CURVE SMOOTH",
"964 995 OFFCURVE",
"898 949 OFFCURVE",
"729 949 CURVE SMOOTH",
"463 949 OFFCURVE",
"175 736 OFFCURVE",
"175 437 CURVE SMOOTH",
"175 212 OFFCURVE",
"220 192 OFFCURVE",
"220 143 CURVE SMOOTH",
"220 108 OFFCURVE",
"152 10 OFFCURVE",
"152 -12 CURVE SMOOTH",
"152 -45 OFFCURVE",
"170 -61 OFFCURVE",
"206 -61 CURVE SMOOTH"
);
},
{
closed = 1;
nodes = (
"531 115 OFFCURVE",
"496 156 OFFCURVE",
"496 192 CURVE SMOOTH",
"496 221 OFFCURVE",
"574 308 OFFCURVE",
"665 425 CURVE SMOOTH",
"743 525 OFFCURVE",
"818 624 OFFCURVE",
"827 624 CURVE SMOOTH",
"847 624 OFFCURVE",
"862 427 OFFCURVE",
"763 244 CURVE SMOOTH",
"717 159 OFFCURVE",
"641 117 OFFCURVE",
"596 116 CURVE SMOOTH"
);
},
{
closed = 1;
nodes = (
"419 326 OFFCURVE",
"420 409 OFFCURVE",
"424 524 CURVE SMOOTH",
"428 649 OFFCURVE",
"603 820 OFFCURVE",
"665 820 CURVE SMOOTH",
"726 820 OFFCURVE",
"772 804 OFFCURVE",
"772 752 CURVE SMOOTH",
"772 700 OFFCURVE",
"476 326 OFFCURVE",
"441 326 CURVE SMOOTH"
);
}
);
width = 1218;
}
);
note = uni00F8;
unicode = 00F8;
},
{
glyphname = oe;
layers = (
{
layerId = "92A672BF-229C-4BEC-8D25-4DDBB2A38145";
paths = (
{
closed = 1;
nodes = (
"737 -12 OFFCURVE",
"873 127 OFFCURVE",
"896 127 CURVE SMOOTH",
"931 127 OFFCURVE",
"1048 -7 OFFCURVE",
"1251.5 -7 CURVE SMOOTH",
"1429 -7 OFFCURVE",
"1614 103 OFFCURVE",
"1614 177 CURVE SMOOTH",
"1614 199 OFFCURVE",
"1602 210 OFFCURVE",
"1578 210 CURVE SMOOTH",
"1558 210 OFFCURVE",
"1397 117 OFFCURVE",
"1299 114 CURVE SMOOTH",
"1133 112 OFFCURVE",
"1009 239 OFFCURVE",
"1009 402 CURVE SMOOTH",
"1009 504 OFFCURVE",
"1051 493 OFFCURVE",
"1163 490 CURVE SMOOTH",
"1304 486 OFFCURVE",
"1547 517 OFFCURVE",
"1570 524 CURVE SMOOTH",
"1615 539 OFFCURVE",
"1635 575 OFFCURVE",
"1638 622 CURVE SMOOTH",
"1653 824 OFFCURVE",
"1486 973 OFFCURVE",
"1271.5 981 CURVE SMOOTH",
"1059 989 OFFCURVE",
"945 842 OFFCURVE",
"900 842 CURVE SMOOTH",
"830 839 OFFCURVE",
"829 983 OFFCURVE",
"541 983 CURVE SMOOTH",
"264 983 OFFCURVE",
"73 773 OFFCURVE",
"73 484 CURVE SMOOTH",
"73 183 OFFCURVE",
"240 -12 OFFCURVE",
"535 -12 CURVE SMOOTH"
);
},
{
closed = 1;
nodes = (
"387 72 OFFCURVE",
"291 234 OFFCURVE",
"289 497 CURVE SMOOTH",
"288 754 OFFCURVE",
"361 896 OFFCURVE",
"499 896 CURVE SMOOTH",
"715 896 OFFCURVE",
"795 690 OFFCURVE",
"795 446 CURVE SMOOTH",
"792 174 OFFCURVE",
"731 72 OFFCURVE",
"531 72 CURVE SMOOTH"
);
},
{
closed = 1;
nodes = (
"1101 578 OFFCURVE",
"1000 550 OFFCURVE",
"998 625 CURVE SMOOTH",
"998 759.667 OFFCURVE",
"1099.333 895 OFFCURVE",
"1218 895 CURVE SMOOTH",
"1363 895 OFFCURVE",
"1431 811 OFFCURVE",
"1432 646 CURVE SMOOTH",
"1432 587 OFFCURVE",
"1387 592 OFFCURVE",
"1253 584 CURVE SMOOTH"
);
}
);
width = 1748;
},
{
layerId = "5CBF0BAD-1756-4F16-9711-93DC239D102B";
paths = (
{
closed = 1;
nodes = (
"747 -23 OFFCURVE",
"816 106 OFFCURVE",
"865 106 CURVE SMOOTH",
"910 106 OFFCURVE",
"945 -22 OFFCURVE",
"1139 -22 CURVE SMOOTH",
"1296 -22 OFFCURVE",
"1496 93 OFFCURVE",
"1496 182 CURVE SMOOTH",
"1496 214 OFFCURVE",
"1484 229 OFFCURVE",
"1461 229 CURVE SMOOTH",
"1418 229 OFFCURVE",
"1317 143 OFFCURVE",
"1230 143 CURVE SMOOTH",
"1139 143 OFFCURVE",
"1045 181 OFFCURVE",
"1045 330 CURVE SMOOTH",
"1045 361 OFFCURVE",
"1062 399 OFFCURVE",
"1118 413 CURVE SMOOTH",
"1308 459 OFFCURVE",
"1408 485 OFFCURVE",
"1454 500 CURVE SMOOTH",
"1543 528 OFFCURVE",
"1600 699 OFFCURVE",
"1600 758 CURVE SMOOTH",
"1600 848 OFFCURVE",
"1526 969 OFFCURVE",
"1343 969 CURVE SMOOTH",
"1118 969 OFFCURVE",
"1035 842 OFFCURVE",
"1011 842 CURVE SMOOTH",
"969 842 OFFCURVE",
"911 969 OFFCURVE",
"709 969 CURVE SMOOTH",
"463 969 OFFCURVE",
"205 727 OFFCURVE",
"205 400 CURVE SMOOTH",
"205 134 OFFCURVE",
"314 -23 OFFCURVE",
"526 -23 CURVE SMOOTH"
);
},
{
closed = 1;
nodes = (
"491 107 OFFCURVE",
"433 225 OFFCURVE",
"433 448 CURVE SMOOTH",
"433 690 OFFCURVE",
"579 848 OFFCURVE",
"700 848 CURVE SMOOTH",
"785 848 OFFCURVE",
"837 774 OFFCURVE",
"815 452 CURVE SMOOTH",
"801 249 OFFCURVE",
"691 107 OFFCURVE",
"557 107 CURVE SMOOTH"
);
},
{
closed = 1;
nodes = (
"1177 539 OFFCURVE",
"1062 528 OFFCURVE",
"1062 559 CURVE SMOOTH",
"1062 690 OFFCURVE",
"1189 848 OFFCURVE",
"1264 848 CURVE SMOOTH",
"1348 848 OFFCURVE",
"1381 827 OFFCURVE",
"1383 722 CURVE SMOOTH",
"1385 643 OFFCURVE",
"1335 609 OFFCURVE",
"1222 559 CURVE SMOOTH"
);
}
);
width = 1754;
}
);
note = uni0153;
unicode = 0153;
},
{
glyphname = p;
layers = (
{
layerId = "92A672BF-229C-4BEC-8D25-4DDBB2A38145";
paths = (
{
closed = 1;
nodes = (
"462.667 -456 OFFCURVE",
"515 -442.667 OFFCURVE",
"515 -416 CURVE SMOOTH",
"515 -388 OFFCURVE",
"425 -342 OFFCURVE",
"401.5 -303.5 CURVE SMOOTH",
"389.167 -283.167 OFFCURVE",
"383 -237 OFFCURVE",
"383 -165 CURVE SMOOTH",
"383 -93 OFFCURVE",
"396 14 OFFCURVE",
"450 14 CURVE SMOOTH",
"479 14 OFFCURVE",
"548 0 OFFCURVE",
"611 2 CURVE SMOOTH",
"887 11 OFFCURVE",
"1073 216 OFFCURVE",
"1073 492 CURVE SMOOTH",
"1073 787 OFFCURVE",
"935 973 OFFCURVE",
"715 977 CURVE SMOOTH",
"534 977 OFFCURVE",
"422 879 OFFCURVE",
"398 879 CURVE SMOOTH",
"365 879 OFFCURVE",
"341.933 962 OFFCURVE",
"281 962 CURVE SMOOTH",
"208 962 OFFCURVE",
"84 941 OFFCURVE",
"84 901 CURVE SMOOTH",
"84 892.371 OFFCURVE",
"185.941 799.198 OFFCURVE",
"193.5 774 CURVE SMOOTH",
"213 709 OFFCURVE",
"215 504 OFFCURVE",
"213 289 CURVE SMOOTH",
"211 63 OFFCURVE",
"204 -176 OFFCURVE",
"184 -273 CURVE SMOOTH",
"171 -336 OFFCURVE",
"81 -373 OFFCURVE",
"81 -409 CURVE SMOOTH",
"81 -444 OFFCURVE",
"165 -456 OFFCURVE",
"358 -456 CURVE SMOOTH"
);
},
{
closed = 1;
nodes = (
"389 80 OFFCURVE",
"387 198 OFFCURVE",
"388 449 CURVE SMOOTH",
"388 709 OFFCURVE",
"415 866 OFFCURVE",
"619 868 CURVE SMOOTH",
"780 870 OFFCURVE",
"873 733 OFFCURVE",
"874 481 CURVE SMOOTH",
"874 242 OFFCURVE",
"803 83 OFFCURVE",
"595 80 CURVE SMOOTH"
);
}
);
width = 1186;
},
{
layerId = "5CBF0BAD-1756-4F16-9711-93DC239D102B";
paths = (
{
closed = 1;
nodes = (
"309 -456 OFFCURVE",
"438 -442 OFFCURVE",
"438 -393 CURVE SMOOTH",
"438 -368 OFFCURVE",
"426 -323 OFFCURVE",
"403 -280 CURVE SMOOTH",
"391 -257 OFFCURVE",
"374 -181 OFFCURVE",
"374 -126 CURVE SMOOTH",
"374 -20 OFFCURVE",
"435 19 OFFCURVE",
"465 19 CURVE SMOOTH",
"512 16 OFFCURVE",
"563 0 OFFCURVE",
"620 0 CURVE SMOOTH",
"920 0 OFFCURVE",
"1136 340 OFFCURVE",
"1136 530 CURVE SMOOTH",
"1136 769 OFFCURVE",
"1058 937 OFFCURVE",
"859 937 CURVE SMOOTH",
"702 937 OFFCURVE",
"621 834 OFFCURVE",
"591 834 CURVE SMOOTH",
"533 834 OFFCURVE",
"539 947 OFFCURVE",
"449 947 CURVE SMOOTH",
"338 947 OFFCURVE",
"209 876 OFFCURVE",
"209 808 CURVE SMOOTH",
"209 714 OFFCURVE",
"265 663 OFFCURVE",
"265 595 CURVE SMOOTH",
"265 566 OFFCURVE",
"262 449 OFFCURVE",
"223 266 CURVE SMOOTH",
"184 84 OFFCURVE",
"151 -85 OFFCURVE",
"127 -150 CURVE SMOOTH",
"83 -270 OFFCURVE",
"52 -347 OFFCURVE",
"52 -387 CURVE SMOOTH",
"52 -433 OFFCURVE",
"83 -457 OFFCURVE",
"203 -456 CURVE"
);
},
{
closed = 1;
nodes = (
"475 129 OFFCURVE",
"454 173 OFFCURVE",
"456 307 CURVE SMOOTH",
"459 509 OFFCURVE",
"574 767 OFFCURVE",
"748 769 CURVE SMOOTH",
"859 770 OFFCURVE",
"899 700 OFFCURVE",
"899 521 CURVE SMOOTH",
"899 305 OFFCURVE",
"720 129 OFFCURVE",
"593 129 CURVE SMOOTH"
);
}
);
width = 1220;
}
);
note = uni0070;
unicode = 0070;
},
{
glyphname = thorn;
layers = (
{
layerId = "92A672BF-229C-4BEC-8D25-4DDBB2A38145";
paths = (
{
closed = 1;
nodes = (
"435 -447 OFFCURVE",
"510 -442 OFFCURVE",
"510 -397 CURVE SMOOTH",
"510 -373 OFFCURVE",
"425 -322 OFFCURVE",
"408.5 -284 CURVE SMOOTH",
"399.5 -264 OFFCURVE",
"395 -224.833 OFFCURVE",
"395 -166.5 CURVE SMOOTH",
"395 -108.167 OFFCURVE",
"408 -2 OFFCURVE",
"467 0 CURVE SMOOTH",
"489 1 OFFCURVE",
"573 1 OFFCURVE",
"611 -1 CURVE SMOOTH",
"895 -1 OFFCURVE",
"1081 207 OFFCURVE",
"1081 491 CURVE SMOOTH",
"1081 770 OFFCURVE",
"953 968 OFFCURVE",
"694 968 CURVE SMOOTH",
"554 968 OFFCURVE",
"447 900 OFFCURVE",
"426 900 CURVE SMOOTH",
"394 900 OFFCURVE",
"388 965 OFFCURVE",
"388 1166 CURVE SMOOTH",
"388 1381 OFFCURVE",
"371 1442 OFFCURVE",
"297 1442 CURVE SMOOTH",
"171 1442 OFFCURVE",
"69 1430 OFFCURVE",
"69 1385 CURVE SMOOTH",
"69 1348 OFFCURVE",
"179 1299 OFFCURVE",
"184.5 1225.5 CURVE SMOOTH",
"188 1181 OFFCURVE",
"195 984 OFFCURVE",
"196 463 CURVE SMOOTH",
"196 82 OFFCURVE",
"186 -244 OFFCURVE",
"174 -288.5 CURVE SMOOTH",
"166.217 -317.862 OFFCURVE",
"89 -397.181 OFFCURVE",
"89 -411 CURVE SMOOTH",
"89 -435 OFFCURVE",
"134 -447 OFFCURVE",
"224 -447 CURVE SMOOTH"
);
},
{
closed = 1;
nodes = (
"403 66 OFFCURVE",
"390 122 OFFCURVE",
"392 436 CURVE SMOOTH",
"392 824 OFFCURVE",
"454 884 OFFCURVE",
"634 884 CURVE SMOOTH",
"780 884 OFFCURVE",
"861 761 OFFCURVE",
"861 455 CURVE SMOOTH",
"861 231 OFFCURVE",
"762 66 OFFCURVE",
"614 66 CURVE SMOOTH"
);
}
);
width = 1194;
},
{
layerId = "5CBF0BAD-1756-4F16-9711-93DC239D102B";
paths = (
{
closed = 1;
nodes = (
"365 -478 OFFCURVE",
"429 -433 OFFCURVE",
"429 -382 CURVE SMOOTH",
"429 -357 OFFCURVE",
"412 -287 OFFCURVE",
"402 -271 CURVE SMOOTH",
"382 -238 OFFCURVE",
"373 -169 OFFCURVE",
"383 -120 CURVE SMOOTH",
"394 -65 OFFCURVE",
"441 -7 OFFCURVE",
"479 0 CURVE SMOOTH",
"498 4 OFFCURVE",
"573 -6 OFFCURVE",
"641.5 -5 CURVE SMOOTH",
"915 0 OFFCURVE",
"1125 356 OFFCURVE",
"1125 600 CURVE SMOOTH",
"1125 780 OFFCURVE",
"1054 927 OFFCURVE",
"857 927 CURVE SMOOTH",
"680 927 OFFCURVE",
"621 846 OFFCURVE",
"586 846 CURVE SMOOTH",
"543 846 OFFCURVE",
"562 991 OFFCURVE",
"608 1194 CURVE SMOOTH",
"631 1296 OFFCURVE",
"716 1482 OFFCURVE",
"578 1482 CURVE SMOOTH",
"457 1482 OFFCURVE",
"281 1442 OFFCURVE",
"281 1361 CURVE SMOOTH",
"281 1323 OFFCURVE",
"359 1282 OFFCURVE",
"359 1221 CURVE SMOOTH",
"359 1179 OFFCURVE",
"312 929 OFFCURVE",
"254 556 CURVE SMOOTH",
"199 204 OFFCURVE",
"172 78 OFFCURVE",
"166 41 CURVE SMOOTH",
"131 -192 OFFCURVE",
"23 -346 OFFCURVE",
"23 -411 CURVE SMOOTH",
"23 -477 OFFCURVE",
"102 -478 OFFCURVE",
"269 -478 CURVE SMOOTH"
);
},
{
closed = 1;
nodes = (
"479 117 OFFCURVE",
"453 161 OFFCURVE",
"454 260 CURVE SMOOTH",
"456 475 OFFCURVE",
"554 766 OFFCURVE",
"734 766 CURVE SMOOTH",
"820 766 OFFCURVE",
"874 700 OFFCURVE",
"874 500 CURVE SMOOTH",
"874 314 OFFCURVE",
"733 117 OFFCURVE",
"586 117 CURVE SMOOTH"
);
}
);
width = 1249;
}
);
note = uni00FE;
unicode = 00FE;
},
{
glyphname = q;
layers = (
{
layerId = "92A672BF-229C-4BEC-8D25-4DDBB2A38145";
paths = (
{
closed = 1;
nodes = (
"1016 -459 OFFCURVE",
"1079 -452 OFFCURVE",
"1079 -407 CURVE SMOOTH",
"1079 -386.793 OFFCURVE",
"1003.362 -341.191 OFFCURVE",
"985.5 -309.5 CURVE SMOOTH",
"965 -272 OFFCURVE",
"970 -216 OFFCURVE",
"969 561 CURVE SMOOTH",
"969 643 OFFCURVE",
"998 807 OFFCURVE",
"998 839 CURVE SMOOTH",
"998 908.333 OFFCURVE",
"973 943 OFFCURVE",
"923 943 CURVE SMOOTH",
"887 943 OFFCURVE",
"858 917 OFFCURVE",
"816 917 CURVE SMOOTH",
"776 917 OFFCURVE",
"630.186 968 OFFCURVE",
"528 968 CURVE SMOOTH",
"277 968 OFFCURVE",
"87 763 OFFCURVE",
"87 502 CURVE SMOOTH",
"87 216 OFFCURVE",
"212 2 OFFCURVE",
"472 2 CURVE SMOOTH",
"569.833 2 OFFCURVE",
"700.249 66 OFFCURVE",
"735 66 CURVE SMOOTH",
"762 66 OFFCURVE",
"773 -18 OFFCURVE",
"774 -106 CURVE SMOOTH",
"774 -181 OFFCURVE",
"766 -258 OFFCURVE",
"755 -290.5 CURVE SMOOTH",
"746.766 -313.601 OFFCURVE",
"644 -407 OFFCURVE",
"644 -427 CURVE SMOOTH",
"644 -453 OFFCURVE",
"695 -459 OFFCURVE",
"825 -459 CURVE SMOOTH"
);
},
{
closed = 1;
nodes = (
"380 90 OFFCURVE",
"284 242 OFFCURVE",
"284 507 CURVE SMOOTH",
"284 701 OFFCURVE",
"372 891 OFFCURVE",
"542 891 CURVE SMOOTH",
"755 891 OFFCURVE",
"764 778 OFFCURVE",
"764 488 CURVE SMOOTH",
"764 162 OFFCURVE",
"733 90 OFFCURVE",
"535 90 CURVE SMOOTH"
);
}
);
width = 1161;
},
{
layerId = "5CBF0BAD-1756-4F16-9711-93DC239D102B";
paths = (
{
closed = 1;
nodes = (
"942 -447 OFFCURVE",
"970 -415 OFFCURVE",
"970 -372 CURVE SMOOTH",
"970 -338 OFFCURVE",
"918 -278 OFFCURVE",
"916 -220 CURVE SMOOTH",
"915 -177 OFFCURVE",
"967 65 OFFCURVE",
"1005 313 CURVE SMOOTH",
"1067 720 OFFCURVE",
"1151 741 OFFCURVE",
"1149 841 CURVE SMOOTH",
"1147 934 OFFCURVE",
"1122 934 OFFCURVE",
"1070 934 CURVE SMOOTH",
"1042 934 OFFCURVE",
"989 920 OFFCURVE",
"957 921 CURVE SMOOTH",
"822 925 OFFCURVE",
"827 928 OFFCURVE",
"706 928 CURVE SMOOTH",
"458 928 OFFCURVE",
"151 700 OFFCURVE",
"151 356 CURVE SMOOTH",
"151 110 OFFCURVE",
"227 -9 OFFCURVE",
"460 -9 CURVE SMOOTH",
"583 -9 OFFCURVE",
"678 99 OFFCURVE",
"701 99 CURVE SMOOTH",
"733 99 OFFCURVE",
"736 13 OFFCURVE",
"717 -43 CURVE SMOOTH",
"680 -154 OFFCURVE",
"686 -162 OFFCURVE",
"666 -201 CURVE SMOOTH",
"645 -245 OFFCURVE",
"560 -340 OFFCURVE",
"560 -391 CURVE SMOOTH",
"560 -445 OFFCURVE",
"731 -462 OFFCURVE",
"846 -454 CURVE SMOOTH"
);
},
{
closed = 1;
nodes = (
"439 155 OFFCURVE",
"387 195 OFFCURVE",
"387 402 CURVE SMOOTH",
"387 657 OFFCURVE",
"577 806 OFFCURVE",
"706 806 CURVE SMOOTH",
"799 806 OFFCURVE",
"832 781 OFFCURVE",
"832 584 CURVE SMOOTH",
"832 393 OFFCURVE",
"680 158 OFFCURVE",
"518 156 CURVE SMOOTH"
);
}
);
width = 1197;
}
);
note = uni0071;
unicode = 0071;
},
{
glyphname = r;
layers = (
{
layerId = "92A672BF-229C-4BEC-8D25-4DDBB2A38145";
paths = (
{
closed = 1;
nodes = (
"505 -1 OFFCURVE",
"573 2 OFFCURVE",
"573 35 CURVE SMOOTH",
"573 91 OFFCURVE",
"475 108 OFFCURVE",
"443 169.5 CURVE SMOOTH",
"432 190 OFFCURVE",
"419 278 OFFCURVE",
"420 459 CURVE SMOOTH",
"421 615 OFFCURVE",
"453 799 OFFCURVE",
"596 799 CURVE SMOOTH",
"648 799 OFFCURVE",
"702 742 OFFCURVE",
"773 742 CURVE SMOOTH",
"808 742 OFFCURVE",
"836 782 OFFCURVE",
"836 818 CURVE SMOOTH",
"835 906 OFFCURVE",
"778 950 OFFCURVE",
"725 950 CURVE SMOOTH",
"571 950 OFFCURVE",
"488 837 OFFCURVE",
"447 837 CURVE SMOOTH",
"419 837 OFFCURVE",
"400 954 OFFCURVE",
"323 954 CURVE SMOOTH",
"243 954 OFFCURVE",
"102 932 OFFCURVE",
"102 891 CURVE SMOOTH",
"102 867 OFFCURVE",
"198 799 OFFCURVE",
"208 763.5 CURVE SMOOTH",
"217 730 OFFCURVE",
"223 627.833 OFFCURVE",
"223 459.5 CURVE SMOOTH",
"223 291.167 OFFCURVE",
"215 193 OFFCURVE",
"207.5 163 CURVE SMOOTH",
"199 130 OFFCURVE",
"96 78 OFFCURVE",
"96 43 CURVE SMOOTH",
"96 9 OFFCURVE",
"136 2 OFFCURVE",
"319 -1 CURVE SMOOTH"
);
}
);
width = 878;
},
{
layerId = "5CBF0BAD-1756-4F16-9711-93DC239D102B";
paths = (
{
closed = 1;
nodes = (
"456 2 OFFCURVE",
"518 68 OFFCURVE",
"522 100 CURVE SMOOTH",
"530 173 OFFCURVE",
"503 229 OFFCURVE",
"483 289 CURVE SMOOTH",
"472 323 OFFCURVE",
"477 406 OFFCURVE",
"513 482 CURVE SMOOTH",
"573 607 OFFCURVE",
"615 700 OFFCURVE",
"677 700 CURVE SMOOTH",
"738 700 OFFCURVE",
"722 685 OFFCURVE",
"812 685 CURVE SMOOTH",
"858 685 OFFCURVE",
"943 739 OFFCURVE",
"943 819 CURVE SMOOTH",
"943 887 OFFCURVE",
"903 909 OFFCURVE",
"825 909 CURVE SMOOTH",
"686 909 OFFCURVE",
"594 734 OFFCURVE",
"545 734 CURVE SMOOTH",
"521 734 OFFCURVE",
"543 780 OFFCURVE",
"539 859 CURVE SMOOTH",
"537 902 OFFCURVE",
"491 922 OFFCURVE",
"379 918 CURVE SMOOTH",
"274 914 OFFCURVE",
"194 864 OFFCURVE",
"195 780 CURVE SMOOTH",
"196 700 OFFCURVE",
"263 685 OFFCURVE",
"263 532 CURVE SMOOTH",
"263 405 OFFCURVE",
"189 297 OFFCURVE",
"181 272 CURVE SMOOTH",
"163 214 OFFCURVE",
"148 174 OFFCURVE",
"148 119 CURVE SMOOTH",
"148 69 OFFCURVE",
"148 0 OFFCURVE",
"343 1 CURVE SMOOTH"
);
}
);
width = 941;
}
);
note = uni0072;
unicode = 0072;
},
{
glyphname = s;
layers = (
{
anchors = (
{
name = top;
position = "{464, 971}";
}
);
layerId = "92A672BF-229C-4BEC-8D25-4DDBB2A38145";
paths = (
{
closed = 1;
nodes = (
"806 414 OFFCURVE",
"714 481 OFFCURVE",
"525.5 558.5 CURVE SMOOTH",
"393 612 OFFCURVE",
"278 656 OFFCURVE",
"281 759 CURVE SMOOTH",
"282 825 OFFCURVE",
"343 884 OFFCURVE",
"447.5 884 CURVE SMOOTH",
"619 884 OFFCURVE",
"639 704 OFFCURVE",
"707 704 CURVE SMOOTH",
"746.333 704 OFFCURVE",
"766 743.333 OFFCURVE",
"766 822 CURVE SMOOTH",
"766 967 OFFCURVE",
"652 971 OFFCURVE",
"447 971 CURVE SMOOTH",
"256.333 971 OFFCURVE",
"118 859 OFFCURVE",
"118 715 CURVE SMOOTH",
"118 549 OFFCURVE",
"236 483 OFFCURVE",
"445 386 CURVE SMOOTH",
"552 335 OFFCURVE",
"641 313 OFFCURVE",
"636 205 CURVE SMOOTH",
"631 114 OFFCURVE",
"551 67 OFFCURVE",
"445 69 CURVE SMOOTH",
"243 72 OFFCURVE",
"203 282 OFFCURVE",
"151 282 CURVE SMOOTH",
"109 282 OFFCURVE",
"96 245 OFFCURVE",
"96 155 CURVE SMOOTH",
"96 19 OFFCURVE",
"180 -17 OFFCURVE",
"457 -17 CURVE SMOOTH",
"638 -17 OFFCURVE",
"806 80 OFFCURVE",
"806 246 CURVE SMOOTH"
);
}
);
width = 894;
},
{
anchors = (
{
name = top;
position = "{595, 959}";
}
);
layerId = "5CBF0BAD-1756-4F16-9711-93DC239D102B";
paths = (
{
closed = 1;
nodes = (
"657 -22 OFFCURVE",
"816 142 OFFCURVE",
"816 266 CURVE SMOOTH",
"816 392 OFFCURVE",
"749 459 OFFCURVE",
"585 555 CURVE SMOOTH",
"454 632 OFFCURVE",
"430 662 OFFCURVE",
"429 721 CURVE SMOOTH",
"428 770 OFFCURVE",
"472 810 OFFCURVE",
"546 810 CURVE SMOOTH",
"666 810 OFFCURVE",
"694 664 OFFCURVE",
"787 664 CURVE SMOOTH",
"839 664 OFFCURVE",
"871 719 OFFCURVE",
"871 772 CURVE SMOOTH",
"871 915 OFFCURVE",
"778 937 OFFCURVE",
"585 937 CURVE SMOOTH",
"368 937 OFFCURVE",
"195 812 OFFCURVE",
"195 651 CURVE SMOOTH",
"195 513 OFFCURVE",
"285 459 OFFCURVE",
"343 425 CURVE SMOOTH",
"466 353 OFFCURVE",
"585 309 OFFCURVE",
"585 234 CURVE SMOOTH",
"585 164 OFFCURVE",
"534 110 OFFCURVE",
"458 110 CURVE SMOOTH",
"307 110 OFFCURVE",
"246 277 OFFCURVE",
"156 277 CURVE SMOOTH",
"126 277 OFFCURVE",
"83 182 OFFCURVE",
"83 102 CURVE SMOOTH",
"83 17 OFFCURVE",
"173 -22 OFFCURVE",
"500 -22 CURVE SMOOTH"
);
}
);
width = 924;
}
);
note = uni0073;
unicode = 0073;
},
{
glyphname = germandbls;
layers = (
{
layerId = "92A672BF-229C-4BEC-8D25-4DDBB2A38145";
paths = (
{
closed = 1;
nodes = (
"1022.333 -5 OFFCURVE",
"1177 118.5 OFFCURVE",
"1177 284.5 CURVE SMOOTH",
"1177 580 OFFCURVE",
"825 671 OFFCURVE",
"825 806.5 CURVE SMOOTH",
"825 930 OFFCURVE",
"1010 1035 OFFCURVE",
"1010 1180 CURVE SMOOTH",
"1010 1346 OFFCURVE",
"843 1466 OFFCURVE",
"660 1466 CURVE SMOOTH",
"434.667 1466 OFFCURVE",
"273 1358 OFFCURVE",
"225 1131 CURVE SMOOTH",
"190 967 OFFCURVE",
"158 935 OFFCURVE",
"158 872 CURVE SMOOTH",
"158 809 OFFCURVE",
"205 715 OFFCURVE",
"204.5 660 CURVE SMOOTH",
"204 572 OFFCURVE",
"200 256 OFFCURVE",
"200 184 CURVE SMOOTH",
"200 131 OFFCURVE",
"101 75 OFFCURVE",
"101 28 CURVE SMOOTH",
"101 3 OFFCURVE",
"141.333 -12 OFFCURVE",
"222 -12 CURVE SMOOTH",
"337 -12 OFFCURVE",
"423 -14 OFFCURVE",
"423 70 CURVE SMOOTH",
"423 126 OFFCURVE",
"415 366 OFFCURVE",
"415 695 CURVE SMOOTH",
"415 1065 OFFCURVE",
"409 1348 OFFCURVE",
"656 1348 CURVE SMOOTH",
"753.333 1348 OFFCURVE",
"826 1273.333 OFFCURVE",
"826 1168 CURVE SMOOTH",
"826 1055.801 OFFCURVE",
"643 879.098 OFFCURVE",
"643 755 CURVE SMOOTH",
"644 537 OFFCURVE",
"972 504 OFFCURVE",
"976 286 CURVE SMOOTH",
"976 197 OFFCURVE",
"910 126 OFFCURVE",
"812 126 CURVE SMOOTH",
"763 126 OFFCURVE",
"702 212 OFFCURVE",
"669 212 CURVE SMOOTH",
"623.667 212 OFFCURVE",
"601 186 OFFCURVE",
"601 134 CURVE SMOOTH",
"601 41.333 OFFCURVE",
"677 -5 OFFCURVE",
"829 -5 CURVE SMOOTH"
);
}
);
width = 1255;
},
{
layerId = "5CBF0BAD-1756-4F16-9711-93DC239D102B";
paths = (
{
closed = 1;
nodes = (
"578 223 OFFCURVE",
"533 143 OFFCURVE",
"533 109 CURVE SMOOTH",
"533 22 OFFCURVE",
"638 -15 OFFCURVE",
"790 -15 CURVE SMOOTH",
"1009 -15 OFFCURVE",
"1195 127 OFFCURVE",
"1197 310 CURVE SMOOTH",
"1199 529 OFFCURVE",
"955 646 OFFCURVE",
"955 773 CURVE SMOOTH",
"955 905 OFFCURVE",
"1193 1019 OFFCURVE",
"1193 1189 CURVE SMOOTH",
"1193 1386 OFFCURVE",
"978 1464 OFFCURVE",
"890 1464 CURVE SMOOTH",
"646 1464 OFFCURVE",
"508 1317 OFFCURVE",
"423 1210 CURVE SMOOTH",
"368 1141 OFFCURVE",
"269 1019 OFFCURVE",
"269 934 CURVE SMOOTH",
"269 904 OFFCURVE",
"271 773 OFFCURVE",
"247 472 CURVE SMOOTH",
"232 281 OFFCURVE",
"184 -89 OFFCURVE",
"52 -116 CURVE SMOOTH",
"-1 -127 OFFCURVE",
"-39 -137 OFFCURVE",
"-39 -179 CURVE SMOOTH",
"-39 -232 OFFCURVE",
"-13 -262 OFFCURVE",
"74 -262 CURVE SMOOTH",
"256 -262 OFFCURVE",
"348 -57 OFFCURVE",
"411 111 CURVE SMOOTH",
"442 194 OFFCURVE",
"506 527 OFFCURVE",
"519 627 CURVE SMOOTH",
"564 987 OFFCURVE",
"679 1276 OFFCURVE",
"824 1276 CURVE SMOOTH",
"890 1276 OFFCURVE",
"935 1246 OFFCURVE",
"935 1174 CURVE SMOOTH",
"935 1054 OFFCURVE",
"718 875 OFFCURVE",
"718 725 CURVE SMOOTH",
"718 535 OFFCURVE",
"935 458 OFFCURVE",
"935 281 CURVE SMOOTH",
"935 208 OFFCURVE",
"903 157 OFFCURVE",
"814 157 CURVE SMOOTH",
"782 157 OFFCURVE",
"672 223 OFFCURVE",
"640 223 CURVE SMOOTH"
);
}
);
width = 1308;
}
);
note = uni00DF;
unicode = 00DF;
},
{
glyphname = t;
layers = (
{
layerId = "92A672BF-229C-4BEC-8D25-4DDBB2A38145";
paths = (
{
closed = 1;
nodes = (
"538 -13 OFFCURVE",
"686 44 OFFCURVE",
"686 109 CURVE SMOOTH",
"686 135 OFFCURVE",
"675 148 OFFCURVE",
"653 148 CURVE SMOOTH",
"636 148 OFFCURVE",
"536 113 OFFCURVE",
"499 113 CURVE SMOOTH",
"386 113 OFFCURVE",
"388 290 OFFCURVE",
"387 488 CURVE SMOOTH",
"386 629 OFFCURVE",
"375.243 730.792 OFFCURVE",
"419 806 CURVE SMOOTH",
"457.222 873.45 OFFCURVE",
"634 830 OFFCURVE",
"634 903.5 CURVE SMOOTH",
"634 928 OFFCURVE",
"604 947 OFFCURVE",
"543 961 CURVE SMOOTH",
"422 989 OFFCURVE",
"407 1015 OFFCURVE",
"395 1103.5 CURVE SMOOTH",
"385 1174 OFFCURVE",
"384 1217 OFFCURVE",
"325.5 1217 CURVE SMOOTH",
"298.5 1217 OFFCURVE",
"273 1183 OFFCURVE",
"248.5 1115 CURVE SMOOTH",
"200 979 OFFCURVE",
"106 936 OFFCURVE",
"82 893 CURVE SMOOTH",
"68 868 OFFCURVE",
"166 816 OFFCURVE",
"179.5 784 CURVE SMOOTH",
"198 739 OFFCURVE",
"199 678 OFFCURVE",
"201 447 CURVE SMOOTH",
"201 177 OFFCURVE",
"224 -13 OFFCURVE",
"451.5 -13 CURVE SMOOTH"
);
}
);
width = 743;
},
{
layerId = "5CBF0BAD-1756-4F16-9711-93DC239D102B";
paths = (
{
closed = 1;
nodes = (
"493 -12 OFFCURVE",
"693 44 OFFCURVE",
"693 142 CURVE SMOOTH",
"693 172 OFFCURVE",
"673 188 OFFCURVE",
"632 188 CURVE SMOOTH",
"611 188 OFFCURVE",
"582 184 OFFCURVE",
"536 184 CURVE SMOOTH",
"476 184 OFFCURVE",
"445 199 OFFCURVE",
"445 327 CURVE SMOOTH",
"445 477 OFFCURVE",
"514 629 OFFCURVE",
"532 673 CURVE SMOOTH",
"585 805 OFFCURVE",
"743 812 OFFCURVE",
"743 873 CURVE SMOOTH",
"743 919 OFFCURVE",
"727 930 OFFCURVE",
"669 946 CURVE SMOOTH",
"641 954 OFFCURVE",
"632 964 OFFCURVE",
"608 990 CURVE SMOOTH",
"585 1015 OFFCURVE",
"614 1176 OFFCURVE",
"510 1176 CURVE SMOOTH",
"415 1176 OFFCURVE",
"365 1113 OFFCURVE",
"334 990 CURVE SMOOTH",
"321 938 OFFCURVE",
"170 883 OFFCURVE",
"170 844 CURVE SMOOTH",
"170 805 OFFCURVE",
"237 782 OFFCURVE",
"241 745 CURVE SMOOTH",
"250 663 OFFCURVE",
"202 353 OFFCURVE",
"202 238 CURVE SMOOTH",
"202 51 OFFCURVE",
"255 -12 OFFCURVE",
"373 -12 CURVE SMOOTH"
);
}
);
width = 804;
}
);
note = uni0074;
unicode = 0074;
},
{
glyphname = u;
layers = (
{
anchors = (
{
name = top;
position = "{547, 952}";
}
);
layerId = "92A672BF-229C-4BEC-8D25-4DDBB2A38145";
paths = (
{
closed = 1;
nodes = (
"643 -16 OFFCURVE",
"717 88 OFFCURVE",
"775 91 CURVE SMOOTH",
"805 93 OFFCURVE",
"825 39 OFFCURVE",
"867 10 CURVE SMOOTH",
"892 -7 OFFCURVE",
"943 -16 OFFCURVE",
"993 -14 CURVE SMOOTH",
"1060 -12 OFFCURVE",
"1124 9 OFFCURVE",
"1124 51 CURVE SMOOTH",
"1124 78 OFFCURVE",
"1023 158 OFFCURVE",
"1017 180.5 CURVE SMOOTH",
"1007.667 217.5 OFFCURVE",
"998 327 OFFCURVE",
"1003 510 CURVE SMOOTH",
"1010 748 OFFCURVE",
"1002 860 OFFCURVE",
"984 911 CURVE SMOOTH",
"970 950 OFFCURVE",
"951 955 OFFCURVE",
"927 955 CURVE SMOOTH",
"786 955 OFFCURVE",
"717 942 OFFCURVE",
"717 916 CURVE SMOOTH",
"717 877 OFFCURVE",
"788 854 OFFCURVE",
"801 803 CURVE SMOOTH",
"807 779.667 OFFCURVE",
"810 686.167 OFFCURVE",
"810 522.5 CURVE SMOOTH",
"810 195.167 OFFCURVE",
"725 108 OFFCURVE",
"563 106 CURVE SMOOTH",
"385 103 OFFCURVE",
"385 277 OFFCURVE",
"385 526 CURVE SMOOTH",
"385 688 OFFCURVE",
"393 826 OFFCURVE",
"364 900 CURVE SMOOTH",
"349 937 OFFCURVE",
"325 958 OFFCURVE",
"285 958 CURVE SMOOTH",
"142 958 OFFCURVE",
"56 952 OFFCURVE",
"56 905 CURVE SMOOTH",
"56 860 OFFCURVE",
"151.669 859.034 OFFCURVE",
"173.5 814.5 CURVE SMOOTH",
"224 712 OFFCURVE",
"182 541 OFFCURVE",
"182 378 CURVE SMOOTH",
"182 146 OFFCURVE",
"242 -18 OFFCURVE",
"463 -17 CURVE SMOOTH"
);
}
);
width = 1203;
},
{
anchors = (
{
name = top;
position = "{712, 952}";
}
);
layerId = "5CBF0BAD-1756-4F16-9711-93DC239D102B";
paths = (
{
closed = 1;
nodes = (
"597 -19 OFFCURVE",
"708 177 OFFCURVE",
"758 177 CURVE SMOOTH",
"782 177 OFFCURVE",
"777 95 OFFCURVE",
"786 71 CURVE SMOOTH",
"805 22 OFFCURVE",
"875 -5 OFFCURVE",
"949 -5 CURVE SMOOTH",
"1018 -5 OFFCURVE",
"1110 67 OFFCURVE",
"1110 121 CURVE SMOOTH",
"1110 168 OFFCURVE",
"1088 198 OFFCURVE",
"1065 235 CURVE SMOOTH",
"1046 266 OFFCURVE",
"1041 331 OFFCURVE",
"1041 412 CURVE SMOOTH",
"1041 551 OFFCURVE",
"1102 718 OFFCURVE",
"1102 778 CURVE SMOOTH",
"1102 849 OFFCURVE",
"1041 903 OFFCURVE",
"968 903 CURVE SMOOTH",
"865 903 OFFCURVE",
"823 856 OFFCURVE",
"823 806 CURVE SMOOTH",
"823 767 OFFCURVE",
"843 730 OFFCURVE",
"845 680 CURVE SMOOTH",
"848 617 OFFCURVE",
"834 549 OFFCURVE",
"823 500 CURVE SMOOTH",
"773 277 OFFCURVE",
"624 171 OFFCURVE",
"544 171 CURVE SMOOTH",
"457 171 OFFCURVE",
"451 223 OFFCURVE",
"451 322 CURVE SMOOTH",
"451 506 OFFCURVE",
"520 680 OFFCURVE",
"520 785 CURVE SMOOTH",
"520 844 OFFCURVE",
"493 910 OFFCURVE",
"425 910 CURVE SMOOTH",
"276 910 OFFCURVE",
"161 854 OFFCURVE",
"161 785 CURVE SMOOTH",
"161 742 OFFCURVE",
"244 757 OFFCURVE",
"261 730 CURVE SMOOTH",
"291 681 OFFCURVE",
"204 376 OFFCURVE",
"206 214 CURVE SMOOTH",
"208 82 OFFCURVE",
"261 -19 OFFCURVE",
"408 -19 CURVE SMOOTH"
);
}
);
width = 1249;
}
);
note = uni0075;
unicode = 0075;
},
{
glyphname = v;
layers = (
{
layerId = "92A672BF-229C-4BEC-8D25-4DDBB2A38145";
paths = (
{
closed = 1;
nodes = (
"581.5 -12 OFFCURVE",
"617.167 21.667 OFFCURVE",
"651.5 89 CURVE SMOOTH",
"664 113 OFFCURVE",
"937 768 OFFCURVE",
"944 780 CURVE SMOOTH",
"970 828 OFFCURVE",
"1071 872 OFFCURVE",
"1071 915 CURVE SMOOTH",
"1071 944 OFFCURVE",
"1026 954 OFFCURVE",
"925 954 CURVE SMOOTH",
"805.667 954 OFFCURVE",
"746 942 OFFCURVE",
"746 918 CURVE SMOOTH",
"746 901 OFFCURVE",
"816 832 OFFCURVE",
"816 795 CURVE SMOOTH",
"816 708.333 OFFCURVE",
"760.333 548 OFFCURVE",
"649 314 CURVE SMOOTH",
"620.333 253.333 OFFCURVE",
"603.333 223 OFFCURVE",
"598 223 CURVE SMOOTH",
"586.667 223 OFFCURVE",
"573.5 239.5 OFFCURVE",
"558.5 272.5 CURVE SMOOTH",
"534 327 OFFCURVE",
"373 786 OFFCURVE",
"373 827.5 CURVE SMOOTH",
"373 845.833 OFFCURVE",
"388.333 873.667 OFFCURVE",
"419 911 CURVE",
"419 950 OFFCURVE",
"385 950 OFFCURVE",
"252 952 CURVE SMOOTH",
"104 952 OFFCURVE",
"30 940 OFFCURVE",
"30 916 CURVE SMOOTH",
"30 877 OFFCURVE",
"135 833 OFFCURVE",
"166 776 CURVE SMOOTH",
"262 596 OFFCURVE",
"369 233 OFFCURVE",
"436 96 CURVE SMOOTH",
"471.333 24 OFFCURVE",
"507.5 -12 OFFCURVE",
"544.5 -12 CURVE SMOOTH"
);
}
);
width = 1096;
},
{
layerId = "5CBF0BAD-1756-4F16-9711-93DC239D102B";
paths = (
{
closed = 1;
nodes = (
"550 -18 OFFCURVE",
"588 2 OFFCURVE",
"649 73 CURVE SMOOTH",
"814 264 OFFCURVE",
"907 383 OFFCURVE",
"1044 623 CURVE SMOOTH",
"1096 713 OFFCURVE",
"1142 775 OFFCURVE",
"1142 842 CURVE SMOOTH",
"1142 880 OFFCURVE",
"1113 936 OFFCURVE",
"1020 935 CURVE SMOOTH",
"866 934 OFFCURVE",
"811 888 OFFCURVE",
"811 831 CURVE SMOOTH",
"811 786 OFFCURVE",
"840 688 OFFCURVE",
"840 636 CURVE SMOOTH",
"840 591 OFFCURVE",
"801 515 OFFCURVE",
"712 358 CURVE SMOOTH",
"688 316 OFFCURVE",
"614 246 OFFCURVE",
"606 246 CURVE SMOOTH",
"599 246 OFFCURVE",
"582 315 OFFCURVE",
"572 373 CURVE SMOOTH",
"548 511 OFFCURVE",
"533 636 OFFCURVE",
"541 764 CURVE SMOOTH",
"543 802 OFFCURVE",
"553 819 OFFCURVE",
"553 850 CURVE SMOOTH",
"553 899 OFFCURVE",
"500 935 OFFCURVE",
"428 932 CURVE SMOOTH",
"223 923 OFFCURVE",
"134 841 OFFCURVE",
"134 790 CURVE SMOOTH",
"134 728 OFFCURVE",
"240 718 OFFCURVE",
"265 700 CURVE SMOOTH",
"296 677 OFFCURVE",
"356 246 OFFCURVE",
"396 70 CURVE SMOOTH",
"405 30 OFFCURVE",
"445 -18 OFFCURVE",
"491 -18 CURVE SMOOTH"
);
}
);
width = 1151;
}
);
note = uni0076;
unicode = 0076;
},
{
glyphname = w;
layers = (
{
layerId = "92A672BF-229C-4BEC-8D25-4DDBB2A38145";
paths = (
{
closed = 1;
nodes = (
"1152 19 OFFCURVE",
"1184.167 40.333 OFFCURVE",
"1208.5 83 CURVE SMOOTH",
"1267 185 OFFCURVE",
"1394 622 OFFCURVE",
"1458 763 CURVE SMOOTH",
"1479 810 OFFCURVE",
"1535 883 OFFCURVE",
"1535 915 CURVE SMOOTH",
"1535 935 OFFCURVE",
"1504 948 OFFCURVE",
"1442 948 CURVE SMOOTH",
"1342 948 OFFCURVE",
"1292 925 OFFCURVE",
"1292 879 CURVE SMOOTH",
"1292 844 OFFCURVE",
"1316 817 OFFCURVE",
"1316 774 CURVE SMOOTH",
"1316 670 OFFCURVE",
"1212 304 OFFCURVE",
"1146 304 CURVE SMOOTH",
"1096 304 OFFCURVE",
"969 638 OFFCURVE",
"973 704 CURVE SMOOTH",
"975 740 OFFCURVE",
"981 790 OFFCURVE",
"983 826 CURVE SMOOTH",
"988 912 OFFCURVE",
"918 932 OFFCURVE",
"834.5 932 CURVE SMOOTH",
"769 932 OFFCURVE",
"675 891 OFFCURVE",
"675 840 CURVE SMOOTH",
"675 824.667 OFFCURVE",
"698 776 OFFCURVE",
"698 678 CURVE SMOOTH",
"698 549 OFFCURVE",
"609 292 OFFCURVE",
"565 292 CURVE SMOOTH",
"510.333 292 OFFCURVE",
"386 637 OFFCURVE",
"386 793 CURVE SMOOTH",
"387 811 OFFCURVE",
"389 830 OFFCURVE",
"390 848 CURVE SMOOTH",
"390 938 OFFCURVE",
"323 961 OFFCURVE",
"203 961 CURVE SMOOTH",
"137 961 OFFCURVE",
"81 960.961 OFFCURVE",
"81 894 CURVE SMOOTH",
"81 883.333 OFFCURVE",
"92 860.667 OFFCURVE",
"114 826 CURVE SMOOTH",
"267 582 OFFCURVE",
"294 346 OFFCURVE",
"393 134 CURVE SMOOTH",
"425.667 63.333 OFFCURVE",
"461 28 OFFCURVE",
"499 28 CURVE SMOOTH",
"527 28 OFFCURVE",
"555.333 54 OFFCURVE",
"584 106 CURVE SMOOTH",
"599 133 OFFCURVE",
"789 592 OFFCURVE",
"806 592 CURVE SMOOTH",
"833 592 OFFCURVE",
"997 155 OFFCURVE",
"1028 98 CURVE SMOOTH",
"1056.667 45.333 OFFCURVE",
"1084.667 19 OFFCURVE",
"1112 19 CURVE SMOOTH"
);
}
);
width = 1611;
},
{
layerId = "5CBF0BAD-1756-4F16-9711-93DC239D102B";
paths = (
{
closed = 1;
nodes = (
"1111 -7 OFFCURVE",
"1163 42 OFFCURVE",
"1220 103 CURVE SMOOTH",
"1278 166 OFFCURVE",
"1481 555 OFFCURVE",
"1530 644 CURVE SMOOTH",
"1549 680 OFFCURVE",
"1592 739 OFFCURVE",
"1592 790 CURVE SMOOTH",
"1592 842 OFFCURVE",
"1559 907 OFFCURVE",
"1490 907 CURVE SMOOTH",
"1407 906 OFFCURVE",
"1321 862 OFFCURVE",
"1321 789 CURVE SMOOTH",
"1323 753 OFFCURVE",
"1324 688 OFFCURVE",
"1324 652 CURVE SMOOTH",
"1324 541 OFFCURVE",
"1200 330 OFFCURVE",
"1156 330 CURVE SMOOTH",
"1117 330 OFFCURVE",
"1086 469 OFFCURVE",
"1086 605 CURVE SMOOTH",
"1086 631 OFFCURVE",
"1086 722 OFFCURVE",
"1086 739 CURVE SMOOTH",
"1086 826 OFFCURVE",
"1067 887 OFFCURVE",
"955 887 CURVE SMOOTH",
"839 887 OFFCURVE",
"774 826 OFFCURVE",
"774 747 CURVE SMOOTH",
"774 679 OFFCURVE",
"752 578 OFFCURVE",
"743 541 CURVE SMOOTH",
"719 447 OFFCURVE",
"656 307 OFFCURVE",
"612 307 CURVE SMOOTH",
"566 307 OFFCURVE",
"541 484 OFFCURVE",
"548 644 CURVE SMOOTH",
"552 735 OFFCURVE",
"566 745 OFFCURVE",
"564 798 CURVE SMOOTH",
"562 855 OFFCURVE",
"514 907 OFFCURVE",
"393 907 CURVE SMOOTH",
"254 907 OFFCURVE",
"189 877 OFFCURVE",
"189 806 CURVE SMOOTH",
"189 724 OFFCURVE",
"300 585 OFFCURVE",
"325 461 CURVE SMOOTH",
"343 370 OFFCURVE",
"358 194 OFFCURVE",
"374 147 CURVE SMOOTH",
"394 87 OFFCURVE",
"425 42 OFFCURVE",
"471 42 CURVE SMOOTH",
"517 42 OFFCURVE",
"583 88 OFFCURVE",
"616 124 CURVE SMOOTH",
"660 173 OFFCURVE",
"827 414 OFFCURVE",
"844 414 CURVE SMOOTH",
"864 414 OFFCURVE",
"931 132 OFFCURVE",
"947 101 CURVE SMOOTH",
"975 49 OFFCURVE",
"1016 -7 OFFCURVE",
"1052 -7 CURVE SMOOTH"
);
}
);
width = 1651;
}
);
note = uni0077;
unicode = 0077;
},
{
glyphname = x;
layers = (
{
layerId = "92A672BF-229C-4BEC-8D25-4DDBB2A38145";
paths = (
{
closed = 1;
nodes = (
"314 -5 OFFCURVE",
"378 0 OFFCURVE",
"378 28 CURVE SMOOTH",
"378 51 OFFCURVE",
"339 65 OFFCURVE",
"339 97 CURVE SMOOTH",
"339 167 OFFCURVE",
"484.333 344 OFFCURVE",
"519 344 CURVE SMOOTH",
"544 344 OFFCURVE",
"690 132.333 OFFCURVE",
"690 91 CURVE SMOOTH",
"690 70 OFFCURVE",
"656 56 OFFCURVE",
"656 36 CURVE SMOOTH",
"656 13.333 OFFCURVE",
"700.333 2 OFFCURVE",
"789 2 CURVE SMOOTH",
"964.333 2 OFFCURVE",
"1052 14.667 OFFCURVE",
"1052 40 CURVE SMOOTH",
"1052 56 OFFCURVE",
"932 131 OFFCURVE",
"896 174 CURVE SMOOTH",
"746.667 349.333 OFFCURVE",
"672 457.5 OFFCURVE",
"672 498.5 CURVE SMOOTH",
"672 539.5 OFFCURVE",
"735.667 633 OFFCURVE",
"863 779 CURVE SMOOTH",
"899 821 OFFCURVE",
"1030 874 OFFCURVE",
"1030 907 CURVE SMOOTH",
"1030 935.667 OFFCURVE",
"978.833 950 OFFCURVE",
"876.5 950 CURVE SMOOTH",
"774.167 950 OFFCURVE",
"723 937.333 OFFCURVE",
"723 912 CURVE SMOOTH",
"723 893 OFFCURVE",
"754 864 OFFCURVE",
"754 848 CURVE SMOOTH",
"754 796 OFFCURVE",
"631 627 OFFCURVE",
"585 627 CURVE SMOOTH",
"561 627 OFFCURVE",
"429 814 OFFCURVE",
"429 858 CURVE SMOOTH",
"429 879 OFFCURVE",
"457 899 OFFCURVE",
"457 918 CURVE SMOOTH",
"457 950 OFFCURVE",
"427 952 OFFCURVE",
"326 952 CURVE SMOOTH",
"156.667 952 OFFCURVE",
"72 936.333 OFFCURVE",
"72 905 CURVE SMOOTH",
"72 879 OFFCURVE",
"189 818 OFFCURVE",
"227 774 CURVE SMOOTH",
"362.333 614.667 OFFCURVE",
"430 513.5 OFFCURVE",
"430 470.5 CURVE SMOOTH",
"430 427.5 OFFCURVE",
"358.667 326 OFFCURVE",
"216 166 CURVE SMOOTH",
"179 124 OFFCURVE",
"55 69 OFFCURVE",
"55 36 CURVE SMOOTH",
"55 8.667 OFFCURVE",
"111.667 -5 OFFCURVE",
"225 -5 CURVE SMOOTH"
);
}
);
width = 1105;
},
{
layerId = "5CBF0BAD-1756-4F16-9711-93DC239D102B";
paths = (
{
closed = 1;
nodes = (
"371 88 OFFCURVE",
"399 141 OFFCURVE",
"417 177 CURVE SMOOTH",
"444 231 OFFCURVE",
"492 301 OFFCURVE",
"526 301 CURVE SMOOTH",
"547 301 OFFCURVE",
"586 228 OFFCURVE",
"620 148 CURVE SMOOTH",
"627 131 OFFCURVE",
"641 94 OFFCURVE",
"648 69 CURVE SMOOTH",
"663 13 OFFCURVE",
"686 0 OFFCURVE",
"806 0 CURVE SMOOTH",
"907 0 OFFCURVE",
"1028 61 OFFCURVE",
"1028 107 CURVE SMOOTH",
"1028 139 OFFCURVE",
"878 186 OFFCURVE",
"852 232 CURVE SMOOTH",
"771 376 OFFCURVE",
"754 445 OFFCURVE",
"754 485 CURVE SMOOTH",
"754 520 OFFCURVE",
"803 585 OFFCURVE",
"907 665 CURVE SMOOTH",
"1018 750 OFFCURVE",
"1118 809 OFFCURVE",
"1118 854 CURVE SMOOTH",
"1118 892 OFFCURVE",
"1050 924 OFFCURVE",
"931 924 CURVE SMOOTH",
"852 924 OFFCURVE",
"810 918 OFFCURVE",
"810 881 CURVE SMOOTH",
"810 859 OFFCURVE",
"801 815 OFFCURVE",
"794 794 CURVE SMOOTH",
"771 723 OFFCURVE",
"718 626 OFFCURVE",
"675 626 CURVE SMOOTH",
"641 626 OFFCURVE",
"604 733 OFFCURVE",
"586 788 CURVE SMOOTH",
"577 814 OFFCURVE",
"575 841 OFFCURVE",
"575 862 CURVE SMOOTH",
"575 894 OFFCURVE",
"552 914 OFFCURVE",
"475 914 CURVE SMOOTH",
"285 914 OFFCURVE",
"191 835 OFFCURVE",
"191 794 CURVE SMOOTH",
"191 759 OFFCURVE",
"304 746 OFFCURVE",
"347 709 CURVE SMOOTH",
"401 663 OFFCURVE",
"464 558 OFFCURVE",
"464 459 CURVE SMOOTH",
"464 406 OFFCURVE",
"400 344 OFFCURVE",
"272 231 CURVE SMOOTH",
"214 180 OFFCURVE",
"70 146 OFFCURVE",
"70 74 CURVE SMOOTH",
"70 44 OFFCURVE",
"100 -8 OFFCURVE",
"208 -8 CURVE SMOOTH",
"309 -8 OFFCURVE",
"371 0 OFFCURVE",
"371 52 CURVE"
);
}
);
width = 1155;
}
);
note = uni0078;
unicode = 0078;
},
{
glyphname = y;
layers = (
{
anchors = (
{
name = top;
position = "{581, 932}";
}
);
layerId = "92A672BF-229C-4BEC-8D25-4DDBB2A38145";
paths = (
{
closed = 1;
nodes = (
"347 -438 OFFCURVE",
"426 -395 OFFCURVE",
"490 -297 CURVE SMOOTH",
"591 -143 OFFCURVE",
"702 161 OFFCURVE",
"933.5 759 CURVE SMOOTH",
"949 800 OFFCURVE",
"1042 888.84 OFFCURVE",
"1042 915 CURVE SMOOTH",
"1042 942.333 OFFCURVE",
"1001.667 956 OFFCURVE",
"921 956 CURVE SMOOTH",
"792 956 OFFCURVE",
"739 953 OFFCURVE",
"739 928 CURVE SMOOTH",
"739 905 OFFCURVE",
"806 843 OFFCURVE",
"806 794.5 CURVE SMOOTH",
"806 742 OFFCURVE",
"644 243 OFFCURVE",
"602 243 CURVE SMOOTH",
"555 243 OFFCURVE",
"374 774 OFFCURVE",
"374 831 CURVE SMOOTH",
"374 852 OFFCURVE",
"402 889 OFFCURVE",
"402 906 CURVE SMOOTH",
"402 929.333 OFFCURVE",
"372.667 941 OFFCURVE",
"314 941 CURVE SMOOTH",
"164 941 OFFCURVE",
"89 920 OFFCURVE",
"89 878 CURVE SMOOTH",
"89 850.332 OFFCURVE",
"182.615 738.088 OFFCURVE",
"202 697.5 CURVE SMOOTH",
"276 542 OFFCURVE",
"499 40 OFFCURVE",
"499 0 CURVE SMOOTH",
"499 -128 OFFCURVE",
"405.667 -302 OFFCURVE",
"323 -302 CURVE SMOOTH",
"284 -302 OFFCURVE",
"253 -287 OFFCURVE",
"206 -287 CURVE SMOOTH",
"162 -287 OFFCURVE",
"140 -312 OFFCURVE",
"140 -362 CURVE SMOOTH",
"140 -395.333 OFFCURVE",
"192.667 -438 OFFCURVE",
"266 -438 CURVE SMOOTH"
);
}
);
width = 1104;
},
{
anchors = (
{
name = top;
position = "{669, 950}";
}
);
layerId = "5CBF0BAD-1756-4F16-9711-93DC239D102B";
paths = (
{
closed = 1;
nodes = (
"351 -457 OFFCURVE",
"463 -365 OFFCURVE",
"544 -266 CURVE SMOOTH",
"666 -117 OFFCURVE",
"959 431 OFFCURVE",
"1033 585 CURVE SMOOTH",
"1061 644 OFFCURVE",
"1131 758 OFFCURVE",
"1131 787 CURVE SMOOTH",
"1131 841 OFFCURVE",
"1131 931 OFFCURVE",
"1001 931 CURVE SMOOTH",
"941 931 OFFCURVE",
"833 890 OFFCURVE",
"833 838 CURVE SMOOTH",
"833 807 OFFCURVE",
"866 682 OFFCURVE",
"866 647 CURVE SMOOTH",
"866 505 OFFCURVE",
"718 267 OFFCURVE",
"676 267 CURVE SMOOTH",
"601 267 OFFCURVE",
"548 676 OFFCURVE",
"536 735 CURVE SMOOTH",
"527 779 OFFCURVE",
"536 804 OFFCURVE",
"539 854 CURVE SMOOTH",
"542 898 OFFCURVE",
"505 924 OFFCURVE",
"399 924 CURVE SMOOTH",
"312 924 OFFCURVE",
"151 832 OFFCURVE",
"151 799 CURVE SMOOTH",
"151 753 OFFCURVE",
"281 735 OFFCURVE",
"323 582 CURVE SMOOTH",
"371 406 OFFCURVE",
"475 105 OFFCURVE",
"475 -45 CURVE SMOOTH",
"475 -91 OFFCURVE",
"454 -134 OFFCURVE",
"417 -175 CURVE SMOOTH",
"378 -217 OFFCURVE",
"318 -249 OFFCURVE",
"256 -266 CURVE SMOOTH",
"166 -291 OFFCURVE",
"95 -319 OFFCURVE",
"95 -381 CURVE SMOOTH",
"95 -442 OFFCURVE",
"168 -457 OFFCURVE",
"247 -457 CURVE SMOOTH"
);
}
);
width = 1152;
}
);
note = uni0079;
unicode = 0079;
},
{
glyphname = z;
layers = (
{
anchors = (
{
name = top;
position = "{521, 949}";
}
);
layerId = "92A672BF-229C-4BEC-8D25-4DDBB2A38145";
paths = (
{
closed = 1;
nodes = (
"605 6 OFFCURVE",
"344 4 OFFCURVE",
"499 4 CURVE SMOOTH",
"654 0 OFFCURVE",
"800 -3 OFFCURVE",
"802 -3 CURVE SMOOTH",
"888 -3 OFFCURVE",
"900 72 OFFCURVE",
"900 189 CURVE SMOOTH",
"900 244 OFFCURVE",
"896 268 OFFCURVE",
"862 268 CURVE SMOOTH",
"840.165 268 OFFCURVE",
"756.59 139.633 OFFCURVE",
"713.5 117 CURVE SMOOTH",
"684 101 OFFCURVE",
"564 91 OFFCURVE",
"468 90 CURVE SMOOTH",
"399 89 OFFCURVE",
"343 93 OFFCURVE",
"343 104 CURVE SMOOTH",
"343 162 OFFCURVE",
"869 841 OFFCURVE",
"869 912 CURVE SMOOTH",
"869 938 OFFCURVE",
"848 951 OFFCURVE",
"806 951 CURVE SMOOTH",
"673 951 OFFCURVE",
"795 950 OFFCURVE",
"434 950 CURVE SMOOTH",
"412 950 OFFCURVE",
"368 951 OFFCURVE",
"186 957 CURVE SMOOTH",
"119 957 OFFCURVE",
"107 890 OFFCURVE",
"107 794 CURVE SMOOTH",
"107 730 OFFCURVE",
"119.333 698 OFFCURVE",
"144 698 CURVE SMOOTH",
"169.727 698 OFFCURVE",
"248.082 820.552 OFFCURVE",
"291 841.5 CURVE SMOOTH",
"319 855 OFFCURVE",
"411 863 OFFCURVE",
"491 862 CURVE SMOOTH",
"562 862 OFFCURVE",
"623 854 OFFCURVE",
"623 838 CURVE SMOOTH",
"623 764 OFFCURVE",
"97 162 OFFCURVE",
"97 43 CURVE SMOOTH",
"97 15.667 OFFCURVE",
"128.333 2 OFFCURVE",
"191 2 CURVE SMOOTH"
);
}
);
width = 983;
},
{
anchors = (
{
name = top;
position = "{648, 963}";
}
);
layerId = "5CBF0BAD-1756-4F16-9711-93DC239D102B";
paths = (
{
closed = 1;
nodes = (
"200 -10 OFFCURVE",
"249 16 OFFCURVE",
"334 16 CURVE SMOOTH",
"446 16 OFFCURVE",
"636 -36 OFFCURVE",
"748 -36 CURVE SMOOTH",
"794 -36 OFFCURVE",
"891 36 OFFCURVE",
"891 158 CURVE SMOOTH",
"891 212 OFFCURVE",
"891 251 OFFCURVE",
"866 251 CURVE SMOOTH",
"823 251 OFFCURVE",
"774 211 OFFCURVE",
"709 187 CURVE SMOOTH",
"670 171 OFFCURVE",
"574 191 OFFCURVE",
"509 191 CURVE SMOOTH",
"444 191 OFFCURVE",
"389 178 OFFCURVE",
"389 191 CURVE SMOOTH",
"389 228 OFFCURVE",
"975 782 OFFCURVE",
"975 868 CURVE SMOOTH",
"975 914 OFFCURVE",
"954 925 OFFCURVE",
"917 925 CURVE SMOOTH",
"887 925 OFFCURVE",
"839 907 OFFCURVE",
"749 907 CURVE SMOOTH",
"622 907 OFFCURVE",
"429 932 OFFCURVE",
"302 933 CURVE SMOOTH",
"236 933 OFFCURVE",
"180 847 OFFCURVE",
"180 753 CURVE SMOOTH",
"180 688 OFFCURVE",
"180 638 OFFCURVE",
"217 638 CURVE SMOOTH",
"285 638 OFFCURVE",
"264 687 OFFCURVE",
"344 717 CURVE SMOOTH",
"368 726 OFFCURVE",
"489 733 OFFCURVE",
"539 733 CURVE SMOOTH",
"623 733 OFFCURVE",
"650 733 OFFCURVE",
"650 715 CURVE SMOOTH",
"650 677 OFFCURVE",
"72 149 OFFCURVE",
"72 50 CURVE SMOOTH",
"72 16 OFFCURVE",
"91 -10 OFFCURVE",
"129 -10 CURVE SMOOTH"
);
}
);
width = 996;
}
);
note = uni007A;
unicode = 007A;
},
{
glyphname = ordfeminine;
layers = (
{
layerId = "92A672BF-229C-4BEC-8D25-4DDBB2A38145";
paths = (
{
closed = 1;
nodes = (
"422 725 OFFCURVE",
"472 831 OFFCURVE",
"494 830 CURVE SMOOTH",
"512 829 OFFCURVE",
"552 735 OFFCURVE",
"597 735 CURVE SMOOTH",
"742 735 OFFCURVE",
"792 787 OFFCURVE",
"792 838 CURVE SMOOTH",
"792 863 OFFCURVE",
"764 873 OFFCURVE",
"747 872 CURVE SMOOTH",
"726 871 OFFCURVE",
"681 872 OFFCURVE",
"681 901 CURVE SMOOTH",
"681 1032 OFFCURVE",
"741 1204 OFFCURVE",
"741 1276 CURVE SMOOTH",
"741 1311 OFFCURVE",
"728 1328 OFFCURVE",
"694 1326 CURVE SMOOTH",
"673 1325 OFFCURVE",
"662 1319 OFFCURVE",
"637 1319 CURVE SMOOTH",
"612 1319 OFFCURVE",
"567 1347 OFFCURVE",
"534 1347 CURVE SMOOTH",
"417 1347 OFFCURVE",
"347 1307 OFFCURVE",
"292 1265 CURVE SMOOTH",
"251 1234 OFFCURVE",
"196 1165 OFFCURVE",
"171 1116 CURVE SMOOTH",
"146 1067 OFFCURVE",
"129 1006 OFFCURVE",
"129 930 CURVE SMOOTH",
"129 825 OFFCURVE",
"193 725 OFFCURVE",
"290 725 CURVE SMOOTH"
);
},
{
closed = 1;
nodes = (
"311 838 OFFCURVE",
"290 942 OFFCURVE",
"290 986 CURVE SMOOTH",
"290 1073 OFFCURVE",
"362 1246 OFFCURVE",
"491 1246 CURVE SMOOTH",
"541 1246 OFFCURVE",
"560 1227 OFFCURVE",
"560 1188 CURVE SMOOTH",
"560 1014 OFFCURVE",
"495 838 OFFCURVE",
"351 838 CURVE SMOOTH"
);
}
);
width = 827;
},
{
layerId = "5CBF0BAD-1756-4F16-9711-93DC239D102B";
paths = (
{
closed = 1;
nodes = (
"433 725 OFFCURVE",
"483 831 OFFCURVE",
"505 830 CURVE SMOOTH",
"523 829 OFFCURVE",
"563 735 OFFCURVE",
"608 735 CURVE SMOOTH",
"753 735 OFFCURVE",
"803 787 OFFCURVE",
"803 838 CURVE SMOOTH",
"803 863 OFFCURVE",
"775 873 OFFCURVE",
"758 872 CURVE SMOOTH",
"737 871 OFFCURVE",
"692 872 OFFCURVE",
"692 901 CURVE SMOOTH",
"692 1032 OFFCURVE",
"752 1204 OFFCURVE",
"752 1276 CURVE SMOOTH",
"752 1311 OFFCURVE",
"739 1328 OFFCURVE",
"705 1326 CURVE SMOOTH",
"684 1325 OFFCURVE",
"673 1319 OFFCURVE",
"648 1319 CURVE SMOOTH",
"623 1319 OFFCURVE",
"578 1347 OFFCURVE",
"545 1347 CURVE SMOOTH",
"428 1347 OFFCURVE",
"358 1307 OFFCURVE",
"303 1265 CURVE SMOOTH",
"262 1234 OFFCURVE",
"207 1165 OFFCURVE",
"182 1116 CURVE SMOOTH",
"157 1067 OFFCURVE",
"140 1006 OFFCURVE",
"140 930 CURVE SMOOTH",
"140 825 OFFCURVE",
"204 725 OFFCURVE",
"301 725 CURVE SMOOTH"
);
},
{
closed = 1;
nodes = (
"322 838 OFFCURVE",
"301 942 OFFCURVE",
"301 986 CURVE SMOOTH",
"301 1073 OFFCURVE",
"373 1246 OFFCURVE",
"502 1246 CURVE SMOOTH",
"552 1246 OFFCURVE",
"571 1227 OFFCURVE",
"571 1188 CURVE SMOOTH",
"571 1014 OFFCURVE",
"506 838 OFFCURVE",
"362 838 CURVE SMOOTH"
);
}
);
width = 861;
}
);
note = uni00AA;
unicode = 00AA;
},
{
glyphname = ordmasculine;
layers = (
{
layerId = "92A672BF-229C-4BEC-8D25-4DDBB2A38145";
paths = (
{
closed = 1;
nodes = (
"659 714 OFFCURVE",
"828 873 OFFCURVE",
"832 1059 CURVE SMOOTH",
"836 1258 OFFCURVE",
"758 1367 OFFCURVE",
"563 1368 CURVE",
"419 1368 OFFCURVE",
"186 1259 OFFCURVE",
"186 1005 CURVE SMOOTH",
"186 811 OFFCURVE",
"267 714 OFFCURVE",
"444 714 CURVE SMOOTH"
);
},
{
closed = 1;
nodes = (
"419 822 OFFCURVE",
"376 887 OFFCURVE",
"373 999 CURVE",
"373 1189 OFFCURVE",
"469 1259 OFFCURVE",
"539 1259 CURVE SMOOTH",
"610 1259 OFFCURVE",
"649 1255 OFFCURVE",
"649 1038 CURVE SMOOTH",
"649 934 OFFCURVE",
"557 822 OFFCURVE",
"482 822 CURVE SMOOTH"
);
}
);
width = 853;
},
{
layerId = "5CBF0BAD-1756-4F16-9711-93DC239D102B";
paths = (
{
closed = 1;
nodes = (
"659 714 OFFCURVE",
"828 873 OFFCURVE",
"832 1059 CURVE SMOOTH",
"836 1258 OFFCURVE",
"758 1367 OFFCURVE",
"563 1368 CURVE",
"419 1368 OFFCURVE",
"186 1259 OFFCURVE",
"186 1005 CURVE SMOOTH",
"186 811 OFFCURVE",
"267 714 OFFCURVE",
"444 714 CURVE SMOOTH"
);
},
{
closed = 1;
nodes = (
"419 822 OFFCURVE",
"376 887 OFFCURVE",
"373 999 CURVE",
"373 1189 OFFCURVE",
"469 1259 OFFCURVE",
"539 1259 CURVE SMOOTH",
"610 1259 OFFCURVE",
"649 1255 OFFCURVE",
"649 1038 CURVE SMOOTH",
"649 934 OFFCURVE",
"557 822 OFFCURVE",
"482 822 CURVE SMOOTH"
);
}
);
width = 873;
}
);
note = uni00BA;
unicode = 00BA;
},
